<svg width="90" height="84" viewBox="0 0 90 84" fill="none" xmlns="http://www.w3.org/2000/svg">
<path d="M73.5784 12.3015C82.0175 19.7061 87.1001 29.9363 87.708 40.7417C88.3158 51.547 84.3992 62.0424 76.8198 69.9189L72.5372 66.1614C79.0966 59.3449 82.486 50.2621 81.96 40.911C81.4339 31.5599 77.0354 22.7066 69.7321 16.2986L73.5784 12.3015Z" fill="black"/>
<path d="M65.1158 22.6643C71.3759 27.5647 75.1198 34.351 75.5237 41.5303C75.9275 48.7096 72.9584 55.6937 67.2694 60.9462L64.0926 58.4594C69.0159 53.9138 71.5854 47.8697 71.2359 41.6566C70.8864 35.4436 67.6464 29.5707 62.2288 25.3297L65.1158 22.6643Z" fill="black"/>
<path d="M56.892 31.9508C62.4709 35.0898 65.7524 39.4734 66.0148 44.1372C66.2772 48.8011 63.4989 53.3632 58.2911 56.8199L55.46 55.227C59.9669 52.2355 62.3713 48.2874 62.1442 44.2513C61.9171 40.2151 59.0772 36.4215 54.2492 33.705L56.892 31.9508Z" fill="black"/>
<path d="M2.16018 62.1295C1.05416 62.129 0.156141 61.2308 0.155746 60.1248L0.145054 30.1238C0.144661 29.0207 1.03748 28.1279 2.14058 28.1285L17.5985 28.1362C18.7081 28.1367 19.6076 29.0405 19.6029 30.1501L19.4755 60.151C19.4708 61.2505 18.5795 62.1376 17.48 62.1371L2.16018 62.1295Z" fill="black"/>
<path d="M0.130722 43.9125L48.5615 14.3383L48.5615 75.0424L24.3461 59.4775L0.130722 43.9125Z" fill="black"/>
</svg>
