<?xml version="1.0" encoding="utf-8"?>
<svg viewBox="1153.211 1126.292 365.255 400.615" xmlns="http://www.w3.org/2000/svg">
  <defs>
    <clipPath id="clipPath22" clipPathUnits="userSpaceOnUse">
      <path id="path20" d="m 9452.64,2845.69 c -34.66,8.62 -73.17,44.05 -103.23,97.17 -1.45,2.47 -2.9,5.03 -4.18,7.6 -14.35,26.64 -26.56,57.38 -35.18,91.19 -0.68,2.65 -1.37,5.38 -1.97,8.11 -7.25,30.74 -11.61,63.96 -11.86,98.71 -0.09,2.9 -0.09,5.89 0,8.79 0.25,31.08 3.67,63.36 11.1,96.32 0.59,3.07 1.36,6.23 2.13,9.39 5.21,21.52 12.13,43.29 21.01,65.15 1.11,2.91 2.3,5.81 3.67,8.71 0.59,1.63 1.28,3.33 2.05,4.96 10.33,23.56 20.92,43.89 31.59,61.39 1.54,2.56 3.07,5.04 4.61,7.43 17.93,28.18 35.95,48.5 52.77,63.1 2.31,2.05 4.61,3.93 6.83,5.72 46.62,37.06 82.91,31.08 82.91,31.08 -19.04,-19.04 -42.18,-48.67 -61.82,-92.56 -1.36,-3.07 -2.73,-6.23 -4.1,-9.56 -6.4,-15.29 -12.38,-32.28 -17.59,-50.98 -0.68,-2.56 -1.45,-5.21 -2.13,-7.85 -4.87,-18.79 -9.05,-39.37 -12.21,-61.74 -0.34,-2.73 -0.77,-5.46 -1.11,-8.2 -2.65,-20.92 -4.44,-43.46 -5.12,-67.62 -0.09,-2.65 -0.18,-5.38 -0.18,-8.12 -0.08,-4.86 -0.17,-9.81 -0.17,-14.77 0,-15.45 0.86,-30.14 2.48,-43.97 0.26,-2.73 0.6,-5.47 0.94,-8.11 3.16,-22.63 8.2,-43.04 14.51,-61.4 0.86,-2.64 1.8,-5.29 2.74,-7.85 8.79,-23.48 19.64,-43.38 30.91,-59.94 1.53,-2.31 2.99,-4.44 4.61,-6.58 32.19,-44.74 66.34,-63.19 66.34,-63.19 0,0 16.06,-116.55 -80.35,-92.38 z"/>
    </clipPath>
    <linearGradient id="linearGradient30" spreadMethod="pad" gradientTransform="matrix(89.6611,-529.428,-529.428,-89.6611,9384.63,3436.01)" gradientUnits="userSpaceOnUse" y2="0" x2="1" y1="0" x1="0">
      <stop id="stop24" offset="0" style="stop-opacity:1;stop-color:#ffed00"/>
      <stop id="stop26" offset="0.6817" style="stop-opacity:1;stop-color:#ffed00"/>
      <stop id="stop28" offset="1" style="stop-opacity:1;stop-color:#f6a000"/>
    </linearGradient>
    <clipPath id="clipPath40" clipPathUnits="userSpaceOnUse">
      <path id="path38" d="m 9741.9,2857.87 c 0,0 59.07,12.89 124.53,-52.57 0,0 -39.85,-54.08 -105.31,-54.08 0,0 -29.34,64.82 -19.22,106.65 z"/>
    </clipPath>
    <linearGradient id="linearGradient46" spreadMethod="pad" gradientTransform="matrix(-465.361,-1203.96,-1203.96,465.361,9715.83,2603.06)" gradientUnits="userSpaceOnUse" y2="0" x2="1" y1="0" x1="0">
      <stop id="stop42" offset="0" style="stop-opacity:1;stop-color:#e5005b"/>
      <stop id="stop44" offset="1" style="stop-opacity:1;stop-color:#702381"/>
    </linearGradient>
    <clipPath id="clipPath56" clipPathUnits="userSpaceOnUse">
      <path id="path54" d="m 9756.26,2704.97 c 0,0 78.86,-2.14 110.17,-61.91 0,0 -73.75,-49.81 -132.23,-19.21 z"/>
    </clipPath>
    <linearGradient id="linearGradient62" spreadMethod="pad" gradientTransform="matrix(-465.361,-1203.96,-1203.96,465.361,9775.07,2580.16)" gradientUnits="userSpaceOnUse" y2="0" x2="1" y1="0" x1="0">
      <stop id="stop58" offset="0" style="stop-opacity:1;stop-color:#e5005b"/>
      <stop id="stop60" offset="1" style="stop-opacity:1;stop-color:#702381"/>
    </linearGradient>
    <clipPath id="clipPath72" clipPathUnits="userSpaceOnUse">
      <path id="path70" d="m 9724.21,2600.78 c 0,0 78.89,-45.95 78.89,-142.73 0,0 -83.12,10.11 -126.59,10.11 -43.47,0 47.7,132.62 47.7,132.62 z"/>
    </clipPath>
    <linearGradient id="linearGradient78" spreadMethod="pad" gradientTransform="matrix(-465.361,-1203.96,-1203.96,465.361,9774.93,2580.22)" gradientUnits="userSpaceOnUse" y2="0" x2="1" y1="0" x1="0">
      <stop id="stop74" offset="0" style="stop-opacity:1;stop-color:#e5005b"/>
      <stop id="stop76" offset="1" style="stop-opacity:1;stop-color:#702381"/>
    </linearGradient>
    <clipPath id="clipPath88" clipPathUnits="userSpaceOnUse">
      <path id="path86" d="m 9664.76,2434.55 102.05,-93.19 -139.41,-22.79 c 0,0 -14.27,84.08 37.36,115.98 z"/>
    </clipPath>
    <linearGradient id="linearGradient94" spreadMethod="pad" gradientTransform="matrix(-465.361,-1203.96,-1203.96,465.361,9781.29,2577.76)" gradientUnits="userSpaceOnUse" y2="0" x2="1" y1="0" x1="0">
      <stop id="stop90" offset="0" style="stop-opacity:1;stop-color:#e5005b"/>
      <stop id="stop92" offset="1" style="stop-opacity:1;stop-color:#702381"/>
    </linearGradient>
    <clipPath id="clipPath104" clipPathUnits="userSpaceOnUse">
      <path id="path102" d="m 9618.44,2287.38 c 0,0 70.35,-28.56 97.97,-99.72 0,0 -101.07,-21.61 -122.68,0 -21.62,21.61 -1.28,99.72 24.71,99.72 z"/>
    </clipPath>
    <linearGradient id="linearGradient110" spreadMethod="pad" gradientTransform="matrix(-465.361,-1203.96,-1203.96,465.361,9790.12,2574.35)" gradientUnits="userSpaceOnUse" y2="0" x2="1" y1="0" x1="0">
      <stop id="stop106" offset="0" style="stop-opacity:1;stop-color:#e5005b"/>
      <stop id="stop108" offset="1" style="stop-opacity:1;stop-color:#702381"/>
    </linearGradient>
    <clipPath id="clipPath120" clipPathUnits="userSpaceOnUse">
      <path id="path118" d="m 9588.44,2161.78 c 0,0 101.88,-49.19 117.89,-92.95 l -133.97,-15.05 c 0,0 0.95,92.87 16.08,108 z"/>
    </clipPath>
    <linearGradient id="linearGradient126" spreadMethod="pad" gradientTransform="matrix(-465.361,-1203.96,-1203.96,465.361,9819.62,2562.94)" gradientUnits="userSpaceOnUse" y2="0" x2="1" y1="0" x1="0">
      <stop id="stop122" offset="0" style="stop-opacity:1;stop-color:#e5005b"/>
      <stop id="stop124" offset="1" style="stop-opacity:1;stop-color:#702381"/>
    </linearGradient>
    <clipPath id="clipPath136" clipPathUnits="userSpaceOnUse">
      <path id="path134" d="m 9569.4,2017.48 c 0,0 103.84,-19.08 131.59,-35.08 0,0 -110.02,-84.4 -130.79,-84.4 0,0 -33.13,68.1 -0.8,119.48 z"/>
    </clipPath>
    <linearGradient id="linearGradient142" spreadMethod="pad" gradientTransform="matrix(-465.361,-1203.96,-1203.96,465.361,9847.75,2552.07)" gradientUnits="userSpaceOnUse" y2="0" x2="1" y1="0" x1="0">
      <stop id="stop138" offset="0" style="stop-opacity:1;stop-color:#e5005b"/>
      <stop id="stop140" offset="1" style="stop-opacity:1;stop-color:#702381"/>
    </linearGradient>
    <clipPath id="clipPath152" clipPathUnits="userSpaceOnUse">
      <path id="path150" d="m 9573.89,1863.7 132.44,9.7 -109.2,-114.5 c 0,0 -48.42,57.6 -23.24,104.8 z"/>
    </clipPath>
    <linearGradient id="linearGradient158" spreadMethod="pad" gradientTransform="matrix(-465.361,-1203.96,-1203.96,465.361,9896.74,2533.13)" gradientUnits="userSpaceOnUse" y2="0" x2="1" y1="0" x1="0">
      <stop id="stop154" offset="0" style="stop-opacity:1;stop-color:#e5005b"/>
      <stop id="stop156" offset="1" style="stop-opacity:1;stop-color:#702381"/>
    </linearGradient>
    <clipPath id="clipPath168" clipPathUnits="userSpaceOnUse">
      <path id="path166" d="m 9603.74,1739.4 126.07,19.5 -70.91,-129.1 c 0,0 -81.98,66.1 -55.16,109.6 z"/>
    </clipPath>
    <linearGradient id="linearGradient174" spreadMethod="pad" gradientTransform="matrix(-465.361,-1203.96,-1203.96,465.361,9960.03,2508.67)" gradientUnits="userSpaceOnUse" y2="0" x2="1" y1="0" x1="0">
      <stop id="stop170" offset="0" style="stop-opacity:1;stop-color:#e5005b"/>
      <stop id="stop172" offset="1" style="stop-opacity:1;stop-color:#702381"/>
    </linearGradient>
    <clipPath id="clipPath184" clipPathUnits="userSpaceOnUse">
      <path id="path182" d="m 9680.16,1601.6 113.69,53.2 -27.04,-129.5 c 0,0 -108.56,26.3 -86.65,76.3 z"/>
    </clipPath>
    <linearGradient id="linearGradient190" spreadMethod="pad" gradientTransform="matrix(-465.361,-1203.96,-1203.96,465.361,10072.1,2465.36)" gradientUnits="userSpaceOnUse" y2="0" x2="1" y1="0" x1="0">
      <stop id="stop186" offset="0" style="stop-opacity:1;stop-color:#e5005b"/>
      <stop id="stop188" offset="1" style="stop-opacity:1;stop-color:#702381"/>
    </linearGradient>
    <clipPath id="clipPath200" clipPathUnits="userSpaceOnUse">
      <path id="path198" d="m 9998.1,1506.8 47.6,58.8 37.5,-99.1 -79.1,-24.2 z"/>
    </clipPath>
    <linearGradient id="linearGradient206" spreadMethod="pad" gradientTransform="matrix(-465.361,-1203.96,-1203.96,465.361,10373.9,2348.71)" gradientUnits="userSpaceOnUse" y2="0" x2="1" y1="0" x1="0">
      <stop id="stop202" offset="0" style="stop-opacity:1;stop-color:#e5005b"/>
      <stop id="stop204" offset="1" style="stop-opacity:1;stop-color:#702381"/>
    </linearGradient>
    <clipPath id="clipPath216" clipPathUnits="userSpaceOnUse">
      <path id="path214" d="m 10137.6,1473.7 23.4,108.4 74.7,-87.5 c 0,0 -65.1,-53.9 -98.1,-20.9 z"/>
    </clipPath>
    <linearGradient id="linearGradient222" spreadMethod="pad" gradientTransform="matrix(-465.361,-1203.96,-1203.96,465.361,10493.7,2302.4)" gradientUnits="userSpaceOnUse" y2="0" x2="1" y1="0" x1="0">
      <stop id="stop218" offset="0" style="stop-opacity:1;stop-color:#e5005b"/>
      <stop id="stop220" offset="1" style="stop-opacity:1;stop-color:#702381"/>
    </linearGradient>
    <clipPath id="clipPath232" clipPathUnits="userSpaceOnUse">
      <path id="path230" d="m 10279.6,1507 28.7,122.8 92,-80.3 c 0,0 -83.2,-65.4 -120.7,-42.5 z"/>
    </clipPath>
    <linearGradient id="linearGradient238" spreadMethod="pad" gradientTransform="matrix(-465.361,-1203.96,-1203.96,465.361,10612.1,2256.62)" gradientUnits="userSpaceOnUse" y2="0" x2="1" y1="0" x1="0">
      <stop id="stop234" offset="0" style="stop-opacity:1;stop-color:#e5005b"/>
      <stop id="stop236" offset="1" style="stop-opacity:1;stop-color:#702381"/>
    </linearGradient>
    <clipPath id="clipPath248" clipPathUnits="userSpaceOnUse">
      <path id="path246" d="m 10434.8,1563.2 39,131.1 97.1,-103.5 c 0,0 -101.4,-52.9 -136.1,-27.6 z"/>
    </clipPath>
    <linearGradient id="linearGradient254" spreadMethod="pad" gradientTransform="matrix(-465.361,-1203.96,-1203.96,465.361,10740.5,2207.01)" gradientUnits="userSpaceOnUse" y2="0" x2="1" y1="0" x1="0">
      <stop id="stop250" offset="0" style="stop-opacity:1;stop-color:#e5005b"/>
      <stop id="stop252" offset="1" style="stop-opacity:1;stop-color:#702381"/>
    </linearGradient>
    <clipPath id="clipPath264" clipPathUnits="userSpaceOnUse">
      <path id="path262" d="m 10606.1,1592 22.4,102.3 83.3,-105 c 0,0 -82.2,-34.4 -105.7,2.7 z"/>
    </clipPath>
    <linearGradient id="linearGradient270" spreadMethod="pad" gradientTransform="matrix(-465.361,-1203.96,-1203.96,465.361,10869.3,2157.2)" gradientUnits="userSpaceOnUse" y2="0" x2="1" y1="0" x1="0">
      <stop id="stop266" offset="0" style="stop-opacity:1;stop-color:#e5005b"/>
      <stop id="stop268" offset="1" style="stop-opacity:1;stop-color:#702381"/>
    </linearGradient>
    <clipPath id="clipPath280" clipPathUnits="userSpaceOnUse">
      <path id="path278" d="m 10785.7,1593.1 -44,93.6 143.1,-35.3 c 0,0 -2.7,-101.7 -99.1,-58.3 z"/>
    </clipPath>
    <linearGradient id="linearGradient286" spreadMethod="pad" gradientTransform="matrix(-465.361,-1203.96,-1203.96,465.361,10987.1,2111.67)" gradientUnits="userSpaceOnUse" y2="0" x2="1" y1="0" x1="0">
      <stop id="stop282" offset="0" style="stop-opacity:1;stop-color:#e5005b"/>
      <stop id="stop284" offset="1" style="stop-opacity:1;stop-color:#702381"/>
    </linearGradient>
    <clipPath id="clipPath296" clipPathUnits="userSpaceOnUse">
      <path id="path294" d="m 10884.8,1795.8 -98.3,-48.2 119.7,-60.9 27.6,59.8 z"/>
    </clipPath>
    <linearGradient id="linearGradient302" spreadMethod="pad" gradientTransform="matrix(-465.361,-1203.96,-1203.96,465.361,10999.3,2106.98)" gradientUnits="userSpaceOnUse" y2="0" x2="1" y1="0" x1="0">
      <stop id="stop298" offset="0" style="stop-opacity:1;stop-color:#e5005b"/>
      <stop id="stop300" offset="1" style="stop-opacity:1;stop-color:#702381"/>
    </linearGradient>
    <clipPath id="clipPath312" clipPathUnits="userSpaceOnUse">
      <path id="path310" d="m 10786.5,1906.7 -44.8,-69.5 107.7,1.8 c 0,0 -7.4,61.4 -62.9,67.7 z"/>
    </clipPath>
    <linearGradient id="linearGradient318" spreadMethod="pad" gradientTransform="matrix(-465.361,-1203.96,-1203.96,465.361,10912.4,2140.55)" gradientUnits="userSpaceOnUse" y2="0" x2="1" y1="0" x1="0">
      <stop id="stop314" offset="0" style="stop-opacity:1;stop-color:#e5005b"/>
      <stop id="stop316" offset="1" style="stop-opacity:1;stop-color:#702381"/>
    </linearGradient>
    <clipPath id="clipPath328" clipPathUnits="userSpaceOnUse">
      <path id="path326" d="m 10708.4,2007.5 -36.1,-77.4 h 93.5 c 0,0 -11.6,62 -57.4,77.4 z"/>
    </clipPath>
    <linearGradient id="linearGradient334" spreadMethod="pad" gradientTransform="matrix(-465.361,-1203.96,-1203.96,465.361,10815,2178.22)" gradientUnits="userSpaceOnUse" y2="0" x2="1" y1="0" x1="0">
      <stop id="stop330" offset="0" style="stop-opacity:1;stop-color:#e5005b"/>
      <stop id="stop332" offset="1" style="stop-opacity:1;stop-color:#702381"/>
    </linearGradient>
    <clipPath id="clipPath344" clipPathUnits="userSpaceOnUse">
      <path id="path342" d="m 10658.3,2124 -58.6,-70.22 91.6,-16.05 c 0,0 11.7,51.79 -33,86.27 z"/>
    </clipPath>
    <linearGradient id="linearGradient350" spreadMethod="pad" gradientTransform="matrix(-465.361,-1203.96,-1203.96,465.361,10712.1,2218)" gradientUnits="userSpaceOnUse" y2="0" x2="1" y1="0" x1="0">
      <stop id="stop346" offset="0" style="stop-opacity:1;stop-color:#e5005b"/>
      <stop id="stop348" offset="1" style="stop-opacity:1;stop-color:#702381"/>
    </linearGradient>
    <clipPath id="clipPath360" clipPathUnits="userSpaceOnUse">
      <path id="path358" d="m 10642.2,2252.44 -94.8,-28.84 102.5,-56.74 c 0,0 17.7,40.78 -7.7,85.58 z"/>
    </clipPath>
    <linearGradient id="linearGradient366" spreadMethod="pad" gradientTransform="matrix(-465.361,-1203.96,-1203.96,465.361,10621,2253.18)" gradientUnits="userSpaceOnUse" y2="0" x2="1" y1="0" x1="0">
      <stop id="stop362" offset="0" style="stop-opacity:1;stop-color:#e5005b"/>
      <stop id="stop364" offset="1" style="stop-opacity:1;stop-color:#702381"/>
    </linearGradient>
    <clipPath id="clipPath376" clipPathUnits="userSpaceOnUse">
      <path id="path374" d="m 10642.7,2310.02 -76.1,52.33 89.3,35.99 c 0,0 33,-74.48 -13.2,-88.32 z"/>
    </clipPath>
    <linearGradient id="linearGradient382" spreadMethod="pad" gradientTransform="matrix(-465.361,-1203.96,-1203.96,465.361,10584.9,2267.13)" gradientUnits="userSpaceOnUse" y2="0" x2="1" y1="0" x1="0">
      <stop id="stop378" offset="0" style="stop-opacity:1;stop-color:#e5005b"/>
      <stop id="stop380" offset="1" style="stop-opacity:1;stop-color:#702381"/>
    </linearGradient>
    <clipPath id="clipPath392" clipPathUnits="userSpaceOnUse">
      <path id="path390" d="m 10661.1,2441.19 -59.5,68.45 84,10.67 c 0,0 24.2,-84.6 -24.5,-79.12 z"/>
    </clipPath>
    <linearGradient id="linearGradient398" spreadMethod="pad" gradientTransform="matrix(-465.361,-1203.96,-1203.96,465.361,10564.5,2275.04)" gradientUnits="userSpaceOnUse" y2="0" x2="1" y1="0" x1="0">
      <stop id="stop394" offset="0" style="stop-opacity:1;stop-color:#e5005b"/>
      <stop id="stop396" offset="1" style="stop-opacity:1;stop-color:#702381"/>
    </linearGradient>
    <clipPath id="clipPath408" clipPathUnits="userSpaceOnUse">
      <path id="path406" d="m 10714.7,2583.84 -22.1,75.6 62.4,-13.06 c 0,0 -7.4,-62.54 -40.3,-62.54 z"/>
    </clipPath>
    <linearGradient id="linearGradient414" spreadMethod="pad" gradientTransform="matrix(-465.361,-1203.96,-1203.96,465.361,10577.9,2269.85)" gradientUnits="userSpaceOnUse" y2="0" x2="1" y1="0" x1="0">
      <stop id="stop410" offset="0" style="stop-opacity:1;stop-color:#e5005b"/>
      <stop id="stop412" offset="1" style="stop-opacity:1;stop-color:#702381"/>
    </linearGradient>
    <clipPath id="clipPath424" clipPathUnits="userSpaceOnUse">
      <path id="path422" d="m 10787.1,2683.91 22.9,87.23 45.5,-29.91 c 0,0 -40.1,-57.32 -68.4,-57.32 z"/>
    </clipPath>
    <linearGradient id="linearGradient430" spreadMethod="pad" gradientTransform="matrix(-465.361,-1203.96,-1203.96,465.361,10636.1,2247.37)" gradientUnits="userSpaceOnUse" y2="0" x2="1" y1="0" x1="0">
      <stop id="stop426" offset="0" style="stop-opacity:1;stop-color:#e5005b"/>
      <stop id="stop428" offset="1" style="stop-opacity:1;stop-color:#702381"/>
    </linearGradient>
    <clipPath id="clipPath440" clipPathUnits="userSpaceOnUse">
      <path id="path438" d="m 10909.1,2771.14 26.8,71.23 40.4,-46.93 c 0,0 -34.3,-37.11 -67.2,-24.3 z"/>
    </clipPath>
    <linearGradient id="linearGradient446" spreadMethod="pad" gradientTransform="matrix(-465.361,-1203.96,-1203.96,465.361,10722.3,2214.04)" gradientUnits="userSpaceOnUse" y2="0" x2="1" y1="0" x1="0">
      <stop id="stop442" offset="0" style="stop-opacity:1;stop-color:#e5005b"/>
      <stop id="stop444" offset="1" style="stop-opacity:1;stop-color:#702381"/>
    </linearGradient>
    <clipPath id="clipPath456" clipPathUnits="userSpaceOnUse">
      <path id="path454" d="m 11032.1,2806.86 53.2,52.04 23.5,-47 c 0,0 -59.3,-22.44 -76.7,-5.04 z"/>
    </clipPath>
    <linearGradient id="linearGradient462" spreadMethod="pad" gradientTransform="matrix(-465.361,-1203.96,-1203.96,465.361,10825,2174.35)" gradientUnits="userSpaceOnUse" y2="0" x2="1" y1="0" x1="0">
      <stop id="stop458" offset="0" style="stop-opacity:1;stop-color:#e5005b"/>
      <stop id="stop460" offset="1" style="stop-opacity:1;stop-color:#702381"/>
    </linearGradient>
    <clipPath id="clipPath472" clipPathUnits="userSpaceOnUse">
      <path id="path470" d="m 11168.3,2805.41 62.2,24.16 10.3,-51 c 0,0 -72.5,1.34 -72.5,26.84 z"/>
    </clipPath>
    <linearGradient id="linearGradient478" spreadMethod="pad" gradientTransform="matrix(-465.361,-1203.96,-1203.96,465.361,10947.5,2126.98)" gradientUnits="userSpaceOnUse" y2="0" x2="1" y1="0" x1="0">
      <stop id="stop474" offset="0" style="stop-opacity:1;stop-color:#e5005b"/>
      <stop id="stop476" offset="1" style="stop-opacity:1;stop-color:#702381"/>
    </linearGradient>
    <clipPath id="clipPath488" clipPathUnits="userSpaceOnUse">
      <path id="path486" d="m 11278.5,2751.22 68.6,-14.23 -23.7,-45.33 c 0,0 -44.9,18.29 -44.9,59.56 z"/>
    </clipPath>
    <linearGradient id="linearGradient494" spreadMethod="pad" gradientTransform="matrix(-465.361,-1203.96,-1203.96,465.361,11057.8,2084.36)" gradientUnits="userSpaceOnUse" y2="0" x2="1" y1="0" x1="0">
      <stop id="stop490" offset="0" style="stop-opacity:1;stop-color:#e5005b"/>
      <stop id="stop492" offset="1" style="stop-opacity:1;stop-color:#702381"/>
    </linearGradient>
    <clipPath id="clipPath504" clipPathUnits="userSpaceOnUse">
      <path id="path502" d="m 11344.6,2623.85 43.9,-40.01 -45.1,-35.92 c 0,0 -17.1,41.77 1.2,75.93 z"/>
    </clipPath>
    <linearGradient id="linearGradient510" spreadMethod="pad" gradientTransform="matrix(-465.361,-1203.96,-1203.96,465.361,11151.5,2048.15)" gradientUnits="userSpaceOnUse" y2="0" x2="1" y1="0" x1="0">
      <stop id="stop506" offset="0" style="stop-opacity:1;stop-color:#e5005b"/>
      <stop id="stop508" offset="1" style="stop-opacity:1;stop-color:#702381"/>
    </linearGradient>
    <clipPath id="clipPath520" clipPathUnits="userSpaceOnUse">
      <path id="path518" d="m 11318.1,2480.82 v -65.53 l -48.5,18.63 c 0,0 20.9,46.9 48.5,46.9 z"/>
    </clipPath>
    <linearGradient id="linearGradient526" spreadMethod="pad" gradientTransform="matrix(-465.361,-1203.96,-1203.96,465.361,11148.8,2049.19)" gradientUnits="userSpaceOnUse" y2="0" x2="1" y1="0" x1="0">
      <stop id="stop522" offset="0" style="stop-opacity:1;stop-color:#e5005b"/>
      <stop id="stop524" offset="1" style="stop-opacity:1;stop-color:#702381"/>
    </linearGradient>
    <clipPath id="clipPath536" clipPathUnits="userSpaceOnUse">
      <path id="path534" d="m 11189.7,2406.33 -38.2,-39.35 -21.7,44.11 c 0,0 41.5,13.62 59.9,-4.76 z"/>
    </clipPath>
    <linearGradient id="linearGradient542" spreadMethod="pad" gradientTransform="matrix(-465.361,-1203.96,-1203.96,465.361,11037.4,2092.24)" gradientUnits="userSpaceOnUse" y2="0" x2="1" y1="0" x1="0">
      <stop id="stop538" offset="0" style="stop-opacity:1;stop-color:#e5005b"/>
      <stop id="stop540" offset="1" style="stop-opacity:1;stop-color:#702381"/>
    </linearGradient>
    <clipPath id="clipPath552" clipPathUnits="userSpaceOnUse">
      <path id="path550" d="m 11082.5,2434.55 -50.4,6.39 22.6,39.88 c 0,0 27.8,-26.37 27.8,-46.27 z"/>
    </clipPath>
    <linearGradient id="linearGradient558" spreadMethod="pad" gradientTransform="matrix(-465.361,-1203.96,-1203.96,465.361,10938.5,2130.47)" gradientUnits="userSpaceOnUse" y2="0" x2="1" y1="0" x1="0">
      <stop id="stop554" offset="0" style="stop-opacity:1;stop-color:#e5005b"/>
      <stop id="stop556" offset="1" style="stop-opacity:1;stop-color:#702381"/>
    </linearGradient>
    <clipPath id="clipPath568" clipPathUnits="userSpaceOnUse">
      <path id="path566" d="m 11061.6,2522.88 -19,49.2 58.6,-14.14 c 0,0 -7.8,-50.64 -39.6,-35.06 z"/>
    </clipPath>
    <linearGradient id="linearGradient574" spreadMethod="pad" gradientTransform="matrix(-465.361,-1203.96,-1203.96,465.361,10909.2,2141.8)" gradientUnits="userSpaceOnUse" y2="0" x2="1" y1="0" x1="0">
      <stop id="stop570" offset="0" style="stop-opacity:1;stop-color:#e5005b"/>
      <stop id="stop572" offset="1" style="stop-opacity:1;stop-color:#702381"/>
    </linearGradient>
    <clipPath id="clipPath584" clipPathUnits="userSpaceOnUse">
      <path id="path582" d="m 11105.2,2507.89 c -11,-40.56 88.8,-84.79 139.2,1.8 48.7,83.68 -5.9,196.9 -179.6,196.9 -167.7,0 -387.2,-265.64 -216.4,-544.52 170.8,-278.97 563.5,-489.57 392.8,-950.67 -96.9,-261.498 -324.6,-396.701 -578.4,-464.599 -18.7,-5.102 -37.7,-9.801 -56.7,-14.102 l -0.5,-0.097 C 10428.5,692.402 10242.8,682 10082.7,682 c -409.84,0 -1038.8,74 -1055.88,179.301 -17.08,105.398 -10.59,693.399 267.52,1147.079 239.08,389.88 219.19,486.7 219.19,486.7 0,0 -239.09,-108.18 -398.51,-76.84 -21.34,4.18 -39.96,9.05 -56.27,14.43 -105.28,34.58 -111.68,88.03 -111.68,88.03 l -236.18,8.54 c 0,0 -119.97,179.83 -25.62,224.82 65.41,31.26 96.74,-19.89 96.74,-19.89 0,0 498.15,113.82 707.35,224.82 209.12,111.01 260.35,-79.66 271.79,-207.74 11.36,-128.08 -301.76,-634.77 -153.7,-1021.85 147.98,-387 589.15,-264.7 808.25,-173.6 219.2,91 381.5,-37 478.2,108.1 96.8,145.2 -196.4,224.9 -241.9,489.64 -45.5,264.7 56.9,632.2 418.4,657.48 315.9,22.03 329.4,-308.16 199.2,-377.07 -106.7,-68.4 -250.4,-3.67 -208,88.97 46.4,82.57 125.5,0.6 125.5,0.6 0,0 -71,24.42 -81.9,-15.63 z"/>
    </clipPath>
    <linearGradient id="linearGradient590" spreadMethod="pad" gradientTransform="matrix(614.006,-2423.97,-2423.97,-614.006,9841.28,3104.5)" gradientUnits="userSpaceOnUse" y2="0" x2="1" y1="0" x1="0">
      <stop id="stop586" offset="0" style="stop-opacity:1;stop-color:#bccf00"/>
      <stop id="stop588" offset="1" style="stop-opacity:1;stop-color:#9aab00"/>
    </linearGradient>
    <clipPath id="clipPath600" clipPathUnits="userSpaceOnUse">
      <path id="path598" d="m 10662.8,746.801 -56.7,-14.102 -0.5,-0.097 C 10428.5,692.402 10242.8,682 10082.7,682 c -409.84,0 -1038.8,74 -1055.88,179.301 -17.08,105.398 -10.59,693.399 267.52,1147.079 239.08,389.88 219.19,486.7 219.19,486.7 l 103.14,52.86 c 0,0 -210.48,-521.38 -127.31,-923.84 78.22,-378.6 203.48,-668.901 886.54,-691.6 683.1,-22.801 286.9,-185.699 286.9,-185.699 z"/>
    </clipPath>
    <linearGradient id="linearGradient608" spreadMethod="pad" gradientTransform="matrix(680.593,-1618.5,-1618.5,-680.593,9319.39,2238.26)" gradientUnits="userSpaceOnUse" y2="0" x2="1" y1="0" x1="0">
      <stop id="stop602" offset="0" style="stop-opacity:1;stop-color:#ffed00"/>
      <stop id="stop604" offset="0.6817" style="stop-opacity:1;stop-color:#ffed00"/>
      <stop id="stop606" offset="1" style="stop-opacity:1;stop-color:#f6a000"/>
    </linearGradient>
    <clipPath id="clipPath618" clipPathUnits="userSpaceOnUse">
      <path id="path616" d="m 9392.53,2623.85 c -30.57,-113.74 -209.54,-167.36 -333.78,-191.18 -105.28,34.58 -111.68,88.03 -111.68,88.03 0,0 220.47,-5.72 445.46,103.15 z"/>
    </clipPath>
    <linearGradient id="linearGradient624" spreadMethod="pad" gradientTransform="matrix(-31.302,128.053,128.053,31.302,9201.97,2440.48)" gradientUnits="userSpaceOnUse" y2="0" x2="1" y1="0" x1="0">
      <stop id="stop620" offset="0" style="stop-opacity:1;stop-color:#bccf00"/>
      <stop id="stop622" offset="1" style="stop-opacity:1;stop-color:#9aab00"/>
    </linearGradient>
    <clipPath id="clipPath634" clipPathUnits="userSpaceOnUse">
      <path id="path632" d="m 8705.16,2715.64 c -5.89,-10.02 -2.55,-22.92 7.48,-28.82 10.02,-5.89 22.92,-2.55 28.81,7.47 5.9,10.02 2.55,22.93 -7.47,28.82 -10.02,5.9 -22.92,2.55 -28.82,-7.47 z"/>
    </clipPath>
    <linearGradient id="linearGradient640" spreadMethod="pad" gradientTransform="matrix(23.2232,-26.9689,-26.9689,-23.2232,8710.39,2719.97)" gradientUnits="userSpaceOnUse" y2="0" x2="1" y1="0" x1="0">
      <stop id="stop636" offset="0" style="stop-opacity:1;stop-color:#8a9600"/>
      <stop id="stop638" offset="1" style="stop-opacity:1;stop-color:#193800"/>
    </linearGradient>
    <clipPath id="clipPath650" clipPathUnits="userSpaceOnUse">
      <path id="path648" d="m 9839.96,3120.03 c -0.34,-3.07 -0.68,-6.23 -1.11,-9.3 -6.4,-49.78 -20.23,-95.21 -38.25,-133.89 -1.28,-2.73 -2.56,-5.38 -3.84,-7.94 -18.87,-38.17 -41.84,-69.34 -65.67,-90.94 -2.47,-2.3 -4.95,-4.44 -7.43,-6.4 -15.79,-13.07 -31.85,-21.86 -47.21,-25.7 -102.47,-25.62 -85.39,98.19 -85.39,98.19 0,0 18.95,10.25 42.52,33.9 2.14,2.22 4.36,4.53 6.58,6.92 14.17,15.28 29.37,35.26 42.86,60.62 1.37,2.65 2.82,5.38 4.1,8.2 12.12,24.68 22.37,53.96 28.43,88.46 0.52,3.07 1.03,6.06 1.45,9.14 2.74,18.44 4.27,38.25 4.27,59.6 0,5.12 -0.08,10.24 -0.17,15.28 0,3.33 -0.08,6.66 -0.25,9.91 -0.52,19.46 -1.8,37.91 -3.67,55.41 -0.26,2.91 -0.52,5.72 -0.94,8.46 -2.48,22.03 -5.98,42.52 -10.25,61.47 -0.51,2.82 -1.2,5.64 -1.88,8.46 -5.63,23.82 -12.38,45.25 -19.89,64.47 -1.03,2.64 -2.05,5.2 -3.08,7.77 -21.86,53.19 -49.01,88.46 -70.87,110.32 0,0 65.83,10.76 136.02,-83.6 1.62,-2.22 3.25,-4.44 4.95,-6.74 12.21,-17.34 24.6,-38 36.81,-62.59 1.28,-2.65 2.64,-5.47 3.92,-8.29 2.82,-5.8 5.55,-11.86 8.29,-18.1 10.24,-23.39 18.44,-46.7 24.76,-69.67 0.77,-2.74 1.45,-5.38 2.13,-8.03 7.95,-30.74 12.64,-60.88 14.6,-90.25 0.26,-2.91 0.35,-5.72 0.52,-8.54 v -0.09 c 1.28,-26.3 0.42,-51.91 -2.31,-76.51 z"/>
    </clipPath>
    <linearGradient id="linearGradient658" spreadMethod="pad" gradientTransform="matrix(-42.6933,-730.056,-730.056,42.6933,9738.74,3563.72)" gradientUnits="userSpaceOnUse" y2="0" x2="1" y1="0" x1="0">
      <stop id="stop652" offset="0" style="stop-opacity:1;stop-color:#ffed00"/>
      <stop id="stop654" offset="0.6817" style="stop-opacity:1;stop-color:#ffed00"/>
      <stop id="stop656" offset="1" style="stop-opacity:1;stop-color:#f6a000"/>
    </linearGradient>
    <clipPath id="clipPath670" clipPathUnits="userSpaceOnUse">
      <path id="path668" d="m 9779.25,1517.8 c 0,0 70.1,80.7 172.57,32.3 102.48,-48.4 96.78,-264.7 28.46,-463.9 -60,-175.001 -150.85,-412.7 -429.78,-481.098 L 9584.65,682 9513.5,630.801 v 87 l -75.47,-58.602 c 0,0 1.47,119.602 75.47,259 74,139.501 221.27,264.701 221.27,361.501 z"/>
    </clipPath>
    <linearGradient id="linearGradient676" spreadMethod="pad" gradientTransform="matrix(-326.022,-1052.31,-1052.31,326.022,9927.09,1603.3)" gradientUnits="userSpaceOnUse" y2="0" x2="1" y1="0" x1="0">
      <stop id="stop672" offset="0" style="stop-opacity:1;stop-color:#bccf00"/>
      <stop id="stop674" offset="1" style="stop-opacity:1;stop-color:#9aab00"/>
    </linearGradient>
    <clipPath id="clipPath686" clipPathUnits="userSpaceOnUse">
      <path id="path684" d="m 9049.95,1304.8 c 0,0 -265.09,-255.6 -225.24,-440.601 39.84,-185 296.01,-301.699 392.78,-279 l -22.77,59.801 65.46,-25.602 -14.23,85.403 62.62,-45.602 c 0,0 -10.85,230.5 -287.2,318.801 0,0 20.12,276.9 28.58,326.8 z"/>
    </clipPath>
    <linearGradient id="linearGradient692" spreadMethod="pad" gradientTransform="matrix(487.942,0,0,-487.942,8820.63,943.6)" gradientUnits="userSpaceOnUse" y2="0" x2="1" y1="0" x1="0">
      <stop id="stop688" offset="0" style="stop-opacity:1;stop-color:#bccf00"/>
      <stop id="stop690" offset="1" style="stop-opacity:1;stop-color:#9aab00"/>
    </linearGradient>
    <clipPath id="clipPath702" clipPathUnits="userSpaceOnUse">
      <path id="path700" d="m 10757.3,978 c 153.7,-54.098 109.3,-217.5 -22.8,-313.098 -133.7,-96.8 -472.4,-116.703 -472.4,-116.703 l 45.5,56.903 -105.3,-22.7 51.2,56.899 c -28.4,0 -99.6,0 -99.6,0 91.1,145.199 250.5,148 250.5,148 -176.5,256.199 11.4,498.099 170.7,554.999 159.4,57 239.1,-82.5 239.1,-82.5 z"/>
    </clipPath>
    <linearGradient id="linearGradient708" spreadMethod="pad" gradientTransform="matrix(691.72,-111.47,-111.47,-691.72,10209.5,993)" gradientUnits="userSpaceOnUse" y2="0" x2="1" y1="0" x1="0">
      <stop id="stop704" offset="0" style="stop-opacity:1;stop-color:#bccf00"/>
      <stop id="stop706" offset="1" style="stop-opacity:1;stop-color:#9aab00"/>
    </linearGradient>
  </defs>
  <g id="g16" transform="matrix(0.133333, 0, 0, -0.133333, 0, 1600)">
    <g clip-path="url(#clipPath22)" id="g18">
      <path id="path32" style="fill:url(#linearGradient30);fill-opacity:1;fill-rule:nonzero;stroke:none" d="m 9452.64,2845.69 c -34.66,8.62 -73.17,44.05 -103.23,97.17 -1.45,2.47 -2.9,5.03 -4.18,7.6 -14.35,26.64 -26.56,57.38 -35.18,91.19 -0.68,2.65 -1.37,5.38 -1.97,8.11 -7.25,30.74 -11.61,63.96 -11.86,98.71 -0.09,2.9 -0.09,5.89 0,8.79 0.25,31.08 3.67,63.36 11.1,96.32 0.59,3.07 1.36,6.23 2.13,9.39 5.21,21.52 12.13,43.29 21.01,65.15 1.11,2.91 2.3,5.81 3.67,8.71 0.59,1.63 1.28,3.33 2.05,4.96 10.33,23.56 20.92,43.89 31.59,61.39 1.54,2.56 3.07,5.04 4.61,7.43 17.93,28.18 35.95,48.5 52.77,63.1 2.31,2.05 4.61,3.93 6.83,5.72 46.62,37.06 82.91,31.08 82.91,31.08 -19.04,-19.04 -42.18,-48.67 -61.82,-92.56 -1.36,-3.07 -2.73,-6.23 -4.1,-9.56 -6.4,-15.29 -12.38,-32.28 -17.59,-50.98 -0.68,-2.56 -1.45,-5.21 -2.13,-7.85 -4.87,-18.79 -9.05,-39.37 -12.21,-61.74 -0.34,-2.73 -0.77,-5.46 -1.11,-8.2 -2.65,-20.92 -4.44,-43.46 -5.12,-67.62 -0.09,-2.65 -0.18,-5.38 -0.18,-8.12 -0.08,-4.86 -0.17,-9.81 -0.17,-14.77 0,-15.45 0.86,-30.14 2.48,-43.97 0.26,-2.73 0.6,-5.47 0.94,-8.11 3.16,-22.63 8.2,-43.04 14.51,-61.4 0.86,-2.64 1.8,-5.29 2.74,-7.85 8.79,-23.48 19.64,-43.38 30.91,-59.94 1.53,-2.31 2.99,-4.44 4.61,-6.58 32.19,-44.74 66.34,-63.19 66.34,-63.19 0,0 16.06,-116.55 -80.35,-92.38"/>
    </g>
  </g>
  <g id="g34" transform="matrix(0.133333, 0, 0, -0.133333, 0, 1600)">
    <g clip-path="url(#clipPath40)" id="g36">
      <path id="path48" style="fill:url(#linearGradient46);fill-opacity:1;fill-rule:nonzero;stroke:none" d="m 9741.9,2857.87 c 0,0 59.07,12.89 124.53,-52.57 0,0 -39.85,-54.08 -105.31,-54.08 0,0 -29.34,64.82 -19.22,106.65"/>
    </g>
  </g>
  <g id="g50" transform="matrix(0.133333, 0, 0, -0.133333, 0, 1600)">
    <g clip-path="url(#clipPath56)" id="g52">
      <path id="path64" style="fill:url(#linearGradient62);fill-opacity:1;fill-rule:nonzero;stroke:none" d="m 9756.26,2704.97 c 0,0 78.86,-2.14 110.17,-61.91 0,0 -73.75,-49.81 -132.23,-19.21 l 22.06,81.12"/>
    </g>
  </g>
  <g id="g66" transform="matrix(0.133333, 0, 0, -0.133333, 0, 1600)">
    <g clip-path="url(#clipPath72)" id="g68">
      <path id="path80" style="fill:url(#linearGradient78);fill-opacity:1;fill-rule:nonzero;stroke:none" d="m 9724.21,2600.78 c 0,0 78.89,-45.95 78.89,-142.73 0,0 -83.12,10.11 -126.59,10.11 -43.47,0 47.7,132.62 47.7,132.62"/>
    </g>
  </g>
  <g id="g82" transform="matrix(0.133333, 0, 0, -0.133333, 0, 1600)">
    <g clip-path="url(#clipPath88)" id="g84">
      <path id="path96" style="fill:url(#linearGradient94);fill-opacity:1;fill-rule:nonzero;stroke:none" d="m 9664.76,2434.55 102.05,-93.19 -139.41,-22.79 c 0,0 -14.27,84.08 37.36,115.98"/>
    </g>
  </g>
  <g id="g98" transform="matrix(0.133333, 0, 0, -0.133333, 0, 1600)">
    <g clip-path="url(#clipPath104)" id="g100">
      <path id="path112" style="fill:url(#linearGradient110);fill-opacity:1;fill-rule:nonzero;stroke:none" d="m 9618.44,2287.38 c 0,0 70.35,-28.56 97.97,-99.72 0,0 -101.07,-21.61 -122.68,0 -21.62,21.61 -1.28,99.72 24.71,99.72"/>
    </g>
  </g>
  <g id="g114" transform="matrix(0.133333, 0, 0, -0.133333, 0, 1600)">
    <g clip-path="url(#clipPath120)" id="g116">
      <path id="path128" style="fill:url(#linearGradient126);fill-opacity:1;fill-rule:nonzero;stroke:none" d="m 9588.44,2161.78 c 0,0 101.88,-49.19 117.89,-92.95 l -133.97,-15.05 c 0,0 0.95,92.87 16.08,108"/>
    </g>
  </g>
  <g id="g130" transform="matrix(0.133333, 0, 0, -0.133333, 0, 1600)">
    <g clip-path="url(#clipPath136)" id="g132">
      <path id="path144" style="fill:url(#linearGradient142);fill-opacity:1;fill-rule:nonzero;stroke:none" d="m 9569.4,2017.48 c 0,0 103.84,-19.08 131.59,-35.08 0,0 -110.02,-84.4 -130.79,-84.4 0,0 -33.13,68.1 -0.8,119.48"/>
    </g>
  </g>
  <g id="g146" transform="matrix(0.133333, 0, 0, -0.133333, 0, 1600)">
    <g clip-path="url(#clipPath152)" id="g148">
      <path id="path160" style="fill:url(#linearGradient158);fill-opacity:1;fill-rule:nonzero;stroke:none" d="m 9573.89,1863.7 132.44,9.7 -109.2,-114.5 c 0,0 -48.42,57.6 -23.24,104.8"/>
    </g>
  </g>
  <g id="g162" transform="matrix(0.133333, 0, 0, -0.133333, 0, 1600)">
    <g clip-path="url(#clipPath168)" id="g164">
      <path id="path176" style="fill:url(#linearGradient174);fill-opacity:1;fill-rule:nonzero;stroke:none" d="m 9603.74,1739.4 126.07,19.5 -70.91,-129.1 c 0,0 -81.98,66.1 -55.16,109.6"/>
    </g>
  </g>
  <g id="g178" transform="matrix(0.133333, 0, 0, -0.133333, 0, 1600)">
    <g clip-path="url(#clipPath184)" id="g180">
      <path id="path192" style="fill:url(#linearGradient190);fill-opacity:1;fill-rule:nonzero;stroke:none" d="m 9680.16,1601.6 113.69,53.2 -27.04,-129.5 c 0,0 -108.56,26.3 -86.65,76.3"/>
    </g>
  </g>
  <g id="g194" transform="matrix(0.133333, 0, 0, -0.133333, 0, 1600)">
    <g clip-path="url(#clipPath200)" id="g196">
      <path id="path208" style="fill:url(#linearGradient206);fill-opacity:1;fill-rule:nonzero;stroke:none" d="m 9998.1,1506.8 47.6,58.8 37.5,-99.1 -79.1,-24.2 -6,64.5"/>
    </g>
  </g>
  <g id="g210" transform="matrix(0.133333, 0, 0, -0.133333, 0, 1600)">
    <g clip-path="url(#clipPath216)" id="g212">
      <path id="path224" style="fill:url(#linearGradient222);fill-opacity:1;fill-rule:nonzero;stroke:none" d="m 10137.6,1473.7 23.4,108.4 74.7,-87.5 c 0,0 -65.1,-53.9 -98.1,-20.9"/>
    </g>
  </g>
  <g id="g226" transform="matrix(0.133333, 0, 0, -0.133333, 0, 1600)">
    <g clip-path="url(#clipPath232)" id="g228">
      <path id="path240" style="fill:url(#linearGradient238);fill-opacity:1;fill-rule:nonzero;stroke:none" d="m 10279.6,1507 28.7,122.8 92,-80.3 c 0,0 -83.2,-65.4 -120.7,-42.5"/>
    </g>
  </g>
  <g id="g242" transform="matrix(0.133333, 0, 0, -0.133333, 0, 1600)">
    <g clip-path="url(#clipPath248)" id="g244">
      <path id="path256" style="fill:url(#linearGradient254);fill-opacity:1;fill-rule:nonzero;stroke:none" d="m 10434.8,1563.2 39,131.1 97.1,-103.5 c 0,0 -101.4,-52.9 -136.1,-27.6"/>
    </g>
  </g>
  <g id="g258" transform="matrix(0.133333, 0, 0, -0.133333, 0, 1600)">
    <g clip-path="url(#clipPath264)" id="g260">
      <path id="path272" style="fill:url(#linearGradient270);fill-opacity:1;fill-rule:nonzero;stroke:none" d="m 10606.1,1592 22.4,102.3 83.3,-105 c 0,0 -82.2,-34.4 -105.7,2.7"/>
    </g>
  </g>
  <g id="g274" transform="matrix(0.133333, 0, 0, -0.133333, 0, 1600)">
    <g clip-path="url(#clipPath280)" id="g276">
      <path id="path288" style="fill:url(#linearGradient286);fill-opacity:1;fill-rule:nonzero;stroke:none" d="m 10785.7,1593.1 -44,93.6 143.1,-35.3 c 0,0 -2.7,-101.7 -99.1,-58.3"/>
    </g>
  </g>
  <g id="g290" transform="matrix(0.133333, 0, 0, -0.133333, 0, 1600)">
    <g clip-path="url(#clipPath296)" id="g292">
      <path id="path304" style="fill:url(#linearGradient302);fill-opacity:1;fill-rule:nonzero;stroke:none" d="m 10884.8,1795.8 -98.3,-48.2 119.7,-60.9 27.6,59.8 -49,49.3"/>
    </g>
  </g>
  <g id="g306" transform="matrix(0.133333, 0, 0, -0.133333, 0, 1600)">
    <g clip-path="url(#clipPath312)" id="g308">
      <path id="path320" style="fill:url(#linearGradient318);fill-opacity:1;fill-rule:nonzero;stroke:none" d="m 10786.5,1906.7 -44.8,-69.5 107.7,1.8 c 0,0 -7.4,61.4 -62.9,67.7"/>
    </g>
  </g>
  <g id="g322" transform="matrix(0.133333, 0, 0, -0.133333, 0, 1600)">
    <g clip-path="url(#clipPath328)" id="g324">
      <path id="path336" style="fill:url(#linearGradient334);fill-opacity:1;fill-rule:nonzero;stroke:none" d="m 10708.4,2007.5 -36.1,-77.4 h 93.5 c 0,0 -11.6,62 -57.4,77.4"/>
    </g>
  </g>
  <g id="g338" transform="matrix(0.133333, 0, 0, -0.133333, 0, 1600)">
    <g clip-path="url(#clipPath344)" id="g340">
      <path id="path352" style="fill:url(#linearGradient350);fill-opacity:1;fill-rule:nonzero;stroke:none" d="m 10658.3,2124 -58.6,-70.22 91.6,-16.05 c 0,0 11.7,51.79 -33,86.27"/>
    </g>
  </g>
  <g id="g354" transform="matrix(0.133333, 0, 0, -0.133333, 0, 1600)">
    <g clip-path="url(#clipPath360)" id="g356">
      <path id="path368" style="fill:url(#linearGradient366);fill-opacity:1;fill-rule:nonzero;stroke:none" d="m 10642.2,2252.44 -94.8,-28.84 102.5,-56.74 c 0,0 17.7,40.78 -7.7,85.58"/>
    </g>
  </g>
  <g id="g370" transform="matrix(0.133333, 0, 0, -0.133333, 0, 1600)">
    <g clip-path="url(#clipPath376)" id="g372">
      <path id="path384" style="fill:url(#linearGradient382);fill-opacity:1;fill-rule:nonzero;stroke:none" d="m 10642.7,2310.02 -76.1,52.33 89.3,35.99 c 0,0 33,-74.48 -13.2,-88.32"/>
    </g>
  </g>
  <g id="g386" transform="matrix(0.133333, 0, 0, -0.133333, 0, 1600)">
    <g clip-path="url(#clipPath392)" id="g388">
      <path id="path400" style="fill:url(#linearGradient398);fill-opacity:1;fill-rule:nonzero;stroke:none" d="m 10661.1,2441.19 -59.5,68.45 84,10.67 c 0,0 24.2,-84.6 -24.5,-79.12"/>
    </g>
  </g>
  <g id="g402" transform="matrix(0.133333, 0, 0, -0.133333, 0, 1600)">
    <g clip-path="url(#clipPath408)" id="g404">
      <path id="path416" style="fill:url(#linearGradient414);fill-opacity:1;fill-rule:nonzero;stroke:none" d="m 10714.7,2583.84 -22.1,75.6 62.4,-13.06 c 0,0 -7.4,-62.54 -40.3,-62.54"/>
    </g>
  </g>
  <g id="g418" transform="matrix(0.133333, 0, 0, -0.133333, 0, 1600)">
    <g clip-path="url(#clipPath424)" id="g420">
      <path id="path432" style="fill:url(#linearGradient430);fill-opacity:1;fill-rule:nonzero;stroke:none" d="m 10787.1,2683.91 22.9,87.23 45.5,-29.91 c 0,0 -40.1,-57.32 -68.4,-57.32"/>
    </g>
  </g>
  <g id="g434" transform="matrix(0.133333, 0, 0, -0.133333, 0, 1600)">
    <g clip-path="url(#clipPath440)" id="g436">
      <path id="path448" style="fill:url(#linearGradient446);fill-opacity:1;fill-rule:nonzero;stroke:none" d="m 10909.1,2771.14 26.8,71.23 40.4,-46.93 c 0,0 -34.3,-37.11 -67.2,-24.3"/>
    </g>
  </g>
  <g id="g450" transform="matrix(0.133333, 0, 0, -0.133333, 0, 1600)">
    <g clip-path="url(#clipPath456)" id="g452">
      <path id="path464" style="fill:url(#linearGradient462);fill-opacity:1;fill-rule:nonzero;stroke:none" d="m 11032.1,2806.86 53.2,52.04 23.5,-47 c 0,0 -59.3,-22.44 -76.7,-5.04"/>
    </g>
  </g>
  <g id="g466" transform="matrix(0.133333, 0, 0, -0.133333, 0, 1600)">
    <g clip-path="url(#clipPath472)" id="g468">
      <path id="path480" style="fill:url(#linearGradient478);fill-opacity:1;fill-rule:nonzero;stroke:none" d="m 11168.3,2805.41 62.2,24.16 10.3,-51 c 0,0 -72.5,1.34 -72.5,26.84"/>
    </g>
  </g>
  <g id="g482" transform="matrix(0.133333, 0, 0, -0.133333, 0, 1600)">
    <g clip-path="url(#clipPath488)" id="g484">
      <path id="path496" style="fill:url(#linearGradient494);fill-opacity:1;fill-rule:nonzero;stroke:none" d="m 11278.5,2751.22 68.6,-14.23 -23.7,-45.33 c 0,0 -44.9,18.29 -44.9,59.56"/>
    </g>
  </g>
  <g id="g498" transform="matrix(0.133333, 0, 0, -0.133333, 0, 1600)">
    <g clip-path="url(#clipPath504)" id="g500">
      <path id="path512" style="fill:url(#linearGradient510);fill-opacity:1;fill-rule:nonzero;stroke:none" d="m 11344.6,2623.85 43.9,-40.01 -45.1,-35.92 c 0,0 -17.1,41.77 1.2,75.93"/>
    </g>
  </g>
  <g id="g514" transform="matrix(0.133333, 0, 0, -0.133333, 0, 1600)">
    <g clip-path="url(#clipPath520)" id="g516">
      <path id="path528" style="fill:url(#linearGradient526);fill-opacity:1;fill-rule:nonzero;stroke:none" d="m 11318.1,2480.82 v -65.53 l -48.5,18.63 c 0,0 20.9,46.9 48.5,46.9"/>
    </g>
  </g>
  <g id="g530" transform="matrix(0.133333, 0, 0, -0.133333, 0, 1600)">
    <g clip-path="url(#clipPath536)" id="g532">
      <path id="path544" style="fill:url(#linearGradient542);fill-opacity:1;fill-rule:nonzero;stroke:none" d="m 11189.7,2406.33 -38.2,-39.35 -21.7,44.11 c 0,0 41.5,13.62 59.9,-4.76"/>
    </g>
  </g>
  <g id="g546" transform="matrix(0.133333, 0, 0, -0.133333, 0, 1600)">
    <g clip-path="url(#clipPath552)" id="g548">
      <path id="path560" style="fill:url(#linearGradient558);fill-opacity:1;fill-rule:nonzero;stroke:none" d="m 11082.5,2434.55 -50.4,6.39 22.6,39.88 c 0,0 27.8,-26.37 27.8,-46.27"/>
    </g>
  </g>
  <g id="g562" transform="matrix(0.133333, 0, 0, -0.133333, 0, 1600)">
    <g clip-path="url(#clipPath568)" id="g564">
      <path id="path576" style="fill:url(#linearGradient574);fill-opacity:1;fill-rule:nonzero;stroke:none" d="m 11061.6,2522.88 -19,49.2 58.6,-14.14 c 0,0 -7.8,-50.64 -39.6,-35.06"/>
    </g>
  </g>
  <g id="g578" transform="matrix(0.133333, 0, 0, -0.133333, 0, 1600)">
    <g clip-path="url(#clipPath584)" id="g580">
      <path id="path592" style="fill:url(#linearGradient590);fill-opacity:1;fill-rule:nonzero;stroke:none" d="m 11105.2,2507.89 c -11,-40.56 88.8,-84.79 139.2,1.8 48.7,83.68 -5.9,196.9 -179.6,196.9 -167.7,0 -387.2,-265.64 -216.4,-544.52 170.8,-278.97 563.5,-489.57 392.8,-950.67 -96.9,-261.498 -324.6,-396.701 -578.4,-464.599 -18.7,-5.102 -37.7,-9.801 -56.7,-14.102 l -0.5,-0.097 C 10428.5,692.402 10242.8,682 10082.7,682 c -409.84,0 -1038.8,74 -1055.88,179.301 -17.08,105.398 -10.59,693.399 267.52,1147.079 239.08,389.88 219.19,486.7 219.19,486.7 0,0 -239.09,-108.18 -398.51,-76.84 -21.34,4.18 -39.96,9.05 -56.27,14.43 -105.28,34.58 -111.68,88.03 -111.68,88.03 l -236.18,8.54 c 0,0 -119.97,179.83 -25.62,224.82 65.41,31.26 96.74,-19.89 96.74,-19.89 0,0 498.15,113.82 707.35,224.82 209.12,111.01 260.35,-79.66 271.79,-207.74 11.36,-128.08 -301.76,-634.77 -153.7,-1021.85 147.98,-387 589.15,-264.7 808.25,-173.6 219.2,91 381.5,-37 478.2,108.1 96.8,145.2 -196.4,224.9 -241.9,489.64 -45.5,264.7 56.9,632.2 418.4,657.48 315.9,22.03 329.4,-308.16 199.2,-377.07 -106.7,-68.4 -250.4,-3.67 -208,88.97 46.4,82.57 125.5,0.6 125.5,0.6 0,0 -71,24.42 -81.9,-15.63"/>
    </g>
  </g>
  <g id="g594" transform="matrix(0.133333, 0, 0, -0.133333, 0, 1600)">
    <g clip-path="url(#clipPath600)" id="g596">
      <path id="path610" style="fill:url(#linearGradient608);fill-opacity:1;fill-rule:nonzero;stroke:none" d="m 10662.8,746.801 -56.7,-14.102 -0.5,-0.097 C 10428.5,692.402 10242.8,682 10082.7,682 c -409.84,0 -1038.8,74 -1055.88,179.301 -17.08,105.398 -10.59,693.399 267.52,1147.079 239.08,389.88 219.19,486.7 219.19,486.7 l 103.14,52.86 c 0,0 -210.48,-521.38 -127.31,-923.84 78.22,-378.6 203.48,-668.901 886.54,-691.6 683.1,-22.801 286.9,-185.699 286.9,-185.699"/>
    </g>
  </g>
  <g id="g612" transform="matrix(0.133333, 0, 0, -0.133333, 0, 1600)">
    <g clip-path="url(#clipPath618)" id="g614">
      <path id="path626" style="fill:url(#linearGradient624);fill-opacity:1;fill-rule:nonzero;stroke:none" d="m 9392.53,2623.85 c -30.57,-113.74 -209.54,-167.36 -333.78,-191.18 -105.28,34.58 -111.68,88.03 -111.68,88.03 0,0 220.47,-5.72 445.46,103.15"/>
    </g>
  </g>
  <g id="g628" transform="matrix(0.133333, 0, 0, -0.133333, 0, 1600)">
    <g clip-path="url(#clipPath634)" id="g630">
      <path id="path642" style="fill:url(#linearGradient640);fill-opacity:1;fill-rule:nonzero;stroke:none" d="m 8705.16,2715.64 c -5.89,-10.02 -2.55,-22.92 7.48,-28.82 10.02,-5.89 22.92,-2.55 28.81,7.47 5.9,10.02 2.55,22.93 -7.47,28.82 -10.02,5.9 -22.92,2.55 -28.82,-7.47"/>
    </g>
  </g>
  <g id="g644" transform="matrix(0.133333, 0, 0, -0.133333, 0, 1600)">
    <g clip-path="url(#clipPath650)" id="g646">
      <path id="path660" style="fill:url(#linearGradient658);fill-opacity:1;fill-rule:nonzero;stroke:none" d="m 9839.96,3120.03 c -0.34,-3.07 -0.68,-6.23 -1.11,-9.3 -6.4,-49.78 -20.23,-95.21 -38.25,-133.89 -1.28,-2.73 -2.56,-5.38 -3.84,-7.94 -18.87,-38.17 -41.84,-69.34 -65.67,-90.94 -2.47,-2.3 -4.95,-4.44 -7.43,-6.4 -15.79,-13.07 -31.85,-21.86 -47.21,-25.7 -102.47,-25.62 -85.39,98.19 -85.39,98.19 0,0 18.95,10.25 42.52,33.9 2.14,2.22 4.36,4.53 6.58,6.92 14.17,15.28 29.37,35.26 42.86,60.62 1.37,2.65 2.82,5.38 4.1,8.2 12.12,24.68 22.37,53.96 28.43,88.46 0.52,3.07 1.03,6.06 1.45,9.14 2.74,18.44 4.27,38.25 4.27,59.6 0,5.12 -0.08,10.24 -0.17,15.28 0,3.33 -0.08,6.66 -0.25,9.91 -0.52,19.46 -1.8,37.91 -3.67,55.41 -0.26,2.91 -0.52,5.72 -0.94,8.46 -2.48,22.03 -5.98,42.52 -10.25,61.47 -0.51,2.82 -1.2,5.64 -1.88,8.46 -5.63,23.82 -12.38,45.25 -19.89,64.47 -1.03,2.64 -2.05,5.2 -3.08,7.77 -21.86,53.19 -49.01,88.46 -70.87,110.32 0,0 65.83,10.76 136.02,-83.6 1.62,-2.22 3.25,-4.44 4.95,-6.74 12.21,-17.34 24.6,-38 36.81,-62.59 1.28,-2.65 2.64,-5.47 3.92,-8.29 2.82,-5.8 5.55,-11.86 8.29,-18.1 10.24,-23.39 18.44,-46.7 24.76,-69.67 0.77,-2.74 1.45,-5.38 2.13,-8.03 7.95,-30.74 12.64,-60.88 14.6,-90.25 0.26,-2.91 0.35,-5.72 0.52,-8.54 v -0.09 c 1.28,-26.3 0.42,-51.91 -2.31,-76.51"/>
    </g>
  </g>
  <path id="path662" style="fill:#ffffff;fill-opacity:1;fill-rule:nonzero;stroke:none" d="m 8723.31,2528.76 30.95,-47.94 34.18,45.59 29.86,-45.59 32.05,43.35 31.99,-43.35 31.96,41.04 32.79,-41.04 31.33,39.59 42.68,-39.59 23.63,43.23 36.14,-32.55 21.51,39.45 40.39,-37.32 27.04,49.67 47.68,-31.24 19.6,48.57 40.17,-26.44 18.84,46.2 49.47,-26.99 v 47.38 c 0,0 -241.22,-103.78 -622.26,-72.02" transform="matrix(0.133333, 0, 0, -0.133333, 0, 1600)"/>
  <g id="g664" transform="matrix(0.133333, 0, 0, -0.133333, 0, 1600)">
    <g clip-path="url(#clipPath670)" id="g666">
      <path id="path678" style="fill:url(#linearGradient676);fill-opacity:1;fill-rule:nonzero;stroke:none" d="m 9779.25,1517.8 c 0,0 70.1,80.7 172.57,32.3 102.48,-48.4 96.78,-264.7 28.46,-463.9 -60,-175.001 -150.85,-412.7 -429.78,-481.098 L 9584.65,682 9513.5,630.801 v 87 l -75.47,-58.602 c 0,0 1.47,119.602 75.47,259 74,139.501 221.27,264.701 221.27,361.501 l 44.48,238.1"/>
    </g>
  </g>
  <g id="g680" transform="matrix(0.133333, 0, 0, -0.133333, 0, 1600)">
    <g clip-path="url(#clipPath686)" id="g682">
      <path id="path694" style="fill:url(#linearGradient692);fill-opacity:1;fill-rule:nonzero;stroke:none" d="m 9049.95,1304.8 c 0,0 -265.09,-255.6 -225.24,-440.601 39.84,-185 296.01,-301.699 392.78,-279 l -22.77,59.801 65.46,-25.602 -14.23,85.403 62.62,-45.602 c 0,0 -10.85,230.5 -287.2,318.801 0,0 20.12,276.9 28.58,326.8"/>
    </g>
  </g>
  <g id="g696" transform="matrix(0.133333, 0, 0, -0.133333, 0, 1600)">
    <g clip-path="url(#clipPath702)" id="g698">
      <path id="path710" style="fill:url(#linearGradient708);fill-opacity:1;fill-rule:nonzero;stroke:none" d="m 10757.3,978 c 153.7,-54.098 109.3,-217.5 -22.8,-313.098 -133.7,-96.8 -472.4,-116.703 -472.4,-116.703 l 45.5,56.903 -105.3,-22.7 51.2,56.899 c -28.4,0 -99.6,0 -99.6,0 91.1,145.199 250.5,148 250.5,148 -176.5,256.199 11.4,498.099 170.7,554.999 159.4,57 239.1,-82.5 239.1,-82.5 L 10757.3,978"/>
    </g>
  </g>
  <path id="path712" style="fill:#f6a000;fill-opacity:1;fill-rule:nonzero;stroke:none" d="m 9549.13,2377.38 c -3.12,0 -6.23,0.6 -9.11,1.85 -6.36,2.75 -12.58,7.89 -15.25,14.35 -5.69,-3.31 -12.99,-3.82 -19.04,-0.8 -8.49,4.25 -12.92,14.66 -10.08,23.72 0.66,2.1 2.93,3.27 5.04,2.63 2.12,-0.67 3.3,-2.92 2.63,-5.04 -1.63,-5.21 1.11,-11.68 6,-14.13 4.92,-2.46 11.71,-0.74 14.88,3.69 1.05,1.47 2.95,2.05 4.65,1.44 1.69,-0.62 2.77,-2.3 2.62,-4.1 -0.47,-5.9 5.55,-11.71 11.75,-14.39 5.85,-2.52 13.47,-0.89 17.74,3.85 1.49,1.63 4.03,1.76 5.68,0.29 1.65,-1.49 1.77,-4.03 0.29,-5.69 -4.48,-4.95 -11.16,-7.67 -17.8,-7.67" transform="matrix(0.133333, 0, 0, -0.133333, 0, 1600)"/>
  <path id="path714" style="fill:#f6a000;fill-opacity:1;fill-rule:nonzero;stroke:none" d="m 9535.15,2331.27 c -3.93,0 -7.86,0.8 -11.47,2.46 -6.21,2.83 -10.85,8.52 -13.14,15.83 -5.34,-3.38 -12.13,-4.53 -18.14,-2.69 -8.59,2.58 -15.12,10.96 -15.53,19.93 -0.1,2.22 1.62,4.09 3.83,4.2 2.37,0.27 4.09,-1.63 4.19,-3.84 0.25,-5.57 4.47,-10.99 9.82,-12.6 5.33,-1.59 11.85,0.57 15.14,5.11 0.98,1.35 2.68,1.97 4.32,1.5 1.61,-0.45 2.78,-1.85 2.92,-3.52 0.7,-7.88 4.42,-14.09 9.93,-16.62 6.28,-2.86 14.26,-2.06 19.84,1.97 1.8,1.29 4.32,0.89 5.61,-0.89 1.3,-1.81 0.9,-4.32 -0.9,-5.62 -4.77,-3.44 -10.6,-5.22 -16.42,-5.22" transform="matrix(0.133333, 0, 0, -0.133333, 0, 1600)"/>
  <path id="path716" style="fill:#f6a000;fill-opacity:1;fill-rule:nonzero;stroke:none" d="m 9514.79,2272.25 c -3.17,0 -6.35,0.47 -9.4,1.43 -8.25,2.62 -12.92,10.13 -15.8,17.22 -6.23,-4.23 -14.37,-5.52 -21.58,-3.1 -9.32,3.17 -16.05,12.25 -16.38,22.08 -0.08,2.23 1.67,4.08 3.88,4.15 1.94,0.15 4.08,-1.66 4.15,-3.87 0.21,-6.47 4.81,-12.67 10.94,-14.76 6.13,-2.06 13.55,0.06 17.65,5.05 0.93,1.14 2.37,1.66 3.88,1.39 1.44,-0.28 2.62,-1.33 3.06,-2.74 2.06,-6.55 5.61,-15.53 12.63,-17.75 7.25,-2.31 15.48,-0.84 21.5,3.75 1.75,1.35 4.28,1.01 5.63,-0.76 1.34,-1.77 1,-4.29 -0.76,-5.64 -5.53,-4.21 -12.46,-6.45 -19.4,-6.45" transform="matrix(0.133333, 0, 0, -0.133333, 0, 1600)"/>
  <path id="path718" style="fill:#f6a000;fill-opacity:1;fill-rule:nonzero;stroke:none" d="m 9510.7,2189.52 -0.95,0.11 c -7.25,1.78 -13.2,7.4 -15.84,14.34 -6.69,-4.62 -15.56,-6.22 -23.29,-3.71 -8.08,2.57 -14.77,9.7 -17.47,17.9 -6.96,-3.68 -15.78,-3.55 -22.51,0.87 -8.6,5.68 -12.14,17.94 -7.88,27.33 0.93,2.03 3.27,2.9 5.33,2 2.02,-0.92 2.9,-3.3 2,-5.31 -2.67,-5.86 -0.38,-13.78 4.97,-17.31 5.36,-3.55 13.54,-2.49 17.86,2.24 1.09,1.23 2.81,1.62 4.35,1.07 1.55,-0.56 2.58,-2 2.64,-3.64 0.25,-7.54 6.03,-15.23 13.16,-17.51 7.15,-2.28 15.62,0.41 20.17,6.37 1.03,1.38 2.85,1.91 4.48,1.38 1.63,-0.54 2.73,-2.07 2.73,-3.8 0.02,-6.55 4.94,-12.88 11.2,-14.42 2.16,-0.52 3.48,-2.7 2.95,-4.85 -0.45,-1.84 -2.09,-3.06 -3.9,-3.06" transform="matrix(0.133333, 0, 0, -0.133333, 0, 1600)"/>
  <path id="path720" style="fill:#f6a000;fill-opacity:1;fill-rule:nonzero;stroke:none" d="m 9469.46,2071.09 c -3.04,0 -6.07,0.49 -8.97,1.52 -8.35,2.97 -13.93,8.75 -16.06,16.38 -7.88,-5.32 -18.22,-7.12 -27.37,-4.24 -8.65,2.7 -15.02,9.98 -17.9,20.04 -6.94,-4.84 -16.29,-6.25 -24.23,-3.13 -14.96,5.85 -17.07,15.63 -16.22,22.82 0.27,2.2 2.36,3.77 4.47,3.52 2.2,-0.26 3.78,-2.27 3.51,-4.47 -0.48,-4.12 0.13,-10.08 11.16,-14.39 7.08,-2.78 16.15,-0.13 20.61,6.02 0.99,1.36 2.71,1.94 4.31,1.52 1.6,-0.43 2.78,-1.81 2.95,-3.47 1.07,-10.67 6.2,-18.43 13.74,-20.79 8.74,-2.75 19.03,0.22 24.97,7.23 1.11,1.29 2.89,1.76 4.5,1.15 1.59,-0.62 2.62,-2.16 2.57,-3.86 -0.21,-8.17 3.84,-13.97 11.69,-16.76 7.68,-2.75 17.27,0.06 22.28,6.55 1.35,1.78 3.89,2.07 5.64,0.73 1.76,-1.36 2.08,-3.89 0.74,-5.63 -5.29,-6.84 -13.84,-10.74 -22.39,-10.74" transform="matrix(0.133333, 0, 0, -0.133333, 0, 1600)"/>
  <path id="path722" style="fill:#f6a000;fill-opacity:1;fill-rule:nonzero;stroke:none" d="m 9479.63,1992.3 c -12.46,0 -21.5,4.4 -26.07,12.47 -7.4,-4.58 -16.9,-5.87 -25.12,-3.02 -7.79,2.64 -14.47,8.77 -17.93,16.03 -7.93,-6.71 -19.38,-9.06 -29.26,-5.42 -9.44,3.5 -16.18,12.13 -17.91,22.04 -7.21,-4.21 -16.05,-5.66 -24.17,-3.67 -10.88,2.62 -20.05,11.19 -23.39,21.85 l 7.66,2.4 c 2.52,-8.02 9.42,-14.48 17.61,-16.45 8.17,-1.95 17.27,0.63 23.16,6.62 1.23,1.24 3.06,1.54 4.6,0.82 1.55,-0.75 2.45,-2.39 2.26,-4.09 -1.08,-9.4 4.5,-18.85 12.97,-21.99 8.73,-3.2 19.61,0.26 24.82,7.97 0.91,1.35 2.53,2.04 4.2,1.67 1.6,-0.36 2.83,-1.66 3.09,-3.29 1.17,-7.26 7.43,-14.37 14.88,-16.89 7.25,-2.5 15.88,-0.6 21.45,4.66 1.01,0.97 2.46,1.31 3.81,0.97 1.35,-0.38 2.41,-1.42 2.8,-2.76 2.86,-9.82 12.74,-11.89 20.54,-11.9 v -8.02" transform="matrix(0.133333, 0, 0, -0.133333, 0, 1600)"/>
  <path id="path724" style="fill:#f6a000;fill-opacity:1;fill-rule:nonzero;stroke:none" d="m 9451.47,1909.5 c -2.37,0 -4.77,0.3 -7.21,0.8 -10.32,2.3 -19.41,9.1 -24.34,17.8 -6.87,-7 -16.49,-11 -26.43,-10.8 -10.37,0.3 -19.55,5.2 -25.81,13.7 -9.36,-6.6 -22.01,-8.6 -32.82,-4.7 -10.28,3.5 -18.11,11.9 -21.41,22.5 -8.26,-3.9 -18.19,-4.2 -26.65,-0.6 -9.08,3.9 -17.69,9.1 -19.23,21.1 l 7.95,1.1 c 0.99,-7.6 6.05,-11.2 14.44,-14.8 7.7,-3.3 17.03,-2.2 23.81,2.7 1.12,0.8 2.62,1 3.92,0.5 1.29,-0.6 2.21,-1.7 2.42,-3.1 1.52,-10.3 8.18,-18.6 17.4,-21.9 9.59,-3.3 20.98,-0.9 28.38,6 0.9,0.9 2.14,1.3 3.36,1 1.21,-0.1 2.27,-0.9 2.89,-2 4.77,-8.4 12.44,-13.2 21.57,-13.5 h 0.73 c 9.16,0 18.19,4.9 23.14,12.7 0.85,1.3 2.42,1.9 3.95,1.8 1.56,-0.3 2.84,-1.4 3.28,-2.9 2.59,-8.8 11.31,-16.5 21.22,-18.7 11.44,-2.6 19.41,3.2 24.1,8.5 l 6.01,-5.3 c -6.89,-7.8 -15.47,-11.9 -24.67,-11.9" transform="matrix(0.133333, 0, 0, -0.133333, 0, 1600)"/>
  <path id="path726" style="fill:#f6a000;fill-opacity:1;fill-rule:nonzero;stroke:none" d="m 9453.93,1800.7 c -5.22,0 -10.51,1.1 -15.34,3.4 -7.9,3.8 -14.72,11.1 -19.3,20.5 -8.73,-8.9 -21.91,-13.5 -34.19,-11.6 -12.18,1.9 -22.54,9.9 -27.95,21 -8.13,-8.2 -20.26,-12.3 -31.68,-10.1 -12.72,2.3 -21.49,13 -25.43,23.7 -5.44,-4 -10.77,-6.7 -16.18,-8.1 -9.09,-2.5 -18.19,-1.2 -25,3.5 -5.06,3.4 -8.46,8.3 -9.75,13.6 -5,-2.9 -11.02,-3.9 -16.65,-2.6 -8.84,2.1 -16.01,9.8 -17.42,18.8 l 7.93,1.2 c 0.91,-5.7 5.67,-10.8 11.33,-12.2 5.63,-1.3 12.19,1.2 15.56,6 1.12,1.6 3.24,2.1 5.03,1.2 1.76,-0.8 2.65,-2.8 2.1,-4.7 -1.49,-5.1 1.13,-11.1 6.39,-14.7 4.83,-3.3 11.7,-4.2 18.42,-2.4 5.78,1.6 11.61,4.9 17.8,10.4 1.06,0.9 2.58,1.2 3.93,0.7 1.36,-0.4 2.37,-1.6 2.65,-3 2,-10.2 9.77,-21.5 20.74,-23.5 10.59,-2 22.37,3.2 28.1,12.3 0.84,1.4 2.4,2.1 3.99,1.9 1.57,-0.3 2.87,-1.4 3.29,-3 3.14,-11.6 12.58,-20.2 24.07,-22.1 11.56,-1.8 24.24,3.8 30.69,13.6 0.84,1.3 2.35,1.9 3.84,1.8 1.53,-0.2 2.81,-1.2 3.31,-2.7 3.63,-10.4 10.14,-18.6 17.85,-22.2 8.73,-4.2 19.27,-3.5 26.29,1.8 l 4.83,-6.4 c -5.36,-4.1 -12.23,-6.1 -19.25,-6.1" transform="matrix(0.133333, 0, 0, -0.133333, 0, 1600)"/>
  <path id="path728" style="fill:#f6a000;fill-opacity:1;fill-rule:nonzero;stroke:none" d="m 9443.32,1650.8 c -1.93,0 -3.86,0.1 -5.77,0.4 -14.06,1.9 -27.11,10.4 -34.41,21.4 -3.56,-6.1 -9.9,-10.8 -17.37,-12.3 -9.98,-1.9 -21.03,1.6 -29.6,9.6 -5.01,4.6 -9.22,10.5 -12.75,18 -8.79,-11.7 -23.86,-18.5 -38.47,-16.8 -14.87,1.8 -26.13,9.4 -31.53,21.1 -8.69,-10.2 -23.61,-14.8 -36.4,-10.2 -11.84,4.2 -20.12,14.7 -21.97,26.2 -8.86,-7.4 -21.23,-10.6 -32.47,-7.8 -15.57,3.9 -22.9,22.9 -23.11,38.9 l 8.03,0.1 c 0.18,-13.4 6.09,-28.4 17.05,-31.2 11.93,-3 25.53,2.8 31.56,13.6 1,1.8 3.17,2.6 5.04,1.8 1.89,-0.8 2.89,-2.9 2.33,-4.9 -3.26,-11.5 4.18,-24.8 16.24,-29.1 11.7,-4.2 26.26,2.1 31.19,13.5 0.7,1.6 2.37,2.7 4.12,2.4 1.74,-0.2 3.17,-1.5 3.51,-3.2 2.54,-13 12.52,-21.4 27.36,-23.2 13.82,-1.8 28.67,6.6 34.5,19.3 0.68,1.5 2.05,2.5 3.8,2.3 1.63,0 3.05,-1 3.62,-2.6 3.66,-9.8 8.17,-17.1 13.81,-22.3 6.58,-6.1 15.3,-9.1 22.59,-7.6 7.89,1.5 14.14,8.6 13.94,15.7 -0.06,2 1.39,3.8 3.4,4.1 1.96,0.3 3.91,-0.9 4.47,-2.9 3.67,-12.7 17.7,-23.9 32.63,-26 14.14,-2 29.03,5.1 36.51,17.1 l 6.82,-4.3 c -8.09,-12.9 -23.41,-21.1 -38.67,-21.1" transform="matrix(0.133333, 0, 0, -0.133333, 0, 1600)"/>
  <path id="path730" style="fill:#f6a000;fill-opacity:1;fill-rule:nonzero;stroke:none" d="m 9425.66,1519 h -1.19 c -12,0.5 -22.58,8 -27.83,19.1 -7.75,-11.2 -21.35,-18.4 -35,-17.7 -14.38,0.7 -27.81,10 -34.12,22.8 -8.99,-11.2 -23.91,-17.7 -38.2,-15.8 -14.01,1.8 -26.26,11.8 -31.89,25.4 -10.44,-11.2 -26.92,-16.6 -42,-13.1 -15.1,3.6 -26.66,15.5 -30.44,30.6 -7.9,-6.1 -17.23,-12.2 -28.02,-14.1 -10.56,-1.8 -22.05,1 -30.68,7.5 -8.6,6.4 -14.48,16.6 -15.7,27.3 l 7.98,0.9 c 0.98,-8.5 5.67,-16.7 12.55,-21.8 6.88,-5.2 16.07,-7.4 24.52,-6 11.25,1.9 21.05,9.8 29.68,16.7 1.17,1 2.74,1.2 4.1,0.6 1.36,-0.6 2.29,-1.9 2.42,-3.4 1.23,-14.9 11.46,-27.1 25.45,-30.4 14.27,-3.4 30.63,3.4 38.23,15.9 0.87,1.4 2.45,2.1 4.12,1.8 1.62,-0.3 2.9,-1.5 3.24,-3.1 2.94,-14.1 14.23,-25.1 27.46,-26.8 13.79,-1.7 28.42,6 34.6,18.6 0.74,1.5 2.39,2.4 4.07,2.2 1.69,-0.2 3.07,-1.4 3.44,-3.1 3.01,-13.2 16.01,-24 29.6,-24.7 13.7,-0.6 27.31,8.6 31.67,21.6 0.59,1.7 2.27,2.9 4.15,2.7 1.85,-0.2 3.35,-1.6 3.63,-3.4 1.95,-12.5 11.75,-21.8 23.29,-22.3 11.93,-0.5 23.88,8.6 26.62,20.3 0.41,1.7 1.9,2.9 3.67,3.1 2.04,-0.1 3.4,-1 4.01,-2.7 3.19,-8.5 10.96,-15 19.38,-16 8.38,-1.2 21.32,2.9 26.38,10.2 l 6.62,-4.5 c -7.01,-10.2 -23.12,-15 -34,-13.7 -8.43,1 -16.36,6 -21.6,13.2 -6.04,-10.6 -17.87,-17.9 -30.21,-17.9" transform="matrix(0.133333, 0, 0, -0.133333, 0, 1600)"/>
  <path id="path732" style="fill:#f6a000;fill-opacity:1;fill-rule:nonzero;stroke:none" d="m 9306.18,1335.4 h -2.25 c -16.15,0.8 -31.92,9.7 -40.76,22.5 -8.11,-12.5 -22.78,-20.5 -37.91,-19.3 -14.92,1 -27.53,10.9 -33.02,25.3 -6.91,-6.2 -14.1,-11.7 -22.73,-15 -12.51,-4.9 -26.13,-3.1 -34.62,4.3 -5.14,4.5 -7.6,10.9 -9.5,16.9 -10.07,-8.7 -25.08,-11.7 -37.52,-7.1 -15,5.6 -25.12,21.3 -24.03,37.2 l 8.01,-0.5 c -0.83,-12.3 7.26,-24.8 18.83,-29.2 11.56,-4.3 25.88,-0.1 33.31,9.8 0.91,1.2 2.33,1.8 3.88,1.5 1.47,-0.2 2.7,-1.3 3.15,-2.7 l 1.15,-3.7 c 1.92,-6.4 3.75,-12.4 8.02,-16.1 6.26,-5.5 16.65,-6.7 26.44,-2.9 9.28,3.5 17.04,10.4 24.86,17.8 1.06,1 2.58,1.3 3.94,0.9 1.39,-0.5 2.43,-1.6 2.73,-3 3.09,-14.3 14.2,-24.6 27.67,-25.5 13.9,-0.8 28.24,8.1 33.44,21.1 0.59,1.5 2.03,2.5 3.62,2.6 1.51,0 3.1,-0.9 3.76,-2.4 6.12,-13.4 21.96,-23.7 37.66,-24.4 7.54,-0.4 14.53,1.4 19.89,5 5.74,3.8 9.61,10.1 10.12,16.2 0.16,2 1.76,3.6 3.75,3.7 2.27,-0.1 3.77,-1.2 4.19,-3.2 0.91,-4.3 3.28,-10.2 9.34,-13.6 5.01,-2.9 11.26,-4.4 18.27,-4.1 15.06,0.6 29.91,9.2 37.83,22 0.79,1.3 2.26,2.1 3.69,1.9 1.48,-0.1 2.8,-1 3.4,-2.4 5.26,-11.8 17.09,-19.8 30.13,-20.1 h 0.89 c 12.64,0 25.34,7.6 31.13,18.9 0.78,1.5 2.41,2.3 4.16,2.1 1.7,-0.2 3.05,-1.5 3.35,-3.2 0.73,-4 4.55,-7.3 7.88,-9.1 3.78,-2 8.17,-2.9 13.61,-3.6 9.03,-1.3 20.7,-2.2 30.7,2 8.19,3.5 16.12,12 15.44,21.6 l 8.01,0.5 c 0.86,-11.9 -7.51,-24.1 -20.34,-29.5 -11.79,-4.9 -24.85,-4 -34.9,-2.6 -5.45,0.8 -11.2,1.8 -16.32,4.6 -3.5,1.8 -6.42,4.3 -8.53,7.1 -8.31,-10.7 -21.46,-17.2 -35.31,-16.9 -13.84,0.4 -26.58,7.7 -34.03,19.1 -9.81,-12.1 -24.79,-19.8 -40.5,-20.4 -8.35,-0.3 -16.25,1.5 -22.57,5.1 -3.56,2 -6.5,4.8 -8.76,8.2 -2.39,-4.3 -5.86,-8.1 -10.16,-11 -6.23,-4.2 -14.14,-6.4 -22.49,-6.4" transform="matrix(0.133333, 0, 0, -0.133333, 0, 1600)"/>
  <path id="path734" style="fill:#f6a000;fill-opacity:1;fill-rule:nonzero;stroke:none" d="m 9294.09,1154.1 -2.02,0.1 c -19.73,0.7 -38.02,12.3 -48.04,29.9 -16.31,-16 -39.78,-24.4 -62.54,-22 -22.88,2.3 -42.99,15 -55.74,35.2 -12.18,-7.8 -22.93,-12.5 -33.59,-14.7 -15.05,-3.1 -30.04,-0.7 -41.07,6.6 -12.89,8.6 -19.97,24.2 -17.2,38.1 l 7.87,-1.6 c -2.14,-10.7 3.52,-23 13.77,-29.8 9.29,-6.1 22.07,-8.1 35.02,-5.4 10.61,2.1 21.49,7.2 34.25,15.8 0.91,0.6 2.05,0.8 3.16,0.6 1.1,-0.3 2.03,-1 2.58,-2 11.27,-19.9 30.14,-32.7 51.76,-34.8 22.12,-2.3 45.06,6.7 59.71,23.6 0.91,1 2.21,1.6 3.63,1.3 1.35,-0.2 2.51,-1.1 3.07,-2.3 7.93,-17.9 25.06,-29.8 43.65,-30.5 18.79,-0.6 37.85,10.1 46.84,26.9 0.69,1.3 2.05,2.1 3.54,2.1 h 0.01 c 1.48,0 2.84,-0.8 3.54,-2.1 8.47,-16.1 26.22,-26.3 43.5,-25.7 17.69,0.7 34.91,12.6 41.86,28.9 0.5,1.2 1.53,2 2.77,2.3 1.24,0.3 2.55,0 3.52,-0.8 13.08,-11.1 28.34,-15.1 42.88,-11.4 5.33,1.4 12.84,4.3 18.39,10.5 4.83,5.3 7.16,12.3 6.24,18.6 -0.25,1.7 0.64,3.4 2.2,4.1 1.57,0.8 3.44,0.5 4.65,-0.8 16.1,-16.4 41.27,-22.5 62.68,-15.2 21.73,7.4 38.1,27.8 40.72,50.6 l 7.98,-0.9 c -2.97,-25.9 -21.49,-48.9 -46.1,-57.3 -21.49,-7.4 -46.36,-2.8 -64.42,11.3 -1.08,-5.7 -3.83,-11.2 -7.98,-15.8 -5.46,-6.1 -13.19,-10.5 -22.35,-12.8 -15.63,-4.1 -31.84,-0.6 -46.05,9.8 -9.25,-16.9 -27.39,-28.3 -46.66,-29.1 -18.73,-0.5 -36.67,8.7 -47.41,24.1 -10.94,-15.5 -29.57,-25.4 -48.62,-25.4" transform="matrix(0.133333, 0, 0, -0.133333, 0, 1600)"/>
  <path id="path736" style="fill:#f6a000;fill-opacity:1;fill-rule:nonzero;stroke:none" d="m 9307.5,968.902 c -23.68,0 -45.81,14.399 -55.47,35.898 -14.45,-18.499 -37.64,-30.499 -61.1,-31.101 h -1.79 c -23.01,0 -44.39,10.903 -59.59,30.301 -14.04,-16.898 -37.07,-26.301 -58.88,-23.5 -23.73,3 -45.13,20.2 -53.22,42.7 l 7.55,2.7 c 7.11,-19.7 25.87,-34.798 46.69,-37.4 20.79,-2.602 42.74,7.199 54.58,24.5 0.74,1.1 1.97,1.8 3.3,1.8 h 0.01 c 1.32,0 2.55,-0.7 3.3,-1.8 14.13,-20.398 35.47,-31.801 57.85,-31.199 23.46,0.5 46.61,13.801 58.99,33.699 0.84,1.3 2.38,2.1 3.96,1.8 1.56,-0.2 2.86,-1.3 3.31,-2.8 6.97,-23.699 30.89,-39.699 55.56,-37.301 24.35,2.5 45.82,24.301 47.87,48.701 0.15,1.7 1.38,3.2 3.05,3.6 1.71,0.4 3.44,-0.3 4.36,-1.8 11.45,-18.1 36.03,-28.098 58.28,-23.7 21.65,4.3 40.12,23.2 43.92,45 0.25,1.4 1.28,2.6 2.69,3.1 1.35,0.4 2.93,0.1 4.01,-0.9 10.27,-9.6 18.97,-15.9 30.58,-17.2 12.94,-1.6 25.68,2.5 34.16,10.7 8.86,8.5 12.43,22.1 8.65,32.9 -0.53,1.6 -0.09,3.3 1.13,4.3 1.23,1.1 2.97,1.4 4.42,0.7 13.64,-6.6 31.32,-13.7 47.75,-9.6 11.35,2.8 21.56,10.5 27.32,20.7 5.76,10.2 7.14,22.9 3.69,34.1 -0.47,1.6 0.03,3.2 1.26,4.3 1.25,1 2.94,1.2 4.42,0.5 5.48,-2.8 13.9,-5.5 22.86,-2.2 l 2.79,-7.5 c -6.98,-2.6 -14.46,-2.7 -21.93,-0.5 1.54,-11.1 -0.58,-22.9 -6.11,-32.6 -6.81,-12.1 -18.91,-21.3 -32.37,-24.6 -15.9,-4 -32.21,0.8 -45.84,6.7 1.12,-11.8 -3.41,-24.3 -12.46,-33 -10.17,-9.9 -25.32,-14.7 -40.67,-12.9 -12.6,1.5 -21.92,7.7 -30.06,14.7 -6.62,-22.2 -25.78,-40 -48.65,-44.598 -22.58,-4.403 -46.27,3.597 -60.85,19.698 -6.27,-24.3 -28.18,-43.999 -53.45,-46.499 -1.96,-0.301 -3.92,-0.399 -5.87,-0.399" transform="matrix(0.133333, 0, 0, -0.133333, 0, 1600)"/>
  <path id="path738" style="fill:#f6a000;fill-opacity:1;fill-rule:nonzero;stroke:none" d="m 9278.59,817.402 c -14.49,0 -28.95,4 -41.34,11.797 l 4.26,6.801 c 17.48,-11 39.59,-13.598 59.16,-6.898 19.55,6.597 35.56,22 42.82,41.398 0.47,1.199 1.54,2.199 2.84,2.5 1.33,0.199 2.68,-0.098 3.65,-1 13.68,-12.699 32.42,-16.699 50.11,-10.598 17.57,6.098 31.29,22.598 34.16,41 0.21,1.297 1.13,2.5 2.42,3 1.28,0.598 2.76,0.399 3.9,-0.402 9.91,-7.199 20.4,-10.602 31.2,-10.098 11.55,0.5 22.71,5 31.41,12.598 l 5.29,-6.098 c -10.08,-8.8 -22.99,-13.902 -36.34,-14.504 -10.93,-0.496 -21.27,2.301 -31.22,8.204 -5.09,-18.7 -19.83,-34.903 -38.19,-41.2 -18.77,-6.5 -38.5,-3.3 -53.88,8.5 -8.88,-19.101 -25.57,-34.203 -45.6,-41 -7.96,-2.703 -16.31,-4 -24.65,-4" transform="matrix(0.133333, 0, 0, -0.133333, 0, 1600)"/>
  <path id="path740" style="fill:#f6a000;fill-opacity:1;fill-rule:nonzero;stroke:none" d="m 9849.83,683.801 -0.72,8 c 15.16,1.398 29.17,10.601 36.58,23.898 7.4,13.301 7.76,30 0.95,43.602 -0.73,1.5 -0.51,3.199 0.55,4.5 1.08,1.199 2.82,1.601 4.31,1.101 19.29,-6.402 43.37,2.797 56.1,21.5 11.99,17.7 10.67,43.297 -3.05,59.598 -0.97,1.102 -1.21,2.801 -0.62,4.102 0.59,1.398 1.92,2.398 3.42,2.5 15.98,1.097 31.59,2.097 42.48,11.597 7.6,6.602 11.97,16.903 11.37,27 -0.5,10 -6.06,19.801 -14.36,25.5 -1.5,1 -2.13,2.903 -1.51,4.602 0.61,1.801 2.1,3 4.11,2.699 11.26,-0.898 23.36,4.602 32.06,14.801 8.1,9.5 11.2,22.801 8.2,34.898 l 7.8,1.903 c 3.6,-14.5 -0.2,-30.602 -9.9,-42 -7.8,-9.204 -18,-15.204 -28.61,-17.102 6.01,-6.898 9.71,-15.801 10.31,-24.898 0.7,-12.5 -4.8,-25.301 -14.21,-33.5 -11.26,-9.801 -25.62,-11.903 -39.98,-13 11.7,-18.903 11.67,-44.801 -0.86,-63.204 -13,-19.097 -36.45,-29.398 -57.37,-26.496 4.61,-14.3 3.19,-30.402 -4.16,-43.601 -8.68,-15.602 -25.11,-26.301 -42.89,-28" transform="matrix(0.133333, 0, 0, -0.133333, 0, 1600)"/>
  <path id="path742" style="fill:#f6a000;fill-opacity:1;fill-rule:nonzero;stroke:none" d="m 10046.1,679.602 -5.1,6.199 c 9.5,8 17.1,15 23.2,23.199 4.9,6.5 10.8,16.898 11.2,28.902 0.4,10.7 -4,20.797 -11.4,26.496 -1.5,1.102 -2,3.102 -1.2,4.801 0.7,1.699 2.4,2.699 4.3,2.403 10.9,-1.801 23.5,2.898 31.3,11.796 7.6,8.5 11.3,20.504 10.3,32.903 -0.9,11.301 -5.8,23.097 -13.8,33.097 -0.7,0.903 -1,2.204 -0.8,3.403 0.3,1.199 1.1,2.199 2.2,2.699 18.6,8.801 32.4,24.902 37,43 4.8,19.102 0.8,39.898 -10.8,55.801 l 6.5,4.801 c 13,-17.801 17.5,-41.2 12,-62.5 -4.8,-19 -18.4,-35.903 -36.9,-46.102 7.4,-10.398 11.7,-21.898 12.6,-33.5 1.2,-14.598 -3.3,-28.801 -12.3,-38.898 -7.3,-8.403 -17.8,-13.602 -28.4,-14.704 5.1,-7.199 7.8,-16.398 7.4,-25.796 -0.4,-11.102 -4.8,-22.7 -12.7,-33.403 -6.6,-8.898 -14.6,-16.199 -24.6,-24.597" transform="matrix(0.133333, 0, 0, -0.133333, 0, 1600)"/>
  <path id="path744" style="fill:#f6a000;fill-opacity:1;fill-rule:nonzero;stroke:none" d="m 10261.8,741.801 -7.6,2.597 c 5.1,14.602 2.4,30.801 -6.8,41.301 -0.8,0.801 -1.1,2 -1,3.102 0.1,1.199 0.8,2.199 1.7,2.801 6.3,4.199 12.7,8.597 17.9,14.097 3.8,4 8.6,10.403 9.6,18.301 1.1,8.199 -2.3,16 -5.4,21 -3.6,5.898 -8.5,12.199 -15.1,19 -0.8,0.801 -1.3,2 -1.2,3.102 0.2,1.199 0.7,2.199 1.7,2.898 10.1,7.402 16.7,19.902 17.2,32.402 0.5,12.5 -5.1,25.399 -14.6,33.598 l 5.2,6.102 c 11.5,-9.903 18,-24.903 17.4,-40 -0.5,-13.704 -6.8,-26.7 -17,-35.7 5.6,-6.101 10,-11.8 13.3,-17.3 3.7,-6.102 7.8,-15.602 6.5,-26.102 -1,-8 -5.1,-15.898 -11.8,-22.898 -4.7,-4.903 -10.3,-9 -15.6,-12.7 9,-12.601 11.1,-29.601 5.6,-45.601" transform="matrix(0.133333, 0, 0, -0.133333, 0, 1600)"/>
  <path id="path746" style="fill:#bccf00;fill-opacity:1;fill-rule:nonzero;stroke:none" d="m 9941.44,1312.4 c 20.95,21 38.65,-96.1 0,-89.7 -38.66,6.3 -31.51,58.2 0,89.7" transform="matrix(0.133333, 0, 0, -0.133333, 0, 1600)"/>
  <path id="path748" style="fill:#bccf00;fill-opacity:1;fill-rule:nonzero;stroke:none" d="m 10947,1589.2 c 22.5,4.3 -16.6,-78.1 -38.6,-57.5 -22,20.7 4.9,50.9 38.6,57.5" transform="matrix(0.133333, 0, 0, -0.133333, 0, 1600)"/>
  <path id="path750" style="fill:#bccf00;fill-opacity:1;fill-rule:nonzero;stroke:none" d="m 10577,1545.8 c -12.1,15.8 67.6,17.3 60,-7.9 -7.6,-25.3 -41.7,-15.9 -60,7.9" transform="matrix(0.133333, 0, 0, -0.133333, 0, 1600)"/>
  <path id="path752" style="fill:#bccf00;fill-opacity:1;fill-rule:nonzero;stroke:none" d="m 11303,2653.74 c 8.3,18.17 47.1,-51.5 21.3,-56.65 -25.9,-5.14 -33.7,29.33 -21.3,56.65" transform="matrix(0.133333, 0, 0, -0.133333, 0, 1600)"/>
  <path id="path754" style="fill:#bccf00;fill-opacity:1;fill-rule:nonzero;stroke:none" d="m 10757.7,2061.02 c 1,19.94 62.8,-30.51 40.6,-44.84 -22.2,-14.32 -42.1,14.86 -40.6,44.84" transform="matrix(0.133333, 0, 0, -0.133333, 0, 1600)"/>
  <path id="path756" style="fill:#bccf00;fill-opacity:1;fill-rule:nonzero;stroke:none" d="m 8875.31,873.602 c 16.76,24.398 55.6,-87.403 16.44,-88.2 -39.16,-0.902 -41.64,51.496 -16.44,88.2" transform="matrix(0.133333, 0, 0, -0.133333, 0, 1600)"/>
  <path id="path758" style="fill:#bccf00;fill-opacity:1;fill-rule:nonzero;stroke:none" d="m 9849.47,1203.9 c 32.07,21 42.58,-38 25.5,-55.1 -17.08,-17.1 -65.23,29.2 -25.5,55.1" transform="matrix(0.133333, 0, 0, -0.133333, 0, 1600)"/>
  <path id="path760" style="fill:#bccf00;fill-opacity:1;fill-rule:nonzero;stroke:none" d="m 8981.77,858.398 c 32.06,21 42.57,-37.996 25.49,-55.097 -17.07,-17.102 -65.22,29.199 -25.49,55.097" transform="matrix(0.133333, 0, 0, -0.133333, 0, 1600)"/>
  <path id="path762" style="fill:#bccf00;fill-opacity:1;fill-rule:nonzero;stroke:none" d="m 9915.06,1099 c 30.61,3.8 29.64,-78.3 -7.36,-64.1 -37,14.3 -49.32,57 7.36,64.1" transform="matrix(0.133333, 0, 0, -0.133333, 0, 1600)"/>
  <path id="path764" style="fill:#bccf00;fill-opacity:1;fill-rule:nonzero;stroke:none" d="m 10968.8,1487.3 c 23.6,3 22.9,-60.3 -5.7,-49.4 -28.5,11 -38,43.9 5.7,49.4" transform="matrix(0.133333, 0, 0, -0.133333, 0, 1600)"/>
  <path id="path766" style="fill:#bccf00;fill-opacity:1;fill-rule:nonzero;stroke:none" d="m 10697.1,2366.39 c 14.2,1.79 13.7,-36.41 -3.5,-29.79 -17.2,6.62 -22.9,26.48 3.5,29.79" transform="matrix(0.133333, 0, 0, -0.133333, 0, 1600)"/>
  <path id="path768" style="fill:#bccf00;fill-opacity:1;fill-rule:nonzero;stroke:none" d="m 11040.2,1620.5 c 23.6,2.9 22.8,-60.4 -5.7,-49.4 -28.5,11 -38.1,43.9 5.7,49.4" transform="matrix(0.133333, 0, 0, -0.133333, 0, 1600)"/>
  <path id="path770" style="fill:#bccf00;fill-opacity:1;fill-rule:nonzero;stroke:none" d="m 10929.1,1881.4 c -10.5,-12.9 -40.6,19.5 -20.8,27.7 19.7,8.2 40.3,-3.9 20.8,-27.7" transform="matrix(0.133333, 0, 0, -0.133333, 0, 1600)"/>
  <path id="path772" style="fill:#bccf00;fill-opacity:1;fill-rule:nonzero;stroke:none" d="m 11151.9,2719.34 c -10.5,-12.86 -40.6,19.56 -20.9,27.73 19.7,8.18 40.4,-3.91 20.9,-27.73" transform="matrix(0.133333, 0, 0, -0.133333, 0, 1600)"/>
  <path id="path774" style="fill:#bccf00;fill-opacity:1;fill-rule:nonzero;stroke:none" d="m 10958.5,1777 c 16.9,2.1 16.4,-43.3 -4.1,-35.4 -20.5,7.8 -27.3,31.5 4.1,35.4" transform="matrix(0.133333, 0, 0, -0.133333, 0, 1600)"/>
  <path id="path776" style="fill:#bccf00;fill-opacity:1;fill-rule:nonzero;stroke:none" d="m 11262.3,2751.15 c 17,2.12 16.4,-43.35 -4,-35.47 -20.5,7.89 -27.4,31.53 4,35.47" transform="matrix(0.133333, 0, 0, -0.133333, 0, 1600)"/>
  <path id="path778" style="fill:#bccf00;fill-opacity:1;fill-rule:nonzero;stroke:none" d="m 10794.5,1490.4 c -12.5,-20.3 -61.4,19.9 -35,35.3 26.4,15.4 58.1,2.2 35,-35.3" transform="matrix(0.133333, 0, 0, -0.133333, 0, 1600)"/>
  <path id="path780" style="fill:#bccf00;fill-opacity:1;fill-rule:nonzero;stroke:none" d="m 10686.4,2141.29 c -16.9,0 -10.8,44.75 8.4,34.45 19.2,-10.3 23.1,-34.45 -8.4,-34.45" transform="matrix(0.133333, 0, 0, -0.133333, 0, 1600)"/>
  <path id="path782" style="fill:#bccf00;fill-opacity:1;fill-rule:nonzero;stroke:none" d="m 10834,1904.5 c -9.1,-14.8 -44.8,14.5 -25.5,25.7 19.2,11.3 42.3,1.7 25.5,-25.7" transform="matrix(0.133333, 0, 0, -0.133333, 0, 1600)"/>
  <path id="path784" style="fill:#bccf00;fill-opacity:1;fill-rule:nonzero;stroke:none" d="m 9029.75,743 c 30.61,3.801 29.65,-78.301 -7.36,-64.098 -37,14.297 -49.32,56.996 7.36,64.098" transform="matrix(0.133333, 0, 0, -0.133333, 0, 1600)"/>
  <path id="path786" style="fill:#f6a000;fill-opacity:1;fill-rule:nonzero;stroke:none" d="m 9731.09,2877.96 c -2.47,-2.3 -4.95,-4.44 -7.43,-6.4 -10.93,3.07 -21.09,7.85 -30.48,14.34 -33.04,22.72 -50.46,61.31 -59.6,92.05 2.14,2.22 4.36,4.53 6.58,6.92 8.36,-30.23 25.18,-70.02 57.63,-92.39 10.16,-6.92 21.26,-11.87 33.3,-14.52" transform="matrix(0.133333, 0, 0, -0.133333, 0, 1600)"/>
  <path id="path788" style="fill:#f6a000;fill-opacity:1;fill-rule:nonzero;stroke:none" d="m 9800.6,2976.84 c -1.28,-2.73 -2.56,-5.38 -3.84,-7.94 -51.83,3.07 -90.94,44.49 -113.74,76.59 1.37,2.65 2.82,5.38 4.1,8.2 21.77,-31.85 61.05,-75.48 113.48,-76.85" transform="matrix(0.133333, 0, 0, -0.133333, 0, 1600)"/>
  <path id="path790" style="fill:#f6a000;fill-opacity:1;fill-rule:nonzero;stroke:none" d="m 9839.96,3120.03 c -0.34,-3.07 -0.68,-6.23 -1.11,-9.3 -9.73,-3.85 -20.06,-5.81 -30.99,-5.81 h -0.17 c -36.04,0.09 -70.62,20.92 -92.14,37.23 0.52,3.07 1.03,6.06 1.45,9.14 20.33,-15.89 55.34,-38.26 90.77,-38.34 h 0.09 c 11.44,0 22.11,2.39 32.1,7.08" transform="matrix(0.133333, 0, 0, -0.133333, 0, 1600)"/>
  <path id="path792" style="fill:#f6a000;fill-opacity:1;fill-rule:nonzero;stroke:none" d="m 9842.27,3196.63 v -0.09 c -5.38,-2.3 -11.19,-3.93 -17.42,-4.69 -3.33,-0.43 -6.75,-0.69 -10.16,-0.69 -33.3,0 -69.51,19.21 -93.59,35.01 0,3.33 -0.08,6.66 -0.25,9.91 25.19,-17 67.71,-40.82 102.97,-36.29 6.49,0.85 12.47,2.56 17.93,5.38 0.26,-2.91 0.35,-5.72 0.52,-8.54" transform="matrix(0.133333, 0, 0, -0.133333, 0, 1600)"/>
  <path id="path794" style="fill:#f6a000;fill-opacity:1;fill-rule:nonzero;stroke:none" d="m 9827.15,3295.42 c -15.96,-7.34 -35.35,-9.82 -54.22,-9.82 -20.83,0 -41.07,2.99 -55.75,5.89 -0.26,2.91 -0.52,5.72 -0.94,8.46 26.98,-5.38 76.5,-11.96 108.78,3.5 0.77,-2.74 1.45,-5.38 2.13,-8.03" transform="matrix(0.133333, 0, 0, -0.133333, 0, 1600)"/>
  <path id="path796" style="fill:#f6a000;fill-opacity:1;fill-rule:nonzero;stroke:none" d="m 9791.97,3391.22 c -5.12,-7.25 -11.61,-13.23 -19.38,-17.93 -15.97,-9.73 -34.67,-12.63 -51.4,-12.63 -5.38,0 -10.5,0.34 -15.2,0.76 -0.51,2.82 -1.2,5.64 -1.88,8.46 18.79,-2.22 44.32,-1.88 64.3,10.33 8.02,4.87 14.6,11.27 19.64,19.3 1.28,-2.65 2.64,-5.47 3.92,-8.29" transform="matrix(0.133333, 0, 0, -0.133333, 0, 1600)"/>
  <path id="path798" style="fill:#f6a000;fill-opacity:1;fill-rule:nonzero;stroke:none" d="m 9751.24,3462.1 c -14.6,-17.76 -42.6,-25.02 -67.02,-27.75 -1.03,2.64 -2.05,5.2 -3.08,7.77 23.82,2.47 51.4,9.05 64.47,25.78 l 0.68,0.94 c 1.62,-2.22 3.25,-4.44 4.95,-6.74" transform="matrix(0.133333, 0, 0, -0.133333, 0, 1600)"/>
  <path id="path800" style="fill:#f6a000;fill-opacity:1;fill-rule:nonzero;stroke:none" d="m 9466.65,3001.26 c -24.93,-21.77 -66.69,-51.15 -117.24,-58.4 -1.45,2.47 -2.9,5.03 -4.18,7.6 50.46,6.14 92.3,35.77 116.81,57.38 1.53,-2.31 2.99,-4.44 4.61,-6.58" transform="matrix(0.133333, 0, 0, -0.133333, 0, 1600)"/>
  <path id="path802" style="fill:#f6a000;fill-opacity:1;fill-rule:nonzero;stroke:none" d="m 9431.13,3067.78 c -32.11,-22.03 -64.64,-28.61 -91.96,-28.61 -10.59,0 -20.41,1.03 -29.12,2.48 -0.68,2.65 -1.37,5.38 -1.97,8.11 29.89,-5.81 75.15,-6.15 120.31,25.87 0.86,-2.64 1.8,-5.29 2.74,-7.85" transform="matrix(0.133333, 0, 0, -0.133333, 0, 1600)"/>
  <path id="path804" style="fill:#f6a000;fill-opacity:1;fill-rule:nonzero;stroke:none" d="m 9413.88,3137.03 c -12.04,-3.85 -24.68,-5.38 -37.23,-5.38 -30.23,0 -60.03,8.96 -80.43,16.82 -0.09,2.9 -0.09,5.89 0,8.79 27.92,-11.01 76.42,-25.36 116.72,-12.12 0.26,-2.73 0.6,-5.47 0.94,-8.11" transform="matrix(0.133333, 0, 0, -0.133333, 0, 1600)"/>
  <path id="path806" style="fill:#f6a000;fill-opacity:1;fill-rule:nonzero;stroke:none" d="m 9410.81,3212 c -0.09,-2.65 -0.18,-5.38 -0.18,-8.12 -2.39,-0.17 -4.78,-0.25 -7.17,-0.25 -41.84,0 -77.36,30.14 -96.14,49.95 0.59,3.07 1.36,6.23 2.13,9.39 17.59,-19.47 56.36,-55.16 101.36,-50.97" transform="matrix(0.133333, 0, 0, -0.133333, 0, 1600)"/>
  <path id="path808" style="fill:#f6a000;fill-opacity:1;fill-rule:nonzero;stroke:none" d="m 9417.04,3287.82 c -0.34,-2.73 -0.77,-5.46 -1.11,-8.2 -2.82,-0.34 -5.47,-0.51 -8.11,-0.51 -36.29,0 -62.76,28.18 -77.36,49.01 1.11,2.91 2.3,5.81 3.67,8.71 4.95,-7.68 11.87,-16.9 20.58,-25.36 19.55,-18.95 40.38,-26.89 62.33,-23.65" transform="matrix(0.133333, 0, 0, -0.133333, 0, 1600)"/>
  <path id="path810" style="fill:#f6a000;fill-opacity:1;fill-rule:nonzero;stroke:none" d="m 9431.38,3357.41 c -0.68,-2.56 -1.45,-5.21 -2.13,-7.85 -26.73,10.67 -49.53,37.48 -61.48,53.62 1.54,2.56 3.07,5.04 4.61,7.43 10.59,-14.69 33.13,-42.44 59,-53.2" transform="matrix(0.133333, 0, 0, -0.133333, 0, 1600)"/>
  <path id="path812" style="fill:#f6a000;fill-opacity:1;fill-rule:nonzero;stroke:none" d="m 9453.07,3417.95 c -1.36,-3.07 -2.73,-6.23 -4.1,-9.56 -10.07,18.44 -18.78,46.79 -23.82,65.32 2.31,2.05 4.61,3.93 6.83,5.72 5.64,-21.18 13.49,-45.17 21.09,-61.48" transform="matrix(0.133333, 0, 0, -0.133333, 0, 1600)"/>
  <path id="path814" style="fill:#2e3300;fill-opacity:1;fill-rule:nonzero;stroke:none" d="m 9462.27,2836.61 c -14.15,-0.79 -24.98,-12.9 -24.2,-27.04 0.79,-14.15 12.89,-24.98 27.04,-24.2 14.15,0.79 24.98,12.89 24.19,27.04 -0.78,14.15 -12.89,24.98 -27.03,24.2" transform="matrix(0.133333, 0, 0, -0.133333, 0, 1600)"/>
  <path id="path816" style="fill:#ffffff;fill-opacity:1;fill-rule:nonzero;stroke:none" d="m 9455.86,2829.49 c -3.93,0.59 -7.59,-2.12 -8.18,-6.05 -0.59,-3.93 2.12,-7.59 6.05,-8.18 3.93,-0.59 7.59,2.12 8.18,6.05 0.59,3.93 -2.12,7.59 -6.05,8.18" transform="matrix(0.133333, 0, 0, -0.133333, 0, 1600)"/>
</svg>