<svg xmlns:inkscape="http://www.inkscape.org/namespaces/inkscape" xmlns:sodipodi="http://sodipodi.sourceforge.net/DTD/sodipodi-0.dtd" xmlns="http://www.w3.org/2000/svg" xmlns:svg="http://www.w3.org/2000/svg" xmlns:rdf="http://www.w3.org/1999/02/22-rdf-syntax-ns#" xmlns:cc="http://creativecommons.org/ns#" xmlns:dc="http://purl.org/dc/elements/1.1/" version="1.1" id="svg2" xml:space="preserve" sodipodi:docname="elephant.svg" inkscape:version="1.2 (dc2aeda, 2022-05-15)" viewBox="3.32 147.75 794.6 565.06"><metadata id="metadata8"><rdf:RDF><cc:Work rdf:about=""><dc:format>image/svg+xml</dc:format><dc:type rdf:resource="http://purl.org/dc/dcmitype/StillImage"/></cc:Work></rdf:RDF></metadata><defs id="defs6"/><sodipodi:namedview pagecolor="#ffffff" bordercolor="#666666" borderopacity="1" objecttolerance="10" gridtolerance="10" guidetolerance="10" inkscape:pageopacity="0" inkscape:pageshadow="2" inkscape:window-width="1382" inkscape:window-height="847" id="namedview4" inkscape:showpageshadow="2" inkscape:pagecheckerboard="0" inkscape:deskcolor="#d1d1d1" showgrid="false" inkscape:zoom="0.76405801" inkscape:cx="263.06903" inkscape:cy="422.08837" inkscape:window-x="0" inkscape:window-y="25" inkscape:window-maximized="1" inkscape:current-layer="g10"/><g id="g10" inkscape:groupmode="layer" inkscape:label="ink_ext_XXXXXX" transform="matrix(1.3333333,0,0,-1.3333333,0,827.61333)"><g id="g12" transform="scale(0.1)"><path d="m 2711.06,860.969 c 1479.44,0 2686.08,178.201 2686.08,396.611 0,218.46 -1206.64,396.61 -2686.08,396.61 C 1231.6,1654.19 24.9297,1476.04 24.9297,1257.58 24.9297,1039.17 1231.6,860.969 2711.06,860.969" style="fill:#e8e8e7;fill-opacity:1;fill-rule:evenodd;stroke:none" id="path388"/><path d="m 5408.22,3348.27 c 169.18,-103.76 373.02,-196.07 528.23,-162.41 24.53,5.31 80.52,52.41 22.54,60.82 -377.43,54.81 -470.92,197.39 -633.23,320 27.47,-59.29 54.96,-159.15 82.46,-218.41" style="fill:#ccc4c5;fill-opacity:1;fill-rule:evenodd;stroke:none" id="path390"/><path d="M 858.547,2673.53 C 653.121,2210.22 604.391,1766.05 699.398,1242.59 c 139.926,-92.73 360.962,-162.53 566.172,-71.86 24.85,124.77 13.53,236.41 -93.92,313.08 2.7,131.36 -26.08,256.39 -83.48,375.72 56.31,101.16 109.54,204.21 135.68,323.52 140.08,86.56 224.41,212.6 271.33,365.25 59.11,17.4 118.27,34.8 177.42,52.19 256.45,-344.85 271.15,-838.67 229.57,-1367.15 191.51,-98.73 378.1,-55.01 563.6,20.87 8.6,145.59 -59.71,247.18 -135.68,344.41 -64.96,435.78 -5.95,782.4 229.57,1001.87 125.05,-9.21 255.1,36.89 386.14,93.92 23.58,-159.32 92.15,-307.44 187.88,-448.75 -4.14,-153.22 33.46,-297.14 83.46,-438.3 65.59,-208.74 57.52,-417.48 20.9,-626.19 194.8,-65.16 389.6,-95.64 584.44,-10.44 17.07,172.15 -38.63,309.83 -135.69,427.89 -69.07,368.69 -55.6,728.68 -10.44,1085.35 141.36,-381.15 404.42,-451.33 532.23,-751.38 -8.25,-232.44 -118.8,-413.72 -271.33,-574.01 137.11,-165.11 286.03,-267.24 459.2,-240.02 17.4,97.39 34.78,194.81 52.17,292.19 38.26,229.59 180.18,400.6 114.78,688.79 -62.76,401.87 -247.19,830.78 -323.52,1273.22 145.56,363.94 278.98,233.88 480.1,292.23 602.73,-316.69 -83.51,-1516.74 -125.23,-2275.11 -5.05,-54.14 123.17,29.19 159.84,-38.82 15.27,-28.26 144.02,-24.7 133.36,30.46 -122.64,522.54 215.96,1055.8 437.32,1594.69 133.55,528.8 221.11,1030.98 -104.38,1294.08 -140.95,483.8 -390.06,816.17 -1012.31,626.17 -571.34,375.69 -1000.18,189.78 -1367.12,-240.03 -271.29,217.87 -620.81,169.91 -1012.35,-20.88 -543.49,-187.54 -915.047,-592.27 -1001.844,-1356.7 10.449,-201.76 20.863,-403.54 31.281,-605.32" style="fill:#5f4e55;fill-opacity:1;fill-rule:evenodd;stroke:none" id="path392"/><path d="m 4820.52,3593.38 c 74.65,-71.24 116.6,-164.89 134.86,-274.81 84.51,-129.63 201.18,-242.18 377.9,-310.46 7.18,28.84 14.22,57.59 21.04,86.23 -162.65,81.34 -283.77,216.72 -348.56,445 -51.2,92.6 -116.08,88.7 -185.33,54.25 l 0.09,-0.21" style="fill:#4d3b40;fill-opacity:1;fill-rule:evenodd;stroke:none" id="path394"/><path d="m 2792.93,4691.97 c -263.9,176.17 -595.23,123.2 -963.82,-56.42 -354.1,-122.19 -635.19,-336.62 -812.12,-682.63 119.07,193.16 450.51,464.27 821.62,558.17 548.99,330.41 766.12,235.86 954.32,180.88" style="fill:#8a787d;fill-opacity:1;fill-rule:evenodd;stroke:none" id="path396"/><path d="m 4989.39,2204.44 c 96.3,255.59 229.59,513.01 335.88,771.77 133.55,528.8 221.11,1030.98 -104.38,1294.08 -140.95,483.8 -390.06,816.17 -1012.31,626.17 -571.34,375.69 -1000.18,189.78 -1367.12,-240.03 -29.23,-379.41 123.64,-523.66 382.88,-530.48 271.61,-356.87 599.71,-538.49 991.51,-522.8 83.03,282 -62.52,402.75 -136,692.18 -31.71,125.05 41.64,417.23 0.8,542.72 600.24,89.57 1001.22,-60.89 1072.65,-608.31 281.41,-173.53 354.35,-984.23 -163.91,-2025.3" style="fill:#8a787d;fill-opacity:1;fill-rule:evenodd;stroke:none" id="path398"/><path d="m 5333.28,3008.11 c 7.18,28.84 14.22,57.59 21.04,86.23 -12.8,6.4 -25.35,13.15 -37.65,20.25 -6.34,-29.93 -13.21,-60.26 -20.75,-91.07 12.14,-5.35 24.62,-10.51 37.36,-15.41" style="fill:#675359;fill-opacity:1;fill-rule:evenodd;stroke:none" id="path400"/><path d="m 1672.6,2600.49 c 99.35,-133.6 162.38,-289.57 199.97,-461.28 170.44,86.74 319.26,80.63 454.56,16.14 33.94,179.75 108.94,329.97 232.53,445.14 125.05,-9.21 255.1,36.89 386.14,93.92 -7.1,319.74 -36.03,623.14 -187.85,834.4 48.47,-297.56 46.19,-552.77 -49.59,-730.12 -309.2,-147.21 -681.48,3.06 -1035.76,-198.2" style="fill:#3c2f33;fill-opacity:1;fill-rule:evenodd;stroke:none" id="path402"/><path d="m 3676.35,2683.97 c 45.59,-122.94 103.87,-213.55 166.19,-289.93 70.25,339.52 177.54,653.12 417.42,873.95 -7.32,34.83 -14.04,69.77 -20.08,104.77 145.56,363.94 278.98,233.88 480.1,292.23 -223.33,17.7 -395,70.62 -486.14,178.48 v 0.01 c 11.95,-70.34 9.68,-146.38 -17.99,-240.33 -391.8,-15.69 -719.9,165.93 -991.51,522.8 -216.58,5.7 -358.85,107.35 -382.82,361.86 h -0.03 c -176.32,-365.58 -122.86,-615.22 355.88,-650.27 -72.12,-335.01 581.38,-345.53 757.14,-883.33 -128.46,-24.09 -227.81,-101.94 -278.16,-270.24" style="fill:#3c2f33;fill-opacity:1;fill-rule:evenodd;stroke:none" id="path404"/><path d="M 858.547,2673.53 C 653.121,2210.22 604.391,1766.05 699.398,1242.59 c 30.399,-20.11 64.547,-39.14 101.52,-55.7 -112,495.18 -131.516,990.41 165.547,1485.58 -80.219,219.97 -119.067,453.68 -127.168,697.69 -4.457,-29.88 -8.504,-60.27 -12.031,-91.31 10.449,-201.76 20.863,-403.54 31.281,-605.32" style="fill:#3c2f33;fill-opacity:1;fill-rule:evenodd;stroke:none" id="path406"/><path d="m 2465.06,2882.09 c -321.41,-1.06 -525.98,28.52 -799.27,219.8 171.28,295.96 -210.29,547.88 -264.37,807.77 27.06,-297.45 356.04,-630.96 81.1,-892.36 345.71,-184.51 672.87,-227.1 982.54,-135.21" style="fill:#3c2f33;fill-opacity:1;fill-rule:evenodd;stroke:none" id="path408"/><path d="m 4839.08,4424.65 c 102.01,-50.47 165.77,19.46 117.18,114.94 -93.18,183.1 -338.45,278.3 -802.23,245.61 159.25,-205.81 -181.78,-436.41 477.73,-617.44 -214.38,201.34 69.11,325.28 207.32,256.89" style="fill:#8a787d;fill-opacity:1;fill-rule:evenodd;stroke:none" id="path410"/><path d="m 4702.19,4278.19 c 46.21,0 83.92,25.05 83.92,55.77 0,30.72 -37.71,55.78 -83.92,55.78 -46.24,0 -83.94,-25.06 -83.94,-55.78 0,-30.72 37.7,-55.77 83.94,-55.77" style="fill:#100f0d;fill-opacity:1;fill-rule:evenodd;stroke:none" id="path412"/><path d="m 4773.14,4319.83 c 10.13,0 18.35,8.23 18.35,18.32 0,10.11 -8.22,18.34 -18.35,18.34 -10.1,0 -18.3,-8.23 -18.3,-18.34 0,-10.09 8.2,-18.32 18.3,-18.32" style="fill:#ffffff;fill-opacity:1;fill-rule:evenodd;stroke:none" id="path414"/><path d="m 4732.47,4347.17 c 13.91,0 25.24,11.33 25.24,25.24 0,13.89 -11.33,25.24 -25.24,25.24 -13.9,0 -25.24,-11.35 -25.24,-25.24 0,-13.91 11.34,-25.24 25.24,-25.24" style="fill:#ffffff;fill-opacity:1;fill-rule:evenodd;stroke:none" id="path416"/><path d="m 4820.43,3593.59 c 69.25,54.77 134.13,77.72 185.33,0.14 85.68,-276.74 269.83,-362.13 518.3,-356.05 64.33,1.58 38.4,-70.51 -18.02,-76.61 -421.58,-45.48 -579.33,188.08 -685.61,432.52" style="fill:#ccc4c5;fill-opacity:1;fill-rule:evenodd;stroke:none" id="path418"/></g></g></svg>