<svg xmlns="http://www.w3.org/2000/svg" enable-background="new 0 0 2235.9 1738.8" version="1.1" viewBox="61.91 68.88 2111.67 1600.95">
 <style type="text/css">.st0{fill:#373435;stroke:#373435;} .st1{fill:#82CEBB;stroke:#82CEBB;} .st2{fill:#7DAB9F;stroke:#7DAB9F;} .st3{fill:#CCD5B5;stroke:#CCD5B5;} .st4{fill:#BBB78A;stroke:#BBB78A;} .st5{fill:#E4E3BF;stroke:#E4E3BF;} .st6{fill:#746F5D;stroke:#746F5D;} .st7{fill:#CDDEBC;stroke:#CDDEBC;} .st8{fill:#AAD5B8;stroke:#AAD5B8;} .st9{fill:#929278;stroke:#929278;} .st10{fill:#6E736B;stroke:#6E736B;}</style>
 <path class="st0" d="m555.3 88c46.1-13.2 94.1-19.6 142-18.5 78.2 1.7 155.8 23.7 223.6 62.5 63.4 36.2 118.5 87.1 158.5 148.2 34.6 52.8 57.5 113.5 64.5 176.3 20.3 6.4 41.1 10.8 61.9 14.9 46.6 8.8 94.1 13.4 141.6 12.5 48.9-0.9 97.9-7.9 144.3-23.4 13.6-4.4 26.5-10.6 40.5-14 23.9-6.3 48.7-9 73.4-8.7 14.7 0.3 29.4 1.4 44.1 2.6 70.1 6.3 140.1 22 203.9 52.2 46.4 21.9 88.9 52.1 124.4 89.2 2.1 2.7 5.7 3.1 8.7 4.2 33.6 11.2 66 26.7 94 48.5 26.2 20.2 48 46.1 63 75.6 18.4 35.9 26.8 76.3 28.8 116.5 2.5 47.8-3.1 95.9-16.4 141.9-19.5 68.1-55.4 130.9-101.9 184.1-15.7 18.1-32.8 35-50.7 51 8 30 12.3 60.9 16.2 91.7 0.4 3.2 1 6.8-1.2 9.6-2.3 3.5-6.7 3.8-10.4 4.6-19.3 4.1-38.5 9.2-56.3 17.8-14.3 6.9-27.4 16.8-36.4 29.9-11.1 16.2-16 35.6-19.5 54.6-6.5 38.9-8.9 78.3-14.3 117.4-0.5 3.6-3.7 6-6.9 7-29.5 10.9-57.3 28.9-75.7 54.9-14.3 20.2-23 44.7-22.8 69.6 0.1 4.9-4.5 9-9.3 8.6h-124.7c-4.6 0.2-9.1-3.8-9-8.5 0.6-36 13-71.4 34.2-100.4 10.9-15.2 23.9-28.8 37.7-41.5 11.3-10.5 23.4-20.1 34.3-31 2.8-3.2 6.6-6.5 6.3-11.2v-141.2c-6.5 1.4-13 2.6-19.5 3.6-2 0.4-4.4 0.3-5.7 2.2-10.1 11.4-16.1 25.8-20.1 40.3-7.5 27.1-8.9 55.3-12.2 83.1-0.2 3.2-2.2 6-5 7.5-29.9 17.4-57.2 39.9-77.1 68.4-16.3 23.4-27.9 50.9-29.3 79.6-0.6 4.1-4.7 7.2-8.8 6.9h-115.9c-4.8 0.3-9.3-4-9-8.8 0.7-33.6 11.4-66.8 30.2-94.7 10.7-16.3 23.9-30.7 38.1-44.1 11.9-11.5 24.9-21.8 36.6-33.6 3-3.3 6.8-6.9 6.4-11.7-0.1-30.1 0-60.3-0.1-90.5-38.7-0.1-77.3-0.1-116 0-25.5 26.6-48.6 55.6-67.6 87.2-3.3 5-11.7 4.5-14.5-0.8-2-3.6-0.9-7.9-1.1-11.9 0-57.4 4.5-114.8 14.9-171.3 13.5-73.1 37.7-144.8 76.1-208.7 0.7-1.2 1.3-2.5 2-3.7-1.2-0.7-2.4-1.7-3.9-1.5h-135.6c-10.2 0.1-20.5-0.4-30.7 1-30 4.1-57.6 18.6-81.7 36.4-15.9 11.8-30.7 25.2-44 39.9 36.1 16.4 64.3 46.5 84.4 80.1 6.8 11.4 12.9 23.3 17.6 35.7 2 4.6-0.6 10.3-5.3 11.8-23.9 9.2-44.6 25.6-60.1 45.9-19.3 25-31.4 54.9-39.5 85.3-10.7 41.5-14.4 84.7-13 127.5 0.1 4.5-4 7.9-8.2 8.6-26 6.5-47.9 26.1-58.3 50.6-1.3 3.6-4.9 6-8.7 5.8h-125.8c-5.5 0.4-10.4-5.2-9-10.6 3.8-20.4 14.1-39 27.2-54.9 19.4-23.5 44.4-41.7 70.5-57.2 5.6-3.5 12.1-6.3 15.4-12.3 5.6-10 6.6-21.7 7.8-32.9 2.3-32.4 0-64.9-2.4-97.2-4.6-59.2-7.6-118.6-5.2-178-45.1-17.1-86.1-44.1-121.7-76.4-1.2-1.2-2.9-0.8-4.3-0.9-52.8 0.8-105.9-3.3-157.6-14.3-35.8-7.7-71.2-18.7-104-35.1-0.1 18.5-0.2 37 0 55.5 5.3 6.1 11.9 11 18.1 16 36.5 27.9 82.2 41.6 127.6 44.6 10.4-13.1 20.9-26.1 31.3-39.2 2.4-3.2 6.8-4.2 10.4-2.7 31.2 11.4 62.4 22.6 93.6 34 4.7 1.5 7.5 7.2 5.3 11.8-9.2 19.2-22.8 36.2-39.3 49.6-22.8 18.7-50.6 30.6-79.3 36.6-38 7.9-77.7 6-115.4-3-31.8-7.8-62.4-20.4-90.9-36.6-27-15.4-51.7-35-72.3-58.3-22.4-25.3-39.8-54.9-52.1-86.4-21-55.3-28-115.1-28.8-174.1 0-3.2-0.3-6.5 0.1-9.7 0.8-3.9 4.5-6.9 8.5-6.8 72-0.1 144.1 0.2 216.1-0.1-9.1-13.4-18-27-25.5-41.4-19.4-36.5-33.2-75.8-43.4-115.7-10.9-42.8-17.8-86.5-21.9-130.5-3.6-38.4-5-77-4.2-115.5-5.1-0.1-10.2-0.1-15.2 0 0.1 44.6-4.9 89.7-19.6 132.1-11.5 33.5-29.5 64.9-53.7 90.8-20.6 22.3-45.6 40.1-72.2 54.4-3.8 2.2-7.9 4-11.6 6.3-0.9 1.3-0.4 3.1-0.6 4.6 0.1 24.4 0 48.8 0 73.2-0.1 7.3 2.1 14.6 6.6 20.4 4.6 5.9 11.2 10 18.2 12.5 4.3 1.4 6.9 6.7 5.2 10.9-10.5 24.9-29.3 46.5-53.2 59.4-23.2 12.7-50.1 17.9-76.5 17-3.9-0.3-8.4 0-11.5-2.8-12.3-10.6-21.6-24.3-28.3-38.9-10.7-23.4-15.9-49-18.1-74.6-1.3-14.4-0.8-29-0.9-43.4v-282.1c-52.6 22.7-105 46-157.5 68.8-5.3 2.6-12.1-1.6-12.2-7.4 0.2-5.5 1.6-10.8 2.6-16.2 7.1-32.1 20.5-63.4 41.8-88.7 6.2-7.3 13.1-14.1 20.7-19.9 1.2-1 2.4-2 3.3-3.2-27.8-6.8-55.5-13.6-83.3-20.4-3.2-0.9-6.9-1.2-9.2-3.8-3.3-3.4-3-9.5 0.7-12.5 5.6-4.7 11.7-8.8 17.8-12.9 23.9-15.4 50.2-27.6 78-33.8 24.7-5.6 50.9-5.9 75.4 1 8.4 2.2 16.4 5.6 24.3 9.2 3.5-14.2 8.8-28 16.4-40.5 11.9-19.8 27.7-36.8 44.3-52.7 33.9-32.4 71.2-61.4 111.6-85.3 38.4-23 79.4-41.1 122.1-53.4m113.3-0.8c0.8 0.6 1.7 1.3 2.6 1.8 36.6 19.2 70.4 44.3 98.3 74.9 22.3 24.4 40.7 52.3 53.9 82.7 16.6 38.1 24.4 79.6 24.7 121 0.1 76.5 0 153 0 229.6-0.2 21.7 2.7 43.6 9.7 64.2 9.6 29 27.7 55 51.4 74.3 26.8 21.9 59.4 35.9 93 43.6-2.7-3.6-5.8-6.8-8.4-10.5-10.2-13.7-17.5-29.4-22.7-45.6-6.9-21.3-10.6-43.5-12.7-65.8-2.3-23.3-2.8-46.8-2.7-70.2 0.1-82.1 0.2-164.3-0.3-246.4-0.1-21.3-1.4-42.7-5.2-63.8-6.1-35.8-18.9-70.9-39.9-100.7-19.5-27.6-46.1-50.6-77.1-64.4-8.6-3.9-17.7-6.3-26.8-8.9-44.7-12.2-91.4-17.5-137.8-15.8m-55.9 5.7c-22.3 3.7-44.3 9-65.8 15.9 3.1 2.6 7.2 3.8 10.8 5.7 31.8 15.7 61.8 35.5 87.7 59.8 22 20.6 41.2 44.6 55.3 71.3 17.6 32.9 27.2 69.8 28.7 107.1 0.9 26.4 0.7 52.9 1.7 79.3 0.2 15.5 0.2 31 0.9 46.5 0 26.5 1.6 53.1 5.9 79.3 3.5 21.1 8.9 42 17.6 61.6 10.8 25 27.8 47.9 50.8 63 15.4 10.4 33.2 17 51.4 20.6-5-9.4-10.1-18.7-13.7-28.7-8.6-22.3-12.7-46.3-13.1-70.2-0.2-76.5 0-153-0.1-229.5 0.5-39.6-6.1-79.4-21.2-116.1-13.6-33.5-34.2-64-59.4-90-23.2-23.9-50.2-44.1-79.4-60.2-12.5-6.8-25.2-13.2-38.6-17.8-6.7-0.1-13.1 1.6-19.5 2.4m-93.1 25.5c-18.1 7.2-36.1 14.9-53.1 24.5 10.8 5.9 21.8 11.2 32.3 17.6 29.9 17.6 58.3 39.7 77 69.5 19.3 30.1 26.9 65.9 29.8 101.1 2.4 26.3 2.2 52.7 2.2 79.1 0.5 12.4 1.9 24.9 4 37.2 6.1 35.4 19.2 70.3 42 98.4 18.8 23.1 44.8 41.1 74.1 47.4-8.5-31.3-11.9-63.7-12.9-96-1-47.2-1.9-94.3-2.9-141.5-1.1-38.5-11.7-76.8-31.3-110.1-15.8-27-36.9-50.7-60.9-70.7-27.9-23.2-59.7-41.4-93.1-55.3-2.3-0.9-4.8-2.5-7.2-1.2m387.5 26.3c9 10.7 17.8 21.6 25.1 33.6 22.4 36.1 34.2 78 38.4 120.1 2.5 23 2 46.1 2.1 69.2 0.1 28.1 0.1 56.2 0.2 84.3 1.8-1.8 3-4.1 4.2-6.4 34.2-64.6 47.3-139.8 38.5-212.3-0.5-2.6-0.3-5.5-2.2-7.5-26.3-27.3-56.1-51.1-88.4-70.9-5.9-3.5-11.6-7.4-17.9-10.1m-459.8 8.5c-12.9 7.4-25.2 15.5-37.5 23.7 12.6 20.8 30.5 37.9 50 52.2 28.9 20.7 61.7 36 96.3 44.2 7.3 1.5 14.6 3.5 22.1 3.5-7.7-26.3-22.9-50.2-43.1-68.6-25.6-23.5-56.5-40.4-87.8-55m-95 69.1c27.1 40.8 68.4 70.6 113.3 89.2 38.9 16.1 80.9 24.8 122.9 25.2-0.1-6.6-1-13.1-1.9-19.6-1.1-7.3-1.8-14.7-3.9-21.7-3.6-1.4-7.9-0.7-11.7-1.5-35.9-5.5-70.4-19-101.6-37.5-29.1-17.4-55.3-40.3-73.9-68.9-15.1 10.7-29.4 22.5-43.2 34.8m-34.9 33.4c-0.9 1.1-2.8 2.8-0.9 3.9 5.9 5.1 12.9 8.6 20 11.7 13.7 5.5 28.5 8.1 43.2 7.9-15.3-13.4-28.9-28.6-40.6-45.2-7.5 7-14.8 14.2-21.7 21.7m717.5-6c0.6 13.4 1.1 26.9 0.5 40.3-1.3 39.7-8.9 79.2-22 116.7-9.9 26.7-22.4 52.5-38.3 76.2-1.1 1.6-2 3.4-1.8 5.4v64.4c0.1 43.7-1.4 87.7 6.1 131 3.3 19 8.3 37.9 16.8 55.3 6.9 14.2 16.5 27.4 28.9 37.4 7.4 6.1 16.5 10.2 22.4 18-0.2 1.5-0.1 3.1 0 4.6-2.3 1.4-4.8 2.7-7.5 2.9-8.3 1-16.5-0.4-24.6-1.9-22.2-4-44.2-10.3-64.9-19.3-29.5-12.7-56.5-31.3-77-55.9-1.9-2.9-5.6-2.6-8.5-3.2-29.1-3.7-57.7-14.7-80.4-33.6-23.9-19.6-40.1-47-50.8-75.7-25.9-4.1-50.5-15.6-70.6-32.4-24.3-20-41.8-47.1-53.8-76 0.2 13 1.8 25.9 2.9 38.8 5.5 53.6 15.1 106.9 31.9 158.2 11.2 34 25.6 67.2 45.1 97.3 17.9 27.8 40.3 53 67.6 71.9 3.2 2.1 7.2 4.7 7.2 9.1 0.6 6.1-6.4 11.1-11.9 8.5-4.2-2.2-7.9-5.3-11.8-8-15.2-11.4-28.9-24.6-41.2-39.1-73.8-0.1-147.6 0-221.5 0 0.5 39.5 4.1 79.1 13.1 117.7 7.4 31.3 18.5 61.9 34.8 89.7 16.1 27.6 37.5 52.2 62.6 71.9 24.6 19.5 52.6 34.4 81.8 45.8 37.5 14.7 78.1 22.1 118.4 19.2 17.3-1.5 34.7-4.3 51-10.4-11.7-19.1-17.7-41-21.6-62.8-3.6 3.7-6.3 8.1-9.9 11.8-2 2-5 2.4-7.7 2.2-22.8-1.4-45.6-5.1-67.5-11.8-33.2-10-64.4-27.1-89.7-50.9-3.5-3.6-8.8-6.9-8.4-12.6v-91.1c-0.4-8.8-6.5-16.3-13.9-20.5-8-4.7-17.2-6.5-26.3-7.7-6.4-0.8-9.4-9.5-5-14.2 4-4.9 10.9-2.5 16.2-1.7 16.8 3 34.4 11.3 42.2 27.3 4.9 9 4.5 19.4 4.3 29.2 33.6 18.9 70.8 30.1 108.2 38.3 45.6 9.6 92.3 13.8 138.9 13.7-18.8-20.2-36.2-41.8-50.9-65.1-41-64.3-63.3-139.3-69.6-215-0.7-4.6 2.8-9.3 7.5-9.8 5.2-0.9 10.1 3.7 10 8.9 4.4 50.2 15.6 100 35.4 146.5 24.8 58.8 63.6 111.7 112.4 152.7 26.4 22.2 55.7 41.3 87.4 55.2 5.3 2.1 10.5 4.7 16.1 5.7v0.7c3.9 0.7 7.7 2 11.7 1.8 23.1-0.1 46.3 0.1 69.4-0.1 0.2-199 0-398 0.1-597 0.1-19.5-0.7-39.1-3.5-58.4-9.9-73.7-42.6-143.5-90.3-200.1m-731.1 22.1c-5.8 7.7-11.5 15.6-15.5 24.4 22.6 19.8 52.9 28.6 82.5 30.4 22 0.9 44.6-1.2 65.2-9.4-7.6-4.6-15.7-8.6-23.1-13.5-4.7-2.7-8.9-6.3-13.7-8.9-4.8 0.1-9.6 1.3-14.4 1.5-28.7 1.6-58.6-6.2-81-24.5m-22.7 41.4c-1.6 5.2-2.9 10.4-4 15.7 27.7 18.5 49.2 44.8 66.1 73.2 82.4 0.1 164.8 0 247.2 0-0.1-16 0.3-32.1-0.9-48.1-44.6-0.4-89-9.4-130.2-26.4-1.4-0.8-2.9-0.1-4.2 0.5-20.4 9.9-42.9 14.6-65.5 15.8-24 1.1-48.3-2-71-10.3-13.4-4.7-25.9-12-37.5-20.4m-143.4 22c-15.9 6.2-31.3 13.7-45.3 23.5 12.2 3.5 24.6 6.2 36.8 9.3 45.8 11.3 91.6 22.5 137.3 33.7 2.8 0.6 5.6 0.5 8.4 0.5 15.9-0.1 31.8 0 47.7-0.1-5.6-9.1-12-17.6-18.9-25.7-19-22.4-43.7-40.6-72.3-48.3-31-8.5-64.1-4.2-93.7 7.1m25.8 75.3c-5.1 4.4-10.8 8.5-14.6 14.1-14 15.1-24 33.6-31.3 52.8-3.2 9.2-6.6 18.4-8.2 28 7.8-2.6 15.1-6.4 22.6-9.5 29.6-13.1 59.4-25.8 88.9-39.1 12.8-4.9 25.2-11 37.9-16.3 0.3-7.7 0.3-15.4-0.1-23.1-21.8-5.1-43.6-10.7-65.4-15.9-4.1-0.9-8.2-2.7-12.4-2.3-6.2 2.8-11.9 7.1-17.4 11.3m112.7 9.4c0.1 111.8 0 223.7 0.1 335.5-0.6 26.8 2.2 53.8 10.3 79.4 5.5 17.1 13.8 33.7 26.6 46.5 1.2 1.1 2.4 2.6 4.2 2.4 25.8 1.2 52.4-4.5 74.2-18.5 14.8-9.5 27.1-23 35.3-38.7-3.3-2.1-6.6-4.2-9.6-6.7-10.9-8.9-17.6-22.6-17.7-36.7-0.1-28.1 0-56.2 0-84.2-0.4-3.9 2.1-7.5 5.7-9.1 17.1-8.8 34.1-18.1 49.6-29.6 25.5-18.5 47.1-42.3 62.9-69.5 12.5-21.2 21.3-44.4 27.8-68.2 8.5-33.6 12-68.3 11.6-102.9-24.8-0.2-49.7-0.1-74.5 0-22.1-0.1-44.1-0.1-66.2 0-22.1-0.1-44.2 0-66.3 0-24.7 0.3-49.4-0.2-74 0.3m1256.4 44.7c-10 2.8-19.4 7.2-29.2 10.5-48 17-99 24.6-149.8 26.3-24 0.4-47.9-0.2-71.8-2 2.9 58.2 10.1 116.3 21.5 173.5 14.2 70.3 35.5 139.3 66 204.2 23 49.1 51.5 95.8 85.3 138.3 2.1 0 4.2 0 6.4 0.1 10.7-16 22.5-31.1 34.8-45.8 8.7-9.9 17.7-19.6 27.1-28.9 36.8-36.4 79.7-66.5 126-89.6 48.4-24.1 100.3-40.9 153.5-50.4 28.1-4.9 56.6-8.2 85.2-8.1h158.3c-2.1-41.5-9.8-83.2-26.9-121.2-14-31.4-35.1-59.1-59.3-83.3-33.1-33.3-72.2-60.3-114.7-80.2-63.5-29.9-133.1-44.9-202.7-50.7-16.2-1.2-32.4-2.5-48.6-1.9-20.5 0.7-41.2 3.6-61.1 9.2m-386.8 10.9c0.2 8.2 0.7 16.4 0.7 24.7v469c0.1 40.6-0.2 81.2 0.2 121.8 19-18.9 39.8-36.3 63-49.9 24.7-14.5 52.6-24.8 81.5-25.5 47.2-0.1 94.3 0.1 141.5-0.1-1.9-2.7-3.8-5.3-5.8-7.9-32.6-44-59.8-91.9-81.7-142-30.5-69.6-51.1-143.2-64.1-217.9-8.8-49.6-13.7-99.8-17-150.1-40-4.2-79.6-11.5-118.3-22.1m857.6 135.5c1 1.7 2 3.3 3.2 4.8 10.4 14.2 19.5 29.4 26.9 45.4 17.1 0.3 34.3 0.3 51.5 0.1-9.2-9.2-19.8-16.9-30.6-24.1-16.1-10.4-33.1-19.3-51-26.2m37.8 68c5.8 15.8 10.6 32 14.1 48.5 25.7-0.1 51.3 0 77 0-1.8-5.9-5.1-11.1-7.9-16.5-5.9-10.6-12.8-20.6-20.6-30-1-1.5-2.6-2.1-4.3-2-19.4 0-38.9-0.5-58.3 0m17.5 65.7c0.5 6.6 1.8 13.1 2.5 19.7 1.2 9.4 1.7 18.9 2.6 28.4 18.5 0.1 37 0 55.4 0 9.8 0 20.1-3.1 26.8-10.5 1.3-1.6 3.2-3.5 2.5-5.8-2.3-10.7-5.3-21.3-8.9-31.6-26.9-0.3-53.9-0.1-80.9-0.2m77.3 63.1c-9.9 3.1-20.4 2.2-30.6 2.3-76.9 0-153.7-0.1-230.6 0.1-55.5 2.4-110.6 13.9-162.8 32.8-50.8 18.5-98.8 44.8-140.9 78.6-8.2 6.7-16.5 13.3-23.9 20.8 7.9-2.5 15.5-5.9 23.5-8.3 31.7-10.3 65-15.9 98.3-16.7 12.5-0.2 25.1-0.1 37.6-0.1 55.7 0 111.5-0.3 167.2-0.4 56.1-0.3 112.1-0.5 168.2 0.5 25.1-0.7 50.1-6.2 72.9-16.7 15.3-7.3 30.1-17.5 39.2-32.1 1.6-2.4 1.3-5.4 1.5-8.2 0.5-20.2-0.3-40.4-3-60.4-5.2 3.1-10.6 6.2-16.6 7.8m-29.4 115c-20.1 7-41.2 11.2-62.5 11.8-13.5 0-27-0.4-40.5-0.4-107.9-0.3-215.7 0.4-323.6 0.5-31.4-0.1-62.9 4-93.1 12.6-26.9 7.8-53 18.9-76.3 34.4-4.7 2.8-7.7 7.5-11.2 11.6-34.2 42.4-60.6 90.8-79.9 141.7-8.8 23.8-16.8 48-22.4 72.8 2.7-2.8 4.7-6 6.9-9.1 15.2-20.8 32.1-40.3 51-57.8 39.4-36.9 87.9-64.8 140.7-77 22.4-5.3 45.5-7.6 68.5-7.4 79.8-0.4 159.6-1.3 239.5-2.1 49.4-0.7 99.3 0 147.8-11 18.5-4.4 37.1-10.3 53.1-20.8 11.4-7.6 22-17.9 26.1-31.3 10.9-30.5 18.7-62.2 22.3-94.4-13.8 11.4-29.6 20.1-46.4 25.9m-17.7 126.9c-20.7 8.3-42.8 13.1-64.8 16.2-23.9 3.4-48 4.6-72 5.3-54.4 1.1-108.8 0.9-163.3 1.9-46.5 0.1-93 0.8-139.5 1.1-58.1 2-114.7 24.6-160.2 60.4-40.4 31.4-72.8 72.2-98.4 116.3-2 3.7-4.6 7.2-5.3 11.4-3.4 19.9-6 40-8 60.1-2.2 24.2-4.2 48.4-4 72.7 5.9-7.1 11-14.9 16.9-22.1 11.7-14.9 24.3-29.1 37.4-42.7 48-49.2 105.7-89.7 170.3-113.7 42.9-16.1 88.6-24.7 134.5-25.4 25.4-0.3 50.8-0.1 76.2-0.1 28.4-0.2 56.8 0.4 85.2-0.5 39.5-2.4 79.5-10 115.1-28.1 13.7-7 26.7-15.8 37.3-27 13.6-16 26.2-32.9 37.6-50.5 9.3-14.5 18.2-29.3 25.6-44.8-7 3.1-13.5 6.9-20.6 9.5m-1249.8 34.5c-2.4 3.6-7.2 6.7-6.1 11.6 3.3 25.1 8.6 50.9 22.9 72.3 8.7-3.5 16.8-8.5 24.5-13.8 15.3-10.8 28.7-24.7 38-41-4.9-2.8-10.5-4.1-15.7-6.2-21.2-7.5-42.2-15.6-63.6-22.9m218.5 38.4c-0.4 6.2-0.5 12.4-0.7 18.7-0.6 39.7 0.8 79.5 3.3 119.1 2.2 33.2 5.6 66.3 5.7 99.7 0.1 17.9 0.1 35.9-3.4 53.5-2.4 12.3-6.9 25.3-17.5 33-10.4 7.1-21.8 12.6-31.6 20.3 2.6 1.2 5.3 2.4 8 3.5 22.2 9.6 41.4 25.1 57.6 43 11.4-10.6 25.1-18.7 39.8-23.6-0.6-44.8 4.1-89.9 16.4-133 8.4-28.9 20.5-57 38.6-81.2 15.8-21.5 36.8-39.2 61.1-50.3-1.5-4.8-3.9-9.1-6.2-13.5-6.7-12.9-14.6-25.3-23.6-36.7-17.6-22.4-40.3-41.4-67.1-51.6-3-1-6.2-0.7-9.2-0.7-23.8-0.1-47.5-0.2-71.2-0.2m865.4 82.6c-20.5 2.7-41.3 3.4-62 3.2h-91c-23.5 0.1-47-0.5-70.4 2-39.9 4.1-79.2 14.4-115.9 30.6-32.3 14.1-62.7 32.4-90.5 53.9-12.5 9.8-25 19.8-36.2 31.2 63.8 0.3 127.5 0 191.3 0.1 14-0.1 28.1 0.4 42.1-0.5 59.3-3.9 116.8-22.7 170.1-48.3 35.1-17 68.6-37.2 99.6-60.8 11.8-9.2 23.7-18.4 34.5-28.7-23.1 8.4-47.2 14.2-71.6 17.3m39.4 31.5c-28.8 21-59.5 39.4-91.5 55-34.4 16.8-70.3 30.6-107.4 39.9v139.2c-0.1 4.9 0.5 10.1-1.4 14.8-2.8 6.9-7.9 12.4-13.1 17.6-8.4 8.1-17.4 15.6-26 23.4-5.2 4.9-11 9.4-15.5 15 20.7 8.3 39.4 20.9 55.9 35.8 5.1 4.4 9.4 9.6 14.5 14.1 2.8-3.2 4.5-7.3 7.2-10.6 19.6-27.9 49-47.5 80.4-59.9 3.3-28.5 6.1-57.2 9.5-85.7 2.3-18.6 4.9-37.2 10.1-55.3 4.2-14.5 10.3-28.6 20-40.3 10.1-12.4 23.6-21.6 38-28.3 18.7-8.8 38.8-13.9 58.8-18.6-3.2-25.6-6.8-51.3-13.1-76.4-8.9 6.8-17.4 13.8-26.4 20.3m-305.2 106.5c-28.3 0-56.7-0.1-85 0-0.1 17.1-0.2 34.2 0 51.3-0.2 13.6 0 27.1 0 40.7 0.1 8.5-5.2 15.8-10.7 21.9-6.2 6.7-13.2 12.6-20 18.7-14.3 12.6-28.3 25.5-40.4 40.2 21.7 7.4 41.6 20 57.8 36.3 4.7 4.6 8.6 9.9 13.1 14.7 3.6-7.6 7.1-15.4 11.5-22.6 18-31 44.4-56.5 74-76.4 4.5-3.4 9.9-5.7 14.1-9.5 2.8-22.5 4.2-45.2 8.9-67.3 2.4-9.9 4.6-19.8 8.4-29.2 2.4-6.9 6.4-13 9.1-19.8-13.6 1.6-27.2 0.8-40.8 1m-666.4 140.1c-18.9 16.5-36.6 36.2-44.3 60.6 36.6 0.3 73.3 0.1 109.9 0.1 3.5-6.1 7.1-12.1 11.2-17.8-18.5-21.2-42.1-39.1-69.7-46.2-2.9-1.1-5 1.7-7.1 3.3m497.6 49.3c-15.2 23-25.7 49.8-27.1 77.6 33.1-0.1 66.2 0.4 99.3-0.2 0.8-7.5 2.7-14.8 4.3-22.2-1-2.7-3-4.8-4.6-7.2-16.3-22.5-39.3-40.5-66-48.7-1.9-0.5-4.8-1.6-5.9 0.7m205.5 22.6c-23.7 26.9-40.3 60.8-42.8 96.8 36 0 72.1 0.1 108.1 0 1-5.9 1.4-12 2.8-17.8 1.7-8.7 4.7-17.1 7.7-25.4-9.6-11.2-20.4-21.4-32.2-30.2-13.2-10-27.7-18.6-43.6-23.4z"/>
 <path class="st1" d="m668.6 87.2c46.4-1.7 93.1 3.7 137.9 16 9 2.6 18.2 5 26.8 8.9 31 13.8 57.5 36.7 77.1 64.4 21 29.8 33.8 64.8 39.9 100.7 3.8 21 5 42.4 5.2 63.8 0.5 82.1 0.4 164.3 0.3 246.4-0.1 23.4 0.4 46.8 2.7 70.2 2.1 22.3 5.8 44.5 12.7 65.8 5.3 16.2 12.5 31.9 22.7 45.6 2.6 3.6 5.7 6.9 8.4 10.5-33.6-7.7-66.2-21.7-93-43.6-23.7-19.3-41.8-45.3-51.4-74.3-6.9-20.6-9.9-42.5-9.7-64.2 0-76.5 0.1-153 0-229.6-0.3-41.4-8.2-83-24.7-121-13.1-30.3-31.6-58.3-53.9-82.7-27.9-30.6-61.7-55.7-98.3-74.9-1.1-0.8-1.9-1.4-2.7-2z"/>
 <path class="st2" d="m612.7 92.9c6.4-0.8 12.9-2.5 19.4-2.4 13.4 4.6 26.2 11 38.6 17.8 29.2 16.1 56.1 36.3 79.4 60.2 25.2 25.9 45.8 56.4 59.4 90 15.1 36.7 21.8 76.5 21.2 116.1 0 76.5-0.1 153 0.1 229.5 0.4 23.9 4.5 47.8 13.1 70.2 3.6 10 8.8 19.3 13.7 28.7-18.2-3.5-36-10.2-51.4-20.6-22.9-15.1-40-38-50.8-63-8.6-19.6-14.1-40.5-17.6-61.6-4.3-26.2-5.9-52.7-5.9-79.3-0.7-15.5-0.7-31-0.9-46.5-1-26.4-0.9-52.9-1.7-79.3-1.5-37.2-11.1-74.2-28.7-107.1-14.1-26.7-33.3-50.7-55.3-71.3-25.9-24.3-55.9-44.1-87.7-59.8-3.6-1.9-7.6-3-10.8-5.7 21.5-6.8 43.6-12.2 65.9-15.9z"/>
 <path class="st1" d="m519.6 118.4c2.4-1.4 4.9 0.3 7.2 1.1 33.4 13.9 65.2 32.2 93.1 55.3 24 19.9 45.2 43.6 60.9 70.7 19.5 33.3 30.2 71.6 31.3 110.1 1 47.2 1.9 94.3 2.9 141.5 1 32.3 4.4 64.7 12.9 96-29.3-6.3-55.3-24.4-74.1-47.4-22.9-28.1-36-63-42-98.4-2.1-12.3-3.4-24.7-4-37.2 0-26.4 0.2-52.8-2.2-79.1-2.9-35.2-10.6-71-29.8-101.1-18.7-29.7-47.1-51.8-77-69.5-10.5-6.4-21.6-11.7-32.3-17.6 17-9.5 35-17.1 53.1-24.4z"/>
 <path class="st2" d="m907.1 144.7c6.3 2.7 12 6.6 17.9 10 32.3 19.8 62.1 43.6 88.4 70.9 1.9 2 1.7 5 2.2 7.5 8.8 72.4-4.2 147.7-38.5 212.3-1.1 2.3-2.4 4.6-4.2 6.4-0.1-28.1-0.1-56.2-0.2-84.3-0.2-23.1 0.3-46.2-2.1-69.2-4.2-42.1-16.1-83.9-38.4-120.1-7.2-11.9-16.1-22.8-25.1-33.5z"/>
 <path class="st2" d="m447.3 153.2c31.3 14.6 62.3 31.5 87.8 55.1 20.1 18.5 35.4 42.3 43.1 68.6-7.5 0-14.8-2-22.1-3.5-34.6-8.3-67.4-23.5-96.3-44.2-19.5-14.3-37.5-31.4-50-52.2 12.2-8.3 24.6-16.4 37.5-23.8z"/>
 <path class="st1" d="m352.3 222.3c13.8-12.3 28.2-24.1 43.2-34.9 18.6 28.6 44.8 51.5 73.9 68.9 31.2 18.6 65.7 32 101.6 37.5 3.8 0.8 8.1 0.2 11.7 1.5 2.2 7 2.8 14.5 3.9 21.7 0.8 6.5 1.7 13 1.9 19.6-42.1-0.5-84-9.2-122.9-25.2-44.9-18.5-86.2-48.3-113.3-89.1z"/>
 <path class="st2" d="m317.4 255.7c7-7.5 14.3-14.7 21.7-21.6 11.7 16.6 25.3 31.8 40.6 45.2-14.7 0.2-29.5-2.4-43.2-7.9-7.1-3-14.2-6.6-20-11.7-2-1.2-0.1-2.9 0.9-4z"/>
 <path class="st3" d="m1034.9 249.7c47.8 56.6 80.4 126.4 90.6 200 2.8 19.3 3.7 38.9 3.5 58.4-0.1 199 0.1 398-0.1 597-23.1 0.3-46.3 0-69.4 0.1-4 0.1-7.8-1.2-11.7-1.8v-0.7c0.2-88.4 0-176.8 0.1-265.1-0.3-12.9 0.7-25.8-0.5-38.7-0.1-1.5-0.2-3.1 0-4.6 1.2-9.6 0.3-19.3 0.6-28.9v-239.5c0.2-18.2-2-36.4-5.2-54.3-3.9-19.6-9.4-39.5-21.1-56.1-2.2-3.4-5-6.4-8.2-8.8 13.2-37.5 20.8-76.9 22-116.7 0.4-13.4-0.1-26.9-0.6-40.3z"/>
 <path class="st1" d="m303.8 271.8c22.5 18.3 52.3 26.1 81 24.5 4.8-0.1 9.6-1.4 14.4-1.5 4.8 2.6 9 6.1 13.7 8.9 7.5 4.9 15.5 8.9 23.1 13.5-20.6 8.2-43.2 10.3-65.2 9.4-29.6-1.8-59.8-10.5-82.5-30.4 4-8.8 9.7-16.7 15.5-24.4z"/>
 <path class="st4" d="m281.1 313.2c11.6 8.4 24 15.7 37.6 20.5 22.6 8.2 47 11.4 71 10.3 22.5-1.2 45.1-5.9 65.5-15.8 1.3-0.6 2.8-1.3 4.2-0.5 41.2 17 85.7 26 130.2 26.4 1.3 16 0.8 32.1 0.9 48.1-82.4 0-164.8 0.1-247.2 0-16.9-28.4-38.4-54.7-66.1-73.2 1-5.4 2.3-10.6 3.9-15.8z"/>
 <path class="st5" d="m137.7 335.2c29.6-11.3 62.7-15.6 93.6-7 28.6 7.7 53.4 25.9 72.3 48.3 6.9 8.1 13.3 16.6 18.9 25.7-15.9 0.1-31.8 0-47.7 0.1-2.8 0-5.6 0.1-8.4-0.5-45.8-11.3-91.6-22.5-137.3-33.7-12.3-3.1-24.7-5.7-36.8-9.3 14-9.8 29.5-17.4 45.4-23.6z"/>
 <path class="st6" d="m163.5 410.5c5.5-4.2 11.2-8.5 17.6-11.4 4.3-0.4 8.3 1.5 12.4 2.3 21.8 5.3 43.5 10.8 65.4 15.9 0.4 7.7 0.3 15.4 0.1 23.1-12.7 5.3-25.1 11.4-37.9 16.3-4.4-5.1-9.5-9.7-15.4-13.1-8.8-5.5-19.2-7.5-29-10.6-9.2-2.9-18.6-5.3-27.6-8.5 3.6-5.6 9.3-9.6 14.4-14z"/>
 <path class="st5" d="m1013.3 406.7c3.2 2.4 6 5.4 8.2 8.8 11.7 16.6 17.2 36.5 21.1 56.1 3.3 17.9 5.5 36.1 5.2 54.3v239.5c-0.2 9.6 0.6 19.3-0.6 28.9-5.9-7.8-15-11.9-22.4-18-12.4-10-21.9-23.1-28.9-37.4-8.5-17.4-13.4-36.3-16.8-55.3-7.5-43.3-5.9-87.3-6.1-131v-64.4c-0.2-2 0.7-3.8 1.8-5.4 16.1-23.6 28.7-49.4 38.5-76.1z"/>
 <path class="st5" d="m276.2 419.9c24.6-0.6 49.2-0.1 73.9-0.2h66.3c-0.4 19.7 2.2 39.3 7.3 58.3 4.6 16.3 10.6 32.3 19.6 46.8 13.6 22.9 33.2 42.1 56.1 55.7 6 3.7 13 5.8 18.5 10.3-15.9 27.2-37.5 51-62.9 69.5-15.5 11.5-32.5 20.8-49.6 29.6-3.5 1.5-6 5.1-5.7 9.1v84.2c0.1 14.1 6.8 27.8 17.7 36.7 3 2.5 6.3 4.6 9.6 6.7-8.2 15.6-20.4 29.1-35.3 38.7-21.9 14-48.4 19.8-74.2 18.5-1.8 0.1-3-1.3-4.2-2.4-12.8-12.8-21-29.5-26.6-46.5-8.1-25.6-11-52.6-10.3-79.4-0.2-111.9 0-223.7-0.2-335.6m95.1 114.4c-3.2 1.5-5.1 4.9-5 8.4v41.6c0.4 8.4-4.8 18-13.6 19.5-5.6 1.3-7.8 8.7-4.5 13.2 2.6 3.9 7.8 4.4 11.9 3 14.5-4.5 23.8-19.9 23.8-34.6-0.1-14.5 0.1-29.1-0.1-43.6 0-6.2-7.3-10.3-12.5-7.5z"/>
 <path class="st7" d="m416.3 419.7c22.1-0.1 44.1-0.1 66.2 0 0.8 18.2 5.9 36.2 14.3 52.4 7.7 15.2 19.4 28.1 32.6 38.7 5.1 4.3 11.4 7 16.1 11.8-6.4 23.7-15.3 46.9-27.8 68.2-5.5-4.5-12.5-6.6-18.5-10.3-22.9-13.6-42.5-32.7-56.1-55.7-9-14.4-15-30.5-19.6-46.8-5-18.9-7.5-38.6-7.2-58.3z"/>
 <path class="st8" d="m482.5 419.7c24.8-0.1 49.7-0.2 74.5 0 0.4 34.6-3.1 69.3-11.6 102.9-4.7-4.8-11-7.5-16.1-11.8-13.2-10.6-24.9-23.5-32.6-38.7-8.2-16.2-13.4-34.1-14.2-52.4z"/>
 <path class="st9" d="m117.6 477.4c7.3-19.2 17.3-37.7 31.3-52.8 9.1 3.3 18.4 5.7 27.6 8.5 9.8 3.1 20.2 5 29 10.6 5.9 3.4 11 7.9 15.4 13.1-29.5 13.3-59.3 26-88.9 39.1-7.6 3.1-14.9 6.9-22.6 9.5 1.6-9.6 5-18.8 8.2-28z"/>
 <path class="st5" d="m1532.6 464.6c19.9-5.7 40.6-8.6 61.3-9.1 16.2-0.5 32.4 0.8 48.6 1.9 69.7 5.8 139.3 20.7 202.7 50.7 42.5 19.9 81.6 47 114.7 80.2 24.2 24.2 45.3 51.9 59.3 83.3 17.1 38 24.9 79.7 26.9 121.2-52.8-0.1-105.5 0-158.3 0-28.6-0.1-57.1 3.2-85.2 8.1-53.2 9.5-105.1 26.2-153.5 50.4-46.3 23.1-89.2 53.2-126 89.6-9.5 9.2-18.4 19-27.1 28.9-7.9-9-14.1-19.4-20.6-29.4-37.3-58.1-65.7-121.6-86.8-187.2-24.7-78.1-39.7-159.2-44-241-0.1-3.2-0.1-6.4 0-9.6 3-0.3 6.1-0.7 9.1-1 50.8-1.7 101.7-9.3 149.8-26.3 9.8-3.5 19.2-7.9 29.1-10.7z"/>
 <path class="st4" d="m1145.8 475.5c38.7 10.6 78.3 17.9 118.3 22.1 3.2 50.3 8.2 100.5 17 150.1 13 74.7 33.6 148.4 64.1 217.9 22 50.1 49.1 98 81.7 142 1.9 2.6 3.9 5.2 5.8 7.9-47.2 0.2-94.3 0-141.5 0.1-28.9 0.6-56.8 10.9-81.5 25.5-23.2 13.5-44 31-63 49.9-0.4-40.6-0.1-81.2-0.2-121.8v-469c0-8.3-0.6-16.5-0.7-24.7z"/>
 <path class="st3" d="m1281.8 499.4c23.9 1.8 47.9 2.4 71.8 2-3 0.3-6.1 0.7-9.1 1-0.1 3.2-0.2 6.4 0 9.6 4.3 81.8 19.2 163 44 241 21.1 65.6 49.4 129.2 86.8 187.2 6.5 10 12.7 20.4 20.6 29.4-12.3 14.7-24.2 29.9-34.8 45.8-2.1 0-4.3 0-6.4-0.1-33.7-42.6-62.2-89.2-85.3-138.3-30.6-64.9-51.8-134-66-204.2-11.4-57.1-18.6-115.1-21.6-173.4z"/>
 <path class="st5" d="m609.4 503.9c12 28.9 29.5 56 53.8 76 20.1 16.8 44.7 28.3 70.6 32.4 10.6 28.7 26.9 56.1 50.8 75.7 22.7 18.9 51.2 29.9 80.4 33.6 3 0.5 6.7 0.3 8.5 3.2 20.5 24.6 47.5 43.2 76.8 55.8 20.8 9 42.7 15.2 64.9 19.3 8.1 1.5 16.4 2.9 24.6 1.9 2.7-0.2 5.2-1.6 7.5-2.9 1.2 12.9 0.2 25.8 0.5 38.7 0 88.4 0.1 176.8-0.1 265.1-5.7-1-10.8-3.6-16.1-5.7-31.7-13.9-60.9-33-87.4-55.2-48.8-41.1-87.6-93.9-112.4-152.7-19.8-46.4-31-96.3-35.4-146.5 0.1-5.2-4.8-9.8-10-8.9-4.6 0.5-8.2 5.2-7.5 9.8 6.3 75.7 28.6 150.7 69.6 215 14.7 23.4 32 45 50.9 65.1-46.6 0.1-93.3-4.1-138.9-13.7-37.4-8.2-74.7-19.4-108.2-38.3 0.1-9.9 0.5-20.3-4.3-29.2-7.8-16.1-25.4-24.4-42.2-27.3-5.3-0.8-12.2-3.2-16.2 1.7-4.4 4.7-1.4 13.4 5 14.2 9.1 1.2 18.3 3 26.3 7.7 7.4 4.2 13.5 11.7 13.9 20.5v91.1c-0.4 5.7 4.8 9 8.4 12.6 25.3 23.8 56.5 40.9 89.7 50.9 21.9 6.6 44.6 10.3 67.5 11.8 2.7 0.2 5.7-0.2 7.7-2.2 3.6-3.7 6.3-8.2 9.9-11.8 3.9 21.8 9.8 43.8 21.6 62.8-16.3 6.2-33.7 9-51 10.4-40.3 2.9-80.9-4.5-118.4-19.2-29.2-11.3-57.2-26.3-81.8-45.8-25.2-19.8-46.5-44.3-62.6-71.9-16.3-27.8-27.5-58.4-34.8-89.7-9-38.5-12.6-78.2-13.1-117.7 73.8 0 147.6-0.1 221.5 0 12.3 14.4 26 27.7 41.2 39.1 3.9 2.7 7.5 5.8 11.8 8 5.6 2.6 12.6-2.4 11.9-8.5 0-4.4-3.9-7-7.2-9.1-27.3-18.8-49.7-44.1-67.6-71.9-19.5-30.1-33.9-63.3-45.1-97.3-16.8-51.3-26.4-104.6-31.9-158.2-1.3-12.8-2.9-25.7-3.1-38.7z"/>
 <path class="st0" d="m371.3 534.3c5.3-2.8 12.5 1.4 12.5 7.4 0.2 14.5 0 29.1 0.1 43.6 0.1 14.8-9.3 30.2-23.8 34.6-4.1 1.4-9.4 0.9-11.9-3-3.3-4.5-1.1-11.9 4.5-13.2 8.9-1.5 14.1-11 13.6-19.5v-41.6c-0.1-3.4 1.8-6.9 5-8.3z"/>
 <path class="st1" d="m2003.4 611c17.9 6.9 35 15.8 51 26.3 10.8 7.2 21.4 14.9 30.6 24.1-17.2 0.2-34.3 0.2-51.5-0.1-7.4-16-16.5-31.2-26.9-45.4-1.2-1.6-2.3-3.3-3.2-4.9z"/>
 <path class="st2" d="m2041.2 679c19.5-0.4 38.9 0 58.4-0.1 1.7-0.2 3.3 0.5 4.3 2 7.7 9.4 14.6 19.4 20.6 30 2.8 5.4 6.1 10.6 7.9 16.5h-77c-3.6-16.5-8.4-32.6-14.2-48.4z"/>
 <path class="st1" d="m2058.7 744.7c27 0.1 54-0.1 81 0.1 3.6 10.4 6.6 20.9 8.9 31.6 0.7 2.3-1.2 4.2-2.5 5.8-6.7 7.4-17 10.5-26.8 10.5h-55.4c-1-9.5-1.4-19-2.6-28.4-0.8-6.5-2-13-2.6-19.6z"/>
 <path class="st2" d="m2136 807.8c6-1.6 11.4-4.7 16.7-7.8 2.7 20 3.4 40.2 3 60.4-0.1 2.7 0.2 5.8-1.5 8.2-9.1 14.7-23.8 24.8-39.2 32.1-22.8 10.5-47.9 16.1-72.9 16.7-56.1-0.9-112.1-0.7-168.2-0.5-55.7 0.1-111.5 0.5-167.2 0.4-12.5 0-25.1-0.1-37.6 0.1-33.4 0.8-66.6 6.4-98.3 16.7-8 2.4-15.6 5.8-23.5 8.3 7.4-7.6 15.7-14.2 23.9-20.8 42.2-33.8 90.2-60.1 140.9-78.6 52.2-18.9 107.2-30.4 162.8-32.8 76.9-0.2 153.7 0 230.6-0.1 10.1-0.1 20.6 0.9 30.5-2.3z"/>
 <path class="st1" d="m2106.6 922.8c16.8-5.8 32.6-14.5 46.3-25.9-3.6 32.2-11.4 63.9-22.3 94.4-4.1 13.4-14.7 23.7-26.1 31.3-16 10.5-34.6 16.4-53.1 20.8-48.4 11-98.4 10.3-147.8 11-79.8 0.8-159.6 1.7-239.5 2.1-23-0.2-46.1 2.1-68.5 7.4-52.8 12.2-101.3 40.1-140.7 77-18.9 17.5-35.8 37-51 57.8-2.2 3.1-4.3 6.3-6.9 9.1 5.7-24.7 13.6-49 22.4-72.8 19.3-50.9 45.7-99.2 79.9-141.7 3.4-4.1 6.5-8.8 11.2-11.6 23.3-15.6 49.4-26.7 76.3-34.4 30.2-8.7 61.7-12.7 93.1-12.6 107.9-0.1 215.7-0.8 323.6-0.5 13.5 0 27 0.4 40.5 0.4 21.3-0.5 42.5-4.7 62.6-11.8z"/>
 <path class="st2" d="m2088.9 1049.7c7.1-2.6 13.6-6.4 20.4-9.5-7.4 15.6-16.3 30.4-25.6 44.8-11.5 17.6-24 34.5-37.6 50.5-10.6 11.3-23.6 20-37.3 27-35.6 18-75.5 25.6-115.1 28.1-28.4 0.9-56.8 0.3-85.2 0.5-25.4 0.1-50.8-0.2-76.2 0.1-45.8 0.7-91.5 9.3-134.5 25.4-64.6 24.1-122.4 64.5-170.3 113.7-13.2 13.6-25.7 27.8-37.4 42.7-5.9 7.1-10.9 15-16.9 22.1-0.2-24.3 1.8-48.5 4-72.7 2-20.1 4.6-40.2 8-60.1 0.7-4.2 3.3-7.7 5.3-11.4 25.6-44.1 58-84.9 98.4-116.3 45.5-35.8 102.1-58.4 160.2-60.4 46.5-0.3 93-1 139.5-1.1 54.4-1 108.9-0.8 163.3-1.9 24.1-0.7 48.2-1.9 72-5.3 22.3-3.1 44.3-7.9 65-16.2z"/>
 <path class="st10" d="m839.1 1084.2c21.3 7.3 42.4 15.4 63.6 23 5.2 2.1 10.8 3.4 15.7 6.2-9.4 16.3-22.7 30.1-38 41-7.7 5.3-15.8 10.4-24.5 13.8-14.3-21.4-19.6-47.2-22.9-72.3-1-5 3.7-8.1 6.1-11.7z"/>
 <path class="st4" d="m1057.6 1122.6c23.7-0.1 47.5 0 71.2 0 3.1 0 6.3-0.3 9.2 0.7 26.8 10.2 49.5 29.2 67.1 51.6 9 11.4 16.9 23.8 23.6 36.7 2.2 4.4 4.7 8.8 6.2 13.5-24.3 11.1-45.3 28.9-61.1 50.3-18.1 24.2-30.2 52.3-38.6 81.2-12.3 43.2-16.9 88.2-16.4 133-14.8 4.9-28.4 12.9-39.8 23.6-16.1-17.9-35.4-33.3-57.6-43-2.7-1.1-5.4-2.3-8-3.5 9.9-7.7 21.3-13.2 31.6-20.3 10.6-7.6 15.1-20.7 17.5-33 3.5-17.6 3.4-35.6 3.4-53.5-0.1-33.3-3.6-66.5-5.7-99.7-2.5-39.6-3.9-79.4-3.3-119.1 0.1-6 0.2-12.3 0.7-18.5z"/>
 <path class="st1" d="m1923 1205.2c24.4-3.1 48.5-8.9 71.6-17.3-10.8 10.4-22.7 19.6-34.5 28.7-31.1 23.5-64.6 43.8-99.6 60.8-53.3 25.7-110.8 44.4-170.1 48.3-14 0.9-28.1 0.3-42.1 0.5-63.8-0.1-127.5 0.2-191.3-0.1 11.1-11.4 23.7-21.3 36.2-31.2 27.9-21.5 58.3-39.8 90.5-53.9 36.7-16.2 76-26.5 115.9-30.6 23.4-2.6 46.9-2 70.4-2h91c20.7 0.2 41.4-0.4 62-3.2z"/>
 <path class="st5" d="m1962.4 1236.7c9-6.5 17.6-13.5 26.4-20.3 6.3 25.1 9.9 50.8 13.1 76.4-20 4.6-40.1 9.8-58.8 18.6-14.4 6.7-28 15.9-38 28.3-9.6 11.7-15.8 25.8-20 40.3-5.2 18-7.8 36.7-10.1 55.3-3.4 28.5-6.2 57.1-9.5 85.7-31.4 12.4-60.8 32-80.4 59.9-2.7 3.3-4.4 7.4-7.2 10.6-5.1-4.4-9.4-9.7-14.5-14.1-16.5-14.9-35.2-27.5-55.9-35.8 4.5-5.6 10.3-10.1 15.5-15 8.7-7.8 17.7-15.2 26-23.4 5.2-5.2 10.4-10.7 13.1-17.6 1.9-4.7 1.4-9.9 1.4-14.8v-139.2c37.1-9.4 73.1-23.1 107.4-39.9 32-15.7 62.7-34 91.5-55z"/>
 <path class="st6" d="m1657.2 1343.2c13.6-0.2 27.2 0.6 40.8-1-2.7 6.7-6.7 12.9-9.1 19.8-3.8 9.4-6.1 19.4-8.4 29.2-6.5-0.7-12.9 0.9-19.3 1.3-12.2 1.1-24.4 2.2-36.6 2h-52.4c-0.2-17.1-0.1-34.2 0-51.3 28.3 0 56.6 0.1 85 0z"/>
 <path class="st9" d="m1661.2 1392.6c6.4-0.5 12.8-2.1 19.3-1.3-4.7 22.2-6.2 44.9-8.9 67.3-4.2 3.8-9.6 6-14.1 9.5-29.6 19.9-55.9 45.4-74 76.4-4.4 7.2-7.9 15-11.5 22.6-4.5-4.7-8.4-10.1-13.1-14.7-16.1-16.3-36-28.9-57.8-36.3 12.1-14.7 26.2-27.6 40.4-40.2 6.8-6.1 13.8-12 20-18.7 5.5-6 10.8-13.3 10.7-21.9 0-13.6-0.1-27.1 0-40.7h52.4c12.2 0.2 24.4-0.9 36.6-2z"/>
 <path class="st10" d="m990.8 1483.3c2.1-1.6 4.2-4.4 7.1-3.3 27.6 7.1 51.2 25 69.7 46.2-4 5.7-7.7 11.7-11.2 17.8-36.6 0-73.3 0.2-109.9-0.1 7.7-24.3 25.4-44.1 44.3-60.6z"/>
 <path class="st10" d="m1488.4 1532.6c1.1-2.3 4-1.2 5.9-0.8 26.7 8.2 49.8 26.2 66 48.7 1.6 2.3 3.6 4.4 4.6 7.2-1.6 7.4-3.5 14.7-4.3 22.2-33.1 0.6-66.2 0.1-99.3 0.2 1.4-27.7 11.9-54.5 27.1-77.5z"/>
 <path class="st10" d="m1693.9 1555.2c15.9 4.9 30.4 13.4 43.7 23.3 11.8 8.9 22.6 19 32.2 30.2-3 8.3-6.1 16.7-7.7 25.4-1.4 5.9-1.8 11.9-2.8 17.8-36 0.2-72.1 0.1-108.1 0 2.5-36 19.1-69.9 42.7-96.7z"/>
</svg>