<svg xmlns:inkscape="http://www.inkscape.org/namespaces/inkscape" xmlns:sodipodi="http://sodipodi.sourceforge.net/DTD/sodipodi-0.dtd" xmlns="http://www.w3.org/2000/svg" xmlns:svg="http://www.w3.org/2000/svg" xmlns:rdf="http://www.w3.org/1999/02/22-rdf-syntax-ns#" xmlns:cc="http://creativecommons.org/ns#" xmlns:dc="http://purl.org/dc/elements/1.1/" xml:space="preserve" id="svg2" version="1.1" sodipodi:docname="lion.svg" inkscape:version="1.2 (dc2aeda, 2022-05-15)" viewBox="0 0 465.05 393.36"><sodipodi:namedview id="namedview1644" pagecolor="#ffffff" bordercolor="#000000" borderopacity="0.25" inkscape:showpageshadow="2" inkscape:pageopacity="0.0" inkscape:pagecheckerboard="0" inkscape:deskcolor="#d1d1d1" showgrid="false" inkscape:zoom="0.96840725" inkscape:cx="88.289302" inkscape:cy="256.60692" inkscape:window-width="1382" inkscape:window-height="847" inkscape:window-x="0" inkscape:window-y="25" inkscape:window-maximized="1" inkscape:current-layer="g12"/><metadata id="metadata8"><rdf:RDF><cc:Work rdf:about=""><dc:format>image/svg+xml</dc:format><dc:type rdf:resource="http://purl.org/dc/dcmitype/StillImage"/></cc:Work></rdf:RDF></metadata><defs id="defs6"/><g transform="matrix(0.13333333,0,0,-0.13333333,0,457.69333)" id="g12"><path id="path64" style="fill:#b4d47c;fill-opacity:1;fill-rule:evenodd;stroke:none" d="m 1552.79,482.512 c 817.07,0 1483.48,168.437 1483.48,374.949 0,206.519 -666.41,374.959 -1483.48,374.959 -817.102,0 -1483.5166,-168.44 -1483.5166,-374.959 0,-206.512 666.4146,-374.949 1483.5166,-374.949"/><path id="path66" style="fill:#6c4e1e;fill-opacity:1;fill-rule:evenodd;stroke:none" d="m 3101.92,1546.26 c 73.4,101.69 163.61,51.19 245.4,76.79 -10.47,-16.05 -22.93,-28.8 -38.73,-35.98 59.76,-27.55 90.42,-70.02 179.27,-82.6 -34.24,-53.27 -88.71,-79.75 -171.6,-89.37 14.85,-6.74 29.74,-13.49 44.61,-20.22 -179.24,-55.8 -247.22,15.64 -258.95,151.38"/><path id="path68" style="fill:#bf9443;fill-opacity:1;fill-rule:evenodd;stroke:none" d="m 913.352,1113.93 c 29.003,95.64 51.648,207.75 62.488,350.49 23.973,-121.85 52.29,-273.98 -62.488,-350.49 z m 220.668,1482.51 c 0.22,116.04 -127.86,401.89 -214.602,474.44 111.412,56.16 146.962,278.01 48.918,331.48 -102.789,56.06 -240.914,-74.26 -288.008,-201.06 -59.781,12.68 -119.558,25.36 -179.336,38.04 -45.273,63.39 -62.824,217.32 -135.847,190.2 -83.25,-30.92 -97.368,-160.31 -54.34,-260.84 -41.664,-41.66 -42.426,-38.74 -82.188,-82.2 -34.359,-37.55 0.68,-101.65 -31.933,-132.45 C 124.23,2917.83 73.5156,2835.41 1.07422,2799.19 -2.93359,2768.95 4.09375,2708.96 25.4844,2686.43 56.2266,2471.88 153.359,2341.61 304.469,2430.24 c 68.894,40.4 106.414,94.53 174.801,113.54 12.55,-363.88 38.832,-500.29 190.199,-831.42 26.609,-239.21 29.703,-463.7 -59.778,-630.35 -31.847,-14.93 -63.699,-20.02 -95.55,-26.07 -44.727,-8.51 -77.477,-43.85 -82.789,-88.499 -2.883,-24.191 3.996,-46.101 20.164,-64.3 16.16,-18.2 37.113,-27.629 61.457,-27.629 24.965,-31.453 70.078,-37.383 149.371,0 48.09,0 89.465,17.148 123.469,51.136 10.125,10.114 20.246,20.25 30.375,30.383 2.003,-7.621 4.003,-15.222 6,-22.832 12.652,-48.039 54.644,-80.41 104.332,-80.41 32.66,-22.488 74.21,-18.309 120.45,0 42.19,0 78.45,13 111.01,39.813 14.68,12.089 29.35,24.16 44.03,36.25 -3.14,119.638 4.47,168.878 30.67,229.188 28.87,66.48 40.03,129.3 35.8,201.65 -4.66,80.15 43.6,149.76 39.49,237.56 215.08,101.89 393.38,58.51 565.15,46.19 44.29,-73.81 110.69,-138.1 161.35,-178.45 61.9,-49.27 84.09,-129.27 56.48,-203.4 -31.9,-85.54 -82.03,-164.99 -144.48,-240.34 -37.7,-10.29 -75.38,-20.58 -113.06,-30.852 -40.75,-11.117 -68.68,-45.148 -71.7,-87.277 -0.25,-3.633 -0.5,-7.281 -0.76,-10.883 -1.11,-15.898 3.7,-30 14.36,-41.828 10.67,-11.84 24.14,-18.14 40.06,-18.691 36.51,-40.367 98.02,-30.649 167.13,-5.77 54.2,-1.847 101.57,26.84 125.03,75.742 58.6,122.209 128.55,240.599 206.34,326.849 47.5,52.68 69.47,131.38 46.28,197.53 67.02,-1.82 174.11,-45.74 213.97,-92.37 5.43,-83.33 10.86,-166.65 16.28,-249.98 -30.96,-22.29 -96.18,-56.01 -148.83,-85.509 -38.3,-21.481 -60.37,-59.152 -60.37,-103.063 0,-5.277 0,-10.589 0,-15.886 0,-35.973 28.55,-65.5 64.5,-66.75 44.12,-41.762 104.65,-40.453 177.79,-6.133 46.78,-1.609 87.76,18.98 114.41,57.461 3.52,5.082 7.04,10.18 10.56,15.281 31.15,44.988 46.27,91.66 47.42,146.359 1.83,86.31 3.64,172.65 5.46,258.96 2.17,103.57 -44.12,193.58 -129.62,252.08 -237.47,162.47 -52.66,272.67 -155.46,511.54 225.46,-214.04 384.67,-509.61 693.04,-563.15 44.25,-7.7 52.7,36.7 7.5,45.09 -350.82,65.12 -511.02,545.4 -874.86,738.6 -325.48,247.26 -914.79,193.59 -1207.92,326.84 v 0"/><path id="path70" style="fill:#e7c687;fill-opacity:1;fill-rule:evenodd;stroke:none" d="m 4.98828,2733.69 c 4.10938,-19.26 10.84372,-37.08 20.49612,-47.26 30.7422,-214.55 127.8746,-344.82 278.9846,-256.19 68.894,40.4 106.414,94.53 174.801,113.54 46.039,41.82 3.371,80.72 -1.461,112.88 -20.879,138.99 -121.813,177.32 -287.246,134.47 -37.071,-0.81 -74.133,-1.59 -111.188,-2.38 L 4.98828,2733.69"/><path id="path72" style="fill:#ad8539;fill-opacity:1;fill-rule:evenodd;stroke:none" d="m 669.469,1712.36 c 26.609,-239.21 29.703,-463.7 -59.778,-630.35 -31.847,-14.93 -63.699,-20.02 -95.55,-26.07 -44.727,-8.51 -77.477,-43.85 -82.789,-88.499 -2.883,-24.191 3.996,-46.101 20.164,-64.3 16.16,-18.2 37.113,-27.629 61.457,-27.629 24.965,-31.453 70.078,-37.383 149.371,0 48.09,0 89.465,17.148 123.469,51.136 10.125,10.114 20.246,20.25 30.375,30.383 -24.29,57.959 12.765,109.799 97.164,156.899 29.003,95.64 51.648,207.75 62.488,350.49 -3.945,18.14 -7.891,36.29 -11.836,54.44 -98.184,64.49 -196.363,129 -294.535,193.5"/><path id="path74" style="fill:#ad8539;fill-opacity:1;fill-rule:evenodd;stroke:none" d="m 1827.86,1644.04 c 15.11,1.22 30.2,1.48 45.26,0.4 44.29,-73.81 110.69,-138.1 161.35,-178.45 61.9,-49.27 84.09,-129.27 56.48,-203.4 -31.9,-85.54 -82.03,-164.99 -144.48,-240.34 -37.7,-10.29 -75.38,-20.58 -113.06,-30.852 -40.75,-11.117 -68.68,-45.148 -71.7,-87.277 -0.25,-3.633 -0.5,-7.281 -0.76,-10.883 -1.11,-15.898 3.7,-30 14.36,-41.828 10.67,-11.84 24.14,-18.14 40.06,-18.691 36.51,-40.367 98.02,-30.649 167.13,-5.77 54.2,-1.847 101.57,26.84 125.03,75.742 58.6,122.209 128.55,240.599 206.34,326.849 47.5,52.68 69.47,131.38 46.28,197.53 -99.31,58.61 -151.58,77.56 -175.84,205.07 -31.41,85.2 -80.04,143.93 -138.59,187.47 48.42,-54.18 92.55,-112.38 110.09,-195.64 -100.1,24.47 -200.19,48.91 -300.27,73.37 l -27.68,-53.3"/><path id="path76" style="fill:#e7c687;fill-opacity:1;fill-rule:evenodd;stroke:none" d="m 1307.97,1598.25 c -2.18,-15.97 -5.55,-52.88 -7.4,-73.99 214.28,5.29 409.46,131.87 572.55,120.18 89.7,4.94 182.12,-3.68 282.69,-20.47 -313.44,147.54 -600.85,172.61 -842.7,158.42 17.44,-65.62 10.05,-125.75 -5.14,-184.14"/><path id="path78" style="fill:#2f1e15;fill-opacity:1;fill-rule:evenodd;stroke:none" d="m 1.07422,2799.19 c -4.00781,-30.24 3.01953,-90.23 24.41018,-112.76 55.2226,-9.47 85.6326,-0.39 95.5546,73.45 -0.238,14.15 20.5,12.63 25.039,0.27 3.906,-10.64 8.219,-26.61 24.551,-24.04 14.355,2.69 26.367,10.06 27.367,31.23 0.844,17.81 -11.144,33.29 -28.586,36.94 -73.078,15.27 -124.8944,9.27 -168.33578,-5.09"/><path id="path80" style="fill:#e7c687;fill-opacity:1;fill-rule:evenodd;stroke:none" d="m 484.684,2419.94 c 15.429,-276.23 51.894,-416.88 184.785,-707.58 67.347,-99.18 139.562,-192.9 294.535,-193.5 -4.473,128.91 1.758,296.76 -48.91,374.94 -240.715,113.55 -327.629,747.43 -430.41,526.14"/><path id="path82" style="fill:#2f1e15;fill-opacity:1;fill-rule:evenodd;stroke:none" d="M 335.309,2680.63 C 311.16,2604.7 206.34,2443.91 89.4648,2602.57 c 8.75,-99.09 -44.4257,-66.16 -42.1289,12.25 20.086,-102.4 33.9102,-34.82 26.6797,36.39 89.7544,-145.49 208.7384,-64.74 261.2934,29.42"/><path id="path84" style="fill:#ffffff;fill-opacity:1;fill-rule:evenodd;stroke:none" d="m 434.246,2884.12 c 57.531,148.99 117.567,149.56 179.324,46.47 -26.976,-17.99 -50.937,-46.18 -80.933,-53.95 -31.696,-8.22 -65.602,4.98 -98.391,7.48"/><path id="path86" style="fill:#fbc907;fill-opacity:1;fill-rule:evenodd;stroke:none" d="m 521.902,2884.33 c 24.313,0 44.153,24.72 44.153,55.03 0,30.3 -19.84,55.02 -44.153,55.02 -24.324,0 -44.16,-24.72 -44.16,-55.02 0,-30.31 19.836,-55.03 44.16,-55.03"/><path id="path88" style="fill:#1b1919;fill-opacity:1;fill-rule:evenodd;stroke:none" d="m 434.246,2884.12 c 23.567,142.89 140.66,162.48 179.324,46.47 -67.449,64.76 -126.695,43.77 -179.324,-46.47"/><path id="path90" style="fill:#1b1919;fill-opacity:1;fill-rule:evenodd;stroke:none" d="m 523.906,2977.48 c 14.461,-1.42 26.188,-20.33 26.188,-42.22 0,-21.9 -11.727,-38.53 -26.188,-37.11 -14.457,1.41 -26.187,20.31 -26.187,42.22 0,21.9 11.73,38.52 26.187,37.11"/><path id="path92" style="fill:#ffffff;fill-opacity:1;fill-rule:evenodd;stroke:none" d="m 537.809,2952.91 c -7.454,0.73 -13.496,-8.22 -13.496,-20 0,-11.78 6.042,-21.91 13.496,-22.64 7.445,-0.73 13.484,8.21 13.484,20 0,11.78 -6.039,21.92 -13.484,22.64"/><path id="path94" style="fill:#ad8539;fill-opacity:1;fill-rule:evenodd;stroke:none" d="m 725.438,3187.31 c 196.765,377.15 334.482,-17.56 153.523,-84.22 -28.684,39.32 -81.387,66.63 -153.523,84.22"/></g></svg>