<svg xmlns:inkscape="http://www.inkscape.org/namespaces/inkscape" xmlns:sodipodi="http://sodipodi.sourceforge.net/DTD/sodipodi-0.dtd" xmlns="http://www.w3.org/2000/svg" xmlns:svg="http://www.w3.org/2000/svg" xmlns:rdf="http://www.w3.org/1999/02/22-rdf-syntax-ns#" xmlns:cc="http://creativecommons.org/ns#" xmlns:dc="http://purl.org/dc/elements/1.1/" version="1.1" id="svg2" xml:space="preserve" sodipodi:docname="racoon-animal-publicdomainvectors.org.svg" inkscape:version="1.1.1 (c3084ef, 2021-09-22)" viewBox="0 -0.01 658.54 459.28"><metadata id="metadata8"><rdf:RDF><cc:Work rdf:about=""><dc:format>image/svg+xml</dc:format><dc:type rdf:resource="http://purl.org/dc/dcmitype/StillImage"/></cc:Work></rdf:RDF></metadata><defs id="defs6"/><sodipodi:namedview pagecolor="#ffffff" bordercolor="#666666" borderopacity="1" objecttolerance="10" gridtolerance="10" guidetolerance="10" inkscape:pageopacity="0" inkscape:pageshadow="2" inkscape:window-width="1440" inkscape:window-height="792" id="namedview4" inkscape:pagecheckerboard="0" showgrid="false" inkscape:zoom="0.98659114" inkscape:cx="328.91031" inkscape:cy="369.96075" inkscape:window-x="0" inkscape:window-y="25" inkscape:window-maximized="1" inkscape:current-layer="g12"/><g id="g10" inkscape:groupmode="layer" inkscape:label="ink_ext_XXXXXX" transform="matrix(1.3333333,0,0,-1.3333333,0,576.73333)"><g id="g12" transform="scale(0.1)"><path d="m 2746.52,4325.54 c 999.41,0 1809.6,-810.18 1809.6,-1809.59 0,-614.78 -306.64,-1157.84 -775.24,-1484.86 H 1712.16 c -468.59,327.02 -775.226,870.08 -775.226,1484.86 0,999.41 810.186,1809.59 1809.586,1809.59" style="fill:#fbc6a4;fill-opacity:1;fill-rule:evenodd;stroke:none" id="path64"/><path d="m 2845.45,880.941 c 1153.12,0 2093.62,75.278 2093.62,167.589 0,92.3 -940.5,167.59 -2093.62,167.59 -1153.12,0 -2093.602,-75.29 -2093.602,-167.59 0,-92.311 940.482,-167.589 2093.602,-167.589" style="fill:#fbc6a4;fill-opacity:1;fill-rule:evenodd;stroke:none" id="path66"/><path d="m 4052.39,1424.39 -3.05,-91.93 c -0.52,-37.3 22.17,-74.84 57.43,-95.09 76.1,-43.7 161.06,-62.37 240.67,-52.9 26.64,3.17 55.21,-4.83 79.16,-22.15 23.95,-17.33 41.22,-42.5 47.85,-69.76 3.81,-15.61 -1.19,-30.66 -13.01,-39.15 -11.82,-8.48 -28.52,-9 -43.43,-1.35 l -17.81,-10.9 c -18.66,-11.44 -44.5,-8.95 -64.87,6.23 l -13.01,-6.23 c -28.08,-13.45 -62.62,-13.45 -95.03,0 l -172.36,6.23 c -59.47,2.14 -118.97,31.7 -160.97,79.96 -42,48.26 -61.71,109.69 -53.3,166.17 l 6.88,130.85 203.02,-3.1 1.83,3.12" style="fill:#463c3b;fill-opacity:1;fill-rule:evenodd;stroke:none" id="path68"/><path d="m 3415.43,1424.39 -3.05,-91.93 c -0.51,-37.3 22.17,-74.84 57.44,-95.09 76.08,-43.7 161.04,-62.37 240.66,-52.9 26.63,3.17 55.22,-4.83 79.16,-22.15 23.96,-17.33 41.22,-42.5 47.86,-69.76 3.8,-15.61 -1.22,-30.66 -13.02,-39.15 -11.82,-8.48 -28.52,-9 -43.43,-1.35 l -17.8,-10.9 c -18.67,-11.44 -44.51,-8.95 -64.88,6.23 l -13.01,-6.23 c -28.08,-13.45 -62.61,-13.45 -95.03,0 l -172.37,6.23 c -59.45,2.14 -118.96,31.7 -160.97,79.96 -42,48.26 -61.7,109.69 -53.3,166.17 l 6.89,130.85 203.02,-3.1 1.83,3.12" style="fill:#463c3b;fill-opacity:1;fill-rule:evenodd;stroke:none" id="path70"/><path d="M 1245.82,3167.45 664.238,2809.55 C 346.52,2614.01 114.277,2305.8 13.8984,1946.51 -34.1602,1774.5 45.582,1592.41 204.594,1511.09 c 159.015,-81.32 353.301,-39.42 464.648,100.24 66.586,83.53 117.442,178.44 150.082,280.14 94.508,294.5 306.246,537.01 585.306,670.36 l -158.81,605.62" style="fill:#b2a29e;fill-opacity:1;fill-rule:evenodd;stroke:none" id="path72"/><path d="m 18.043,1961.02 c -1.4024,-4.83 -2.7891,-9.67 -4.1446,-14.51 -48.0586,-172.01 31.6836,-354.1 190.6956,-435.42 130.316,-66.64 284.336,-50.51 396.972,34.36 15.118,36.98 25.477,76.29 30.383,117.15 22.078,183.68 -98.242,354.33 -278.679,395.24 -124.586,28.25 -250.008,-11.68 -335.227,-96.82 z m 672.41,864.65 c 53.82,-1.81 107.02,-16.26 155.074,-42.91 82.871,-45.95 143.09,-124.08 166.423,-215.93 23.79,-93.65 32.35,-190.06 25.76,-285.63 -71.98,-83.6 -131.671,-177.79 -176.663,-279.87 -18.902,136.98 -83.188,264.67 -183.867,361.84 -94.91,91.58 -215.762,149.87 -344.551,167.99 95.519,107.65 206.988,201.67 331.609,278.39 l 26.215,16.12 z M 1245.82,3167.45 976.656,3001.8 c 64.894,-17.48 122.994,-55.78 164.784,-109.93 55.3,-71.64 76.53,-163.88 58.11,-252.5 l 127.45,218.49 -81.18,309.59 v 0" style="fill:#463c3b;fill-opacity:1;fill-rule:evenodd;stroke:none" id="path74"/><path d="m 4118.64,3166.98 57.1,-423.9 c 59.73,-443.51 33.15,-895.83 -78.05,-1327.28 -17.38,-67.44 -73.57,-114.01 -137.57,-114.01 -63.98,0 -120.17,46.57 -137.56,114.01 -74.81,290.29 -119.49,588.87 -133.17,890.11 l 429.25,861.07" style="fill:#766764;fill-opacity:1;fill-rule:evenodd;stroke:none" id="path76"/><path d="m 2582.2,1740.13 -28.77,-147.57 c -10.5,-59.89 16.17,-120.2 67.54,-152.71 110.84,-70.17 242.41,-100.15 372.71,-84.92 43.59,5.08 87.4,-7.74 121.36,-35.57 33.96,-27.83 55.15,-68.25 58.72,-112 2.06,-25.1 -9.88,-49.26 -31.07,-62.88 -21.16,-13.61 -48.11,-14.44 -70.08,-2.15 l -31.41,-17.53 c -32.93,-18.35 -73.79,-14.35 -102.56,10.01 l -22.51,-10.01 c -48.57,-21.58 -104.02,-21.58 -152.59,0 l -275.14,10.01 c -94.91,3.45 -182.79,50.93 -237.71,128.4 -54.91,77.48 -70.61,176.11 -42.43,266.81 l 45.02,210.11 325.17,-5 3.75,5" style="fill:#463c3b;fill-opacity:1;fill-rule:evenodd;stroke:none" id="path78"/><path d="m 2367.07,1482.5 c 194.63,0 353.38,183.71 353.38,408.99 0,225.22 -158.75,408.95 -353.38,408.95 -194.63,0 -353.38,-183.73 -353.38,-408.95 0,-225.28 158.75,-408.99 353.38,-408.99" style="fill:#766764;fill-opacity:1;fill-rule:evenodd;stroke:none" id="path80"/><path d="M 2092.47,1662.6 2063.7,1515 c -10.5,-59.86 16.17,-120.17 67.54,-152.69 110.84,-70.16 242.41,-100.15 372.7,-84.91 43.59,5.08 87.41,-7.76 121.37,-35.57 33.95,-27.84 55.15,-68.27 58.73,-112.02 2.04,-25.09 -9.9,-49.26 -31.08,-62.87 -21.17,-13.61 -48.1,-14.43 -70.08,-2.17 l -31.42,-17.5 c -32.93,-18.35 -73.79,-14.38 -102.56,10 l -22.51,-10 c -48.57,-21.59 -104,-21.59 -152.58,0 l -275.14,10 c -94.91,3.46 -182.79,50.91 -237.71,128.41 -54.92,77.47 -70.61,176.1 -42.45,266.8 l 45.04,210.12 325.17,-5.01 3.75,5.01" style="fill:#463c3b;fill-opacity:1;fill-rule:evenodd;stroke:none" id="path82"/><path d="m 3733.89,4229.27 c -556.31,-152.72 -513.02,-380.3 -707.21,-580.06 -125.58,-129.2 -310.79,-181.17 -485.25,-136.18 -408.26,105.29 -842.21,20.34 -1180.63,-231.11 -127.62,-94.82 -209.35,-239.05 -225.12,-397.25 -51.71,-518.73 136.19,-1032.67 510.27,-1395.75 105.22,-102.11 262.82,-128.04 395.21,-65.04 139,66.16 247.95,182.27 305.16,325.18 l 160.09,45.03 c 301.73,84.86 268.77,89.84 560.29,204.94 95.43,37.67 199.84,46.38 300.17,25.02 256.34,-54.58 513.6,88.56 602.35,335.17 155.42,431.9 176.51,900.71 60.46,1344.81 l -295.79,525.24" style="fill:#948580;fill-opacity:1;fill-rule:evenodd;stroke:none" id="path84"/><path d="m 2346.32,1749.06 160.09,45.03 c 284.87,80.11 271.47,89.04 514.42,186.66 v 0 l -20.77,138.62 c -8.41,56.29 -15.15,112.8 -20.16,169.5 l -101.95,-59.72 c -136.6,-80 -282.85,-142.2 -435.23,-185.08 l -25.02,-87.55 c -20.1,-70.38 -43.92,-139.61 -71.38,-207.46" style="fill:#b2a29e;fill-opacity:1;fill-rule:evenodd;stroke:none" id="path86"/><path d="m 3781.05,3625.68 c 218.9,0 378.92,-325.94 357.4,-727.99 -21.51,-402.06 -216.41,-728 -435.32,-728 -218.91,0 -378.92,325.94 -357.4,728 21.51,402.05 216.41,727.99 435.32,727.99" style="fill:#463c3b;fill-opacity:1;fill-rule:evenodd;stroke:none" id="path88"/><path d="m 4425.97,4325.28 -78.81,0.26 c -134.75,0.42 -261.97,-62.12 -343.92,-169.11 l 215.11,-97.55 11.25,13.76 196.37,252.64" style="fill:#766764;fill-opacity:1;fill-rule:evenodd;stroke:none" id="path90"/><path d="m 4095.8,4142.68 55.03,56.29 c 72.97,74.63 170.97,119.62 275.14,126.31 34.46,2.22 68.26,-10.25 93.05,-34.31 24.77,-24.07 38.22,-57.49 37.02,-92 -4.36,-124.71 -71.7,-238.69 -178.85,-302.66 l -281.39,246.37" style="fill:#948580;fill-opacity:1;fill-rule:evenodd;stroke:none" id="path92"/><path d="m 4145.9,4135.77 43.05,44.02 c 57.09,58.39 133.76,93.59 215.24,98.82 26.97,1.73 53.41,-8.02 72.8,-26.84 19.38,-18.83 29.9,-44.97 28.95,-71.98 -3.41,-97.55 -56.09,-186.72 -139.9,-236.76 l -220.14,192.74" style="fill:#463c3b;fill-opacity:1;fill-rule:evenodd;stroke:none" id="path94"/><path d="m 3260.42,4325.28 78.79,0.26 c 134.77,0.42 261.99,-62.12 343.94,-169.11 l -215.11,-97.55 -11.27,13.76 -196.35,252.64" style="fill:#766764;fill-opacity:1;fill-rule:evenodd;stroke:none" id="path96"/><path d="m 3590.59,4142.68 -55.03,56.29 c -72.97,74.63 -170.98,119.62 -275.14,126.31 -34.46,2.22 -68.27,-10.25 -93.04,-34.31 -24.79,-24.07 -38.23,-57.49 -37.02,-92 4.33,-124.71 71.7,-238.69 178.84,-302.66 l 281.39,246.37" style="fill:#948580;fill-opacity:1;fill-rule:evenodd;stroke:none" id="path98"/><path d="m 3540.48,4135.77 -43.04,44.02 c -57.08,58.39 -133.75,93.59 -215.25,98.82 -26.95,1.73 -53.4,-8.02 -72.78,-26.84 -19.39,-18.83 -29.9,-44.97 -28.98,-71.98 3.42,-97.55 56.1,-186.72 139.93,-236.76 l 220.12,192.74" style="fill:#463c3b;fill-opacity:1;fill-rule:evenodd;stroke:none" id="path100"/><path d="m 3843.19,4229.27 c 339.3,0 614.33,-273.11 614.33,-472.26 0,-132.3 -72.99,-231.07 -190.14,-299.46 -110.23,-64.34 -198.31,-129.39 -292.27,-215.77 -37.86,-34.81 -83.19,-55.07 -131.92,-55.07 -48.72,0 -94.05,20.26 -131.92,55.07 -93.95,86.38 -182.04,151.43 -292.27,215.77 -117.15,68.39 -190.13,167.16 -190.13,299.46 0,199.15 275.04,472.26 614.32,472.26" style="fill:#948580;fill-opacity:1;fill-rule:evenodd;stroke:none" id="path102"/><path d="m 4454.62,3793.18 c 1.91,-12.26 2.9,-24.34 2.9,-36.17 0,-132.3 -72.99,-231.07 -190.14,-299.46 -110.23,-64.34 -198.31,-129.39 -292.27,-215.77 -37.86,-34.81 -83.19,-55.07 -131.92,-55.07 -48.72,0 -94.05,20.26 -131.92,55.07 -93.95,86.38 -182.04,151.43 -292.27,215.77 -117.15,68.39 -190.13,167.16 -190.13,299.46 0,11.83 1,23.91 2.89,36.17 137.13,86.25 297.36,131.28 461.35,127.92 36.93,-0.76 66.39,-31.1 66.04,-68.04 -0.87,-93.54 -30.61,-325.17 84.04,-325.17 114.66,0 84.92,231.63 84.05,325.17 -0.34,36.94 29.09,67.28 66.04,68.04 163.99,3.36 324.22,-41.67 461.34,-127.92" style="fill:#d7c9c4;fill-opacity:1;fill-rule:evenodd;stroke:none" id="path104"/><path d="m 3484.08,3417.82 c -20.93,13.39 -42.54,26.58 -65.08,39.73 -92.23,53.84 -157.07,126.52 -180.49,219.56 111.62,70.27 236.5,116.89 366.91,136.93 16.96,2.61 34.12,-3.17 46.04,-15.5 11.94,-12.32 17.15,-29.67 13.99,-46.54 -6,-31.95 -11.67,-63.97 -17.01,-96.04 -6.91,-41.48 -36.17,-75.73 -76.04,-89.05 -62.59,-20.91 -99.99,-84.58 -88.32,-149.09 z m 963.8,259.29 c -23.42,-93.04 -88.28,-165.72 -180.5,-219.56 -22.54,-13.15 -44.14,-26.34 -65.07,-39.73 11.67,64.51 -25.74,128.18 -88.32,149.09 -39.87,13.32 -69.12,47.57 -76.04,89.05 -5.35,32.07 -11.02,64.09 -17.01,96.04 -3.16,16.87 2.05,34.22 13.98,46.54 11.92,12.33 29.1,18.11 46.05,15.5 130.41,-20.04 255.28,-66.66 366.91,-136.93 v 0" style="fill:#574c4b;fill-opacity:1;fill-rule:evenodd;stroke:none" id="path106"/><path d="m 3562.42,3766.77 c 24.85,0 41.54,-26.32 37.27,-58.79 -4.27,-32.46 -27.9,-58.77 -52.76,-58.77 -24.87,0 -41.56,26.31 -37.28,58.77 4.27,32.47 27.89,58.79 52.77,58.79" style="fill:#2e2825;fill-opacity:1;fill-rule:evenodd;stroke:none" id="path108"/><path d="m 3573.32,3739.75 c 10.9,0 18.22,-11.54 16.33,-25.76 -1.86,-14.23 -12.21,-25.76 -23.11,-25.76 -10.9,0 -18.21,11.53 -16.35,25.76 1.89,14.22 12.24,25.76 23.13,25.76" style="fill:#ffffff;fill-opacity:1;fill-rule:evenodd;stroke:none" id="path110"/><path d="m 4123.98,3766.77 c -24.87,0 -41.56,-26.32 -37.29,-58.79 4.28,-32.46 27.9,-58.77 52.77,-58.77 24.86,0 41.55,26.31 37.28,58.77 -4.27,32.47 -27.91,58.79 -52.76,58.79" style="fill:#2e2825;fill-opacity:1;fill-rule:evenodd;stroke:none" id="path112"/><path d="m 4147.33,3739.75 c -10.89,0 -18.2,-11.54 -16.34,-25.76 1.88,-14.23 12.23,-25.76 23.14,-25.76 10.88,0 18.2,11.53 16.33,25.76 -1.88,14.22 -12.22,25.76 -23.13,25.76" style="fill:#ffffff;fill-opacity:1;fill-rule:evenodd;stroke:none" id="path114"/><path d="m 3843.19,3344.59 c 66.54,0 155.39,108.06 116.54,162.09 -45.35,63.09 -187.72,63.09 -233.08,0 -38.85,-54.03 50,-162.09 116.54,-162.09" style="fill:#2e2825;fill-opacity:1;fill-rule:evenodd;stroke:none" id="path116"/><path d="m 3829.01,3453.75 c 0,7.84 6.36,14.18 14.18,14.18 7.84,0 14.19,-6.34 14.19,-14.18 v -120.83 c 0,-8.36 2.79,-16.2 7.6,-22.46 4.79,-6.24 11.61,-10.95 19.66,-13.11 8.09,-2.17 16.39,-1.49 23.69,1.53 7.27,3.02 13.59,8.39 17.77,15.63 3.92,6.77 12.58,9.07 19.33,5.16 6.77,-3.92 9.08,-12.57 5.16,-19.34 -7.35,-12.74 -18.57,-22.23 -31.51,-27.59 -12.91,-5.35 -27.54,-6.56 -41.74,-2.76 -13.85,3.71 -25.66,11.74 -34.15,22.41 -8.49,-10.67 -20.28,-18.7 -34.13,-22.41 -14.21,-3.8 -28.83,-2.59 -41.75,2.76 -12.94,5.36 -24.15,14.85 -31.5,27.59 -3.93,6.77 -1.62,15.42 5.13,19.34 6.77,3.91 15.43,1.61 19.34,-5.16 4.19,-7.24 10.51,-12.61 17.78,-15.63 7.3,-3.02 15.6,-3.7 23.68,-1.53 8.06,2.16 14.89,6.87 19.67,13.11 4.81,6.26 7.6,14.1 7.6,22.46 v 120.83" style="fill:#2e2825;fill-opacity:1;fill-rule:evenodd;stroke:none" id="path118"/><path d="m 3619.32,3511.26 -43.02,11.01 c -36.1,9.23 -72.97,15.56 -110.23,18.96 -37.21,3.4 -74.61,3.84 -111.85,1.3 -5.2,-0.35 -9.13,-4.84 -8.79,-10.04 0.36,-5.2 4.85,-9.14 10.05,-8.79 36.41,2.48 72.83,2.07 108.89,-1.23 36,-3.28 71.88,-9.47 107.28,-18.53 l 43.01,-11 c 5.07,-1.29 10.21,1.78 11.49,6.83 1.29,5.06 -1.78,10.2 -6.83,11.49 z m -48.77,-52.88 c 5.02,-1.42 7.93,-6.65 6.51,-11.67 -1.43,-5.02 -6.65,-7.93 -11.67,-6.5 l -65.36,18.64 c -41.67,11.88 -84.76,16.21 -127.3,13.13 -42.58,-3.07 -84.59,-13.55 -124.09,-31.29 -4.76,-2.12 -10.32,0.01 -12.45,4.77 -2.11,4.74 0.02,10.32 4.77,12.44 41.55,18.66 85.72,29.69 130.43,32.91 44.74,3.24 90.03,-1.31 133.82,-13.79 l 65.34,-18.64 z m 496.52,52.88 43.02,11.01 c 36.11,9.23 72.97,15.56 110.24,18.96 37.19,3.4 74.6,3.84 111.83,1.3 5.2,-0.35 9.13,-4.84 8.78,-10.04 -0.34,-5.2 -4.84,-9.14 -10.04,-8.79 -36.4,2.48 -72.81,2.07 -108.87,-1.23 -36.01,-3.28 -71.89,-9.47 -107.29,-18.53 l -43.03,-11 c -5.04,-1.29 -10.19,1.78 -11.47,6.83 -1.29,5.06 1.77,10.2 6.83,11.49 z m 48.76,-52.88 c -5.01,-1.42 -7.91,-6.65 -6.49,-11.67 1.43,-5.02 6.65,-7.93 11.66,-6.5 l 65.35,18.64 c 41.67,11.88 84.77,16.21 127.32,13.13 42.57,-3.07 84.59,-13.55 124.09,-31.29 4.74,-2.12 10.31,0.01 12.43,4.77 2.13,4.74 -0.01,10.32 -4.76,12.44 -41.56,18.66 -85.72,29.69 -130.43,32.91 -44.74,3.24 -90.03,-1.31 -133.81,-13.79 l -65.36,-18.64 z m -79.89,104.4 c -4.85,-1.89 -7.24,-7.37 -5.35,-12.22 1.9,-4.85 7.37,-7.25 12.23,-5.36 l 31,12.14 c 48.89,19.13 99.51,32.92 150.94,41.2 51.5,8.29 103.91,11.1 156.32,8.28 5.19,-0.26 9.63,3.74 9.9,8.94 0.26,5.2 -3.74,9.63 -8.93,9.9 -53.71,2.88 -107.42,0 -160.23,-8.51 -52.87,-8.51 -104.79,-22.64 -154.86,-42.24 l -31.02,-12.13 z m -385.51,0 c 4.86,-1.89 7.26,-7.37 5.37,-12.22 -1.9,-4.85 -7.37,-7.25 -12.22,-5.36 l -31.03,12.14 c -48.88,19.13 -99.49,32.92 -150.93,41.2 -51.5,8.29 -103.9,11.1 -156.31,8.28 -5.21,-0.26 -9.63,3.74 -9.89,8.94 -0.27,5.2 3.74,9.63 8.93,9.9 53.68,2.88 107.4,0 160.23,-8.51 52.87,-8.51 104.79,-22.64 154.85,-42.24 l 31,-12.13 v 0" style="fill:#d7c9c4;fill-opacity:1;fill-rule:evenodd;stroke:none" id="path120"/><path d="m 3355.01,3232.19 82.91,-455.9 c 86.72,-477.01 87.65,-963.5 2.73,-1427.55 -13.28,-72.53 -66.64,-122.61 -130.63,-122.61 -63.99,0 -123.01,50.08 -144.5,122.61 -92.48,312.21 -155.33,633.34 -187.35,957.35 l 376.84,926.1" style="fill:#948580;fill-opacity:1;fill-rule:evenodd;stroke:none" id="path122"/></g></g></svg>